<svg id="Layer_1" data-name="Layer 1" xmlns="http://www.w3.org/2000/svg" viewBox="0 0 2560 1600"><defs><style>.cls-1{fill:#e6e7e8;}.cls-2{fill:#e9e7e0;}.cls-3{fill:#9b7d0d;}.cls-4,.cls-5{fill:#231f20;}.cls-11,.cls-12,.cls-5{fill-rule:evenodd;}.cls-11,.cls-6{fill:#fff;}.cls-10,.cls-7,.cls-9{fill:none;}.cls-8{fill:#725f26;}.cls-10,.cls-9{stroke:#8c7d53;stroke-miterlimit:10;}.cls-9{stroke-width:2.84px;}.cls-10{stroke-width:2.75px;}</style></defs><rect class="cls-1" x="1316.17" y="965" width="530.83" height="120"/><path class="cls-2" d="M270.22,795.62c-4.06-3.66-12.08-3.12-12.08-3.12,4.27-1.56,10.61-1,10.61-1,1.21-5,6.55-6.32,6.55-6.32C270.17,788.67,270.22,795.62,270.22,795.62Z"/><path class="cls-2" d="M296.92,834c.93-4,6.12-7.15,6.12-7.15-3.32.88-7,4-7,4-5.81-.36-5.73.25-5.73.25C295,831.05,296.92,834,296.92,834Z"/><path class="cls-2" d="M316.91,811.75c2.54-4.2,9.58-5.81,9.58-5.81-4.08-.24-9.38,1.91-9.38,1.91-2.33-4-7.27-3.74-7.27-3.74C315.15,805.76,316.91,811.75,316.91,811.75Z"/><path class="cls-3" d="M663.9,990.08a3,3,0,0,1-3-2.61L619.27,668.08a3,3,0,0,1,6-.77L666.88,986.7a3,3,0,0,1-2.58,3.36A2.75,2.75,0,0,1,663.9,990.08Z"/><path class="cls-3" d="M602.49,995.53a3,3,0,0,1-3-2.66L563.17,670.38a3,3,0,0,1,6-.67L605.48,992.2a3,3,0,0,1-2.65,3.32Z"/><path class="cls-3" d="M576.1,725.63a3,3,0,0,1-.68-5.92l50.2-11.64a3,3,0,1,1,1.36,5.84l-50.2,11.65A3.21,3.21,0,0,1,576.1,725.63Z"/><path class="cls-3" d="M579.14,758.11a3,3,0,0,1-.68-5.93l50.21-11.65a3,3,0,1,1,1.35,5.85L579.82,758A3.23,3.23,0,0,1,579.14,758.11Z"/><path class="cls-3" d="M581.49,797.54a3,3,0,0,1-.7-5.92l53.79-13.06a3,3,0,0,1,1.42,5.83l-53.8,13.06A2.82,2.82,0,0,1,581.49,797.54Z"/><path class="cls-3" d="M588.37,832.19a3,3,0,0,1-.67-5.92l50.2-11.64a3,3,0,1,1,1.35,5.84l-50.2,11.65A3.14,3.14,0,0,1,588.37,832.19Z"/><path class="cls-3" d="M587.49,864.53a3,3,0,0,1-.49-5.95L643.77,849a3,3,0,1,1,1,5.91L588,864.49A2.92,2.92,0,0,1,587.49,864.53Z"/><path class="cls-3" d="M595.61,897.2a3,3,0,0,1-.67-5.92l50.2-11.65a3,3,0,0,1,1.36,5.85l-50.21,11.64A3.16,3.16,0,0,1,595.61,897.2Z"/><path class="cls-3" d="M598.49,930.54a3,3,0,0,1-.67-5.93l53.56-12.33a3,3,0,0,1,1.34,5.84l-53.55,12.34A3.16,3.16,0,0,1,598.49,930.54Z"/><path class="cls-3" d="M600.49,960.54a3,3,0,0,1-.62-5.94L654.56,943a3,3,0,0,1,1.25,5.87l-54.69,11.65A3.38,3.38,0,0,1,600.49,960.54Z"/><path class="cls-4" d="M927.2,956.69a7.83,7.83,0,0,1,2.94.46,7.14,7.14,0,0,1,5.21-2,10.09,10.09,0,0,1,1.92.17,5.11,5.11,0,0,1,4.36-1.95,5.86,5.86,0,0,1,5.1,2.43,10.83,10.83,0,0,1,2.66-.32,11.61,11.61,0,0,1,2.74.36c1.37-1.77,4-2.93,7.21-2.88a10.93,10.93,0,0,1,6.86,2.39,11.69,11.69,0,0,1,4.67-.81,11.92,11.92,0,0,1,6.75,2.16c1-1.77,3.52-3,6.48-2.87a9.39,9.39,0,0,1,4.64,1.33A12.69,12.69,0,0,1,1004,957a13,13,0,0,1,4.5-.6,14.43,14.43,0,0,1,2.59.36c1-1.57,3.24-2.61,5.88-2.49a7.68,7.68,0,0,1,5.32,2.24,9.47,9.47,0,0,1,6.88-2.16,10.9,10.9,0,0,1,5.66,1.82,12.81,12.81,0,0,1,6.85-1.47c3.92.21,7.31,1.93,9,4.29a13.28,13.28,0,0,1,6.8,1v-.22c0-2.12,2.52-3.72,5.52-3.54,2.69.16,4.88,1.67,5.26,3.51a11.18,11.18,0,0,1,2.61-.13,11,11,0,0,1,5.75,1.94,3,3,0,0,1-.17-1.07c.07-2.26,2.71-3.92,5.89-3.73s5.7,2.18,5.61,4.43a3.15,3.15,0,0,1-.29,1.17,12.4,12.4,0,0,1,7.85-2,14.9,14.9,0,0,1,2.36.35,12.16,12.16,0,0,1,8.39-2.33c4.44.29,8.14,2.5,9.53,5.35.6-2.39,3.63-4.06,7.2-3.82,3.85.27,6.85,2.67,6.77,5.39l1.08,0a12.11,12.11,0,0,1,4.07,1,12.69,12.69,0,0,1,9.17-2.64c.46,0,.92.09,1.36.16l.27-.2-1.3,15.66c-.42,0-.85,0-1.28,0a14,14,0,0,1-7-2.39,11.06,11.06,0,0,1-6,1.17c-3.47-.24-6.4-1.86-7.77-4-1.11,1.67-3.58,2.72-6.39,2.53-3-.2-5.4-1.73-6.22-3.68a13.9,13.9,0,0,1-4.18.33,14.36,14.36,0,0,1-2.33-.34,12.18,12.18,0,0,1-8.35,2.33,13.72,13.72,0,0,1-5.69-1.59,9.72,9.72,0,0,1-5.65,1.27c-3.48-.21-6.39-2-7.41-4.27a10.49,10.49,0,0,1-5.65,1.16c-3.69-.21-6.78-2.06-7.92-4.47-.67,3.44-4.87,5.9-9.89,5.63a11.66,11.66,0,0,1-8.19-3.65,14.62,14.62,0,0,1-3.06.17,12.52,12.52,0,0,1-8.42-3.57,11,11,0,0,1-4,.51l-.53,0c-.38,1.86-2.63,3.19-5.35,3.06s-4.84-1.58-5.29-3.4c-1.28,2.75-5,4.61-9.3,4.44a11.77,11.77,0,0,1-8.34-3.63,13,13,0,0,1-4.45.61,11.81,11.81,0,0,1-8.4-3.6,2.84,2.84,0,0,1,.35,1.26c.05,2-2.16,3.55-4.95,3.47a5.59,5.59,0,0,1-4.89-2.65,10.73,10.73,0,0,1-6.45,1.79,11.33,11.33,0,0,1-7.81-3.12,10.88,10.88,0,0,1-3.55.52,11.82,11.82,0,0,1-3.41-.55,8.53,8.53,0,0,1-6.34,2.4c-3.9,0-7.33-2.06-8.3-4.75a6.65,6.65,0,0,1-5.51,2.51,9,9,0,0,1-4.51-1.12,6.24,6.24,0,0,1-3.51,1.13c-3,.09-5.78-1.57-6.26-3.79S924,956.79,927.2,956.69Z"/><path class="cls-4" d="M1135,970.42c-.4,4.4,3.83,8.38,9.45,8.9s10.51-2.63,10.91-7-3.82-8.39-9.45-8.9S1135.39,966,1135,970.42Z"/><path class="cls-5" d="M1152.43,974.17a4.8,4.8,0,1,0,5.22-4.35A4.8,4.8,0,0,0,1152.43,974.17Z"/><path class="cls-4" d="M1113.4,959.65a4.89,4.89,0,0,1,2.95.75,6.08,6.08,0,0,1,5.15-3.65,5.46,5.46,0,0,1,1.93.26,4.77,4.77,0,0,1,4.3-3.5c2.26-.06,4.31,1.7,5.18,4.18a6.34,6.34,0,0,1,2.64-.6,7,7,0,0,1,2.75.58c1.32-3.13,4-5.2,7.12-5.18a8.75,8.75,0,0,1,6.93,4.08,7.43,7.43,0,0,1,4.65-1.49,9.13,9.13,0,0,1,6.81,3.68c1-3.13,3.44-5.26,6.4-5.14a6.75,6.75,0,0,1,4.67,2.25,8.26,8.26,0,0,1,6.77-3.12c3.56.16,6.72,2.65,8.55,6.21a7.79,7.79,0,0,1,4.48-1.12,8.27,8.27,0,0,1,2.6.59c.93-2.78,3.16-4.63,5.81-4.47a6.83,6.83,0,0,1,5.38,3.84,7.34,7.34,0,0,1,6.82-3.9A8.32,8.32,0,0,1,1221,957a8.55,8.55,0,0,1,6.81-2.69c3.92.29,7.36,3.25,9.15,7.36a7.58,7.58,0,0,1,2.29-.17,9,9,0,0,1,4.54,1.74l0-.39c0-3.72,2.41-6.54,5.42-6.28,2.69.22,4.93,2.83,5.36,6.06a6.67,6.67,0,0,1,2.61-.28,8.54,8.54,0,0,1,5.8,3.31,9,9,0,0,1-.2-1.88c0-3.95,2.6-6.91,5.78-6.63s5.76,3.73,5.74,7.67a8.46,8.46,0,0,1-.26,2,8.79,8.79,0,0,1,7.79-3.56,9.12,9.12,0,0,1,2.37.57,9,9,0,0,1,8.33-4.22c4.45.43,8.2,4.25,9.68,9.22.53-4.2,3.51-7.17,7.08-6.81,3.86.41,6.93,4.57,6.94,9.33l1.08,0a8.16,8.16,0,0,1,4.09,1.69c2.06-3.27,5.38-5.21,9.09-4.79a9,9,0,0,1,1.37.27c.08-.13.18-.24.26-.36l-.84,27.46a7.86,7.86,0,0,1-1.28,0,10.93,10.93,0,0,1-7.07-4.07,7.31,7.31,0,0,1-6,2.16c-3.48-.36-6.45-3.16-7.89-6.92-1,2.94-3.49,4.83-6.3,4.54-3-.3-5.46-2.94-6.33-6.35a8.25,8.25,0,0,1-4.17.66,9.49,9.49,0,0,1-2.35-.57,8.94,8.94,0,0,1-8.27,4.23,9.93,9.93,0,0,1-5.74-2.69,6.62,6.62,0,0,1-5.61,2.32c-3.49-.31-6.45-3.37-7.54-7.36a7,7,0,0,1-5.61,2.13c-3.7-.32-6.84-3.51-8.05-7.71-.57,6-4.7,10.43-9.73,10-3.46-.26-6.51-2.75-8.29-6.26a8,8,0,0,1-3,.35c-3.5-.26-6.61-2.65-8.52-6.11a6.72,6.72,0,0,1-4,1l-.53-.07c-.32,3.26-2.54,5.62-5.26,5.45s-4.88-2.7-5.39-5.88c-1.2,4.85-4.82,8.17-9.17,7.94-3.51-.2-6.62-2.67-8.45-6.23a7.79,7.79,0,0,1-4.43,1.14c-3.51-.17-6.65-2.6-8.5-6.16a8.39,8.39,0,0,1,.39,2.21c.1,3.5-2.06,6.25-4.85,6.16-2.25-.09-4.21-2-5-4.57a7.78,7.78,0,0,1-6.4,3.25c-3.19-.08-6.09-2.18-7.9-5.34a6.63,6.63,0,0,1-3.53,1,7.62,7.62,0,0,1-3.42-.91,7.18,7.18,0,0,1-6.28,4.31c-3.9,0-7.39-3.49-8.43-8.19-1,2.59-3,4.4-5.44,4.48a6.2,6.2,0,0,1-4.54-1.88,4.79,4.79,0,0,1-3.47,2c-3,.21-5.83-2.65-6.38-6.54S1110.23,959.87,1113.4,959.65Z"/><path class="cls-4" d="M1321.55,980.24c-.27,7.72,4.07,14.64,9.71,15.45s10.43-4.79,10.71-12.5-4.07-14.64-9.71-15.44S1321.83,972.53,1321.55,980.24Z"/><path class="cls-5" d="M1339.11,986.52c-.17,4.63,1.84,8.69,4.49,9.07s4.92-3.06,5.09-7.69-1.84-8.69-4.49-9.07S1339.27,981.89,1339.11,986.52Z"/><path class="cls-4" d="M1163.43,966.58a12,12,0,0,1,3.61.68,10.3,10.3,0,0,1,6.66-1.63,14.88,14.88,0,0,1,2.37.32c1-1.1,3.14-1.77,5.6-1.62,2.82.16,5.22,1.34,6.11,2.82a16.56,16.56,0,0,1,3.33-.11,16.93,16.93,0,0,1,3.37.57c1.87-1.66,5.31-2.61,9.23-2.33a15.47,15.47,0,0,1,8.29,2.92,17.89,17.89,0,0,1,5.87-.45,17,17,0,0,1,8.19,2.68c1.45-1.69,4.66-2.69,8.33-2.37a13.67,13.67,0,0,1,5.62,1.68,17.83,17.83,0,0,1,8.63-1.18c4.41.4,8.15,2.08,10.15,4.26a19.36,19.36,0,0,1,5.65-.24,21.31,21.31,0,0,1,3.18.55c1.36-1.49,4.27-2.35,7.54-2a10.55,10.55,0,0,1,6.39,2.64,14.1,14.1,0,0,1,8.75-1.62,15.58,15.58,0,0,1,6.86,2.25,19.52,19.52,0,0,1,8.65-.94c4.85.51,8.89,2.48,10.81,5a21.23,21.23,0,0,1,2.85.1,19.45,19.45,0,0,1,5.5,1.38v-.22c.26-2.11,3.48-3.51,7.19-3.1,3.33.36,5.91,2,6.2,3.9a18.9,18.9,0,0,1,3.26.07,15.46,15.46,0,0,1,6.95,2.38,2.35,2.35,0,0,1-.1-1.08c.3-2.24,3.74-3.7,7.67-3.27s6.86,2.62,6.54,4.85a2.45,2.45,0,0,1-.48,1.14,18.79,18.79,0,0,1,9.94-1.34,21.9,21.9,0,0,1,2.9.53,18.19,18.19,0,0,1,10.65-1.68c5.49.63,9.86,3.12,11.32,6.07,1-2.34,4.9-3.77,9.31-3.25,4.75.56,8.25,3.19,7.9,5.89l1.34.1a17.68,17.68,0,0,1,5,1.31c2.8-1.67,7.06-2.48,11.64-1.93.57.07,1.13.17,1.67.27.12-.06.25-.11.36-.18l-3.11,15.52c-.53,0-1-.07-1.59-.14a19.64,19.64,0,0,1-8.46-2.92,17.05,17.05,0,0,1-7.56.71c-4.29-.51-7.77-2.35-9.27-4.61-1.53,1.58-4.7,2.44-8.17,2-3.66-.43-6.55-2.15-7.38-4.16a21.57,21.57,0,0,1-5.21,0,23,23,0,0,1-2.88-.53A18.17,18.17,0,0,1,1370,998a20.23,20.23,0,0,1-6.91-2,14.87,14.87,0,0,1-7.14.83c-4.3-.48-7.74-2.47-8.8-4.83a16.07,16.07,0,0,1-7.12.72c-4.57-.5-8.23-2.58-9.42-5.07-1.15,3.38-6.61,5.51-12.82,4.85-4.28-.45-7.88-2.12-9.82-4.27a22.18,22.18,0,0,1-3.81-.06c-4.33-.46-8-2.08-10.12-4.21a16.85,16.85,0,0,1-5,.2l-.66-.08c-.65,1.82-3.58,3-6.94,2.64s-5.86-1.95-6.24-3.8c-1.86,2.64-6.61,4.22-12,3.71-4.33-.42-8-2.09-10-4.27a19.63,19.63,0,0,1-5.59.27c-4.34-.4-8-2.05-10.08-4.23a2.27,2.27,0,0,1,.31,1.28c-.13,2-3,3.37-6.47,3.08-2.79-.25-5.08-1.49-5.83-3a16.21,16.21,0,0,1-8.18,1.29c-4-.32-7.4-1.76-9.4-3.71a16.61,16.61,0,0,1-4.46.24,17.6,17.6,0,0,1-4.18-.81,12.43,12.43,0,0,1-8.11,1.91c-4.84-.32-8.91-2.62-9.84-5.38-1.38,1.39-4,2.24-7.09,2.08a13.24,13.24,0,0,1-5.5-1.46,9.29,9.29,0,0,1-4.46.85c-3.75-.14-7-2-7.42-4.26S1159.48,966.43,1163.43,966.58Z"/><path class="cls-4" d="M1420.19,996.25c-.92,4.36,4,8.66,10.89,9.61s13.3-1.82,14.23-6.17-4-8.66-10.89-9.61S1421.12,991.9,1420.19,996.25Z"/><path class="cls-5" d="M1441.51,1001.33c-.56,2.61,1.63,5.09,4.89,5.54s6.34-1.31,6.89-3.93-1.63-5.09-4.89-5.54S1442.06,998.71,1441.51,1001.33Z"/><path class="cls-2" d="M292.52,874.53,274,854.76l-41.62,16.37L221.26,884l-5.17,15.65,1.82.83,1.14-.05.49,24.83,26.91,2.37,49.86-.88-.5-27.91h0l3.28-.09.89-1.27Z"/><path class="cls-6" d="M270.4,858.25l-14.56,16.47-3.07.84,14.06-15.9Z"/><path class="cls-6" d="M271.88,884.3l6.73,5.56-13.36.16Z"/><path class="cls-6" d="M264,889.2l-.21-11.6,7,5.76Z"/><path class="cls-6" d="M273,883.33l6.65-5.74.21,11.41Z"/><path class="cls-6" d="M271.86,882.4,265,876.76h13.36Z"/><path class="cls-6" d="M263.87,860.82l-13.65,15.44-3.14.86,13.07-14.84Z"/><path class="cls-6" d="M234.24,882.16l4-1.11-4.73,15.69-3.89.22Z"/><path class="cls-6" d="M228.11,897.05l-3.87.21,4.32-13.54,4-1.11Z"/><path class="cls-6" d="M239.91,880.6l4-1.11-5,17-3.89.22Z"/><path class="cls-6" d="M245.58,879l4-1.11-5.24,18.21-3.89.22Z"/><path class="cls-6" d="M257.2,863.44l-12.66,14.38-3.14.86,12.1-13.78Z"/><path class="cls-6" d="M250.56,866.06l-11.7,13.32-3.14.86,11.13-12.72Z"/><path class="cls-6" d="M243.92,868.67,233.2,880.93l-3.16.87,10.17-11.67Z"/><path class="cls-6" d="M233.55,872.75l3.74-1.47-9.77,11.21-3.16.87Z"/><path class="cls-6" d="M218.81,897.56c.65-2,3.48-10.53,4.06-12.28l4-1.1-4.2,13.17Z"/><path class="cls-6" d="M246.45,927.63c-2.29-.78-24.31-2.63-25.48-3V900.34l25-1.1Z"/><path class="cls-6" d="M245.91,896.06l5.35-18.58,4-1.1c-1.32,4.66-5.2,18.42-5.5,19.46Z"/><path class="cls-6" d="M265.49,916.84l-5,8.69-.3-16.86Z"/><path class="cls-6" d="M260.73,906.82l10.74-.34-5.16,8.95C263.76,911.5,261.3,907.71,260.73,906.82Z"/><path class="cls-6" d="M261.26,927.11l5.12-8.89,5.32,8.2Z"/><path class="cls-6" d="M272.36,924.77c-.91-1.41-3-4.63-5.16-8l4.87-8.45Z"/><polygon class="cls-6" points="278.29 916.22 273.81 924.51 273.52 908.39 278.29 916.22"/><path class="cls-6" d="M274,906.4l9.74-.32-4.67,8.66C276.77,910.92,274.55,907.26,274,906.4Z"/><path class="cls-6" d="M274.53,926.24c.68-1.24,2.62-4.84,4.63-8.57l4.84,8Z"/><path class="cls-6" d="M284.61,923.82c-.89-1.45-2.73-4.49-4.64-7.64l4.35-8.08Z"/><path class="cls-6" d="M251.35,897.45c.07-.28.22-.79.41-1.47l42.6-.76c-.53-1.67-5.68-17.66-5.78-18l-16.66-17.82,1-1.1,17,18.16,6.48,20.13Z"/><polygon class="cls-2" points="233.2 908.6 229.9 908.52 230.02 915.4 233.33 915.89 233.2 908.6"/><polygon class="cls-2" points="241.24 908.81 237.34 908.71 237.48 916.51 241.39 917.09 241.24 908.81"/><polygon class="cls-2" points="226.59 908.43 223.77 908.36 223.88 914.49 226.71 914.91 226.59 908.43"/><path class="cls-2" d="M216.09,883a7.18,7.18,0,0,0,0-1.31,9,9,0,0,0-17.45-2.76,9.72,9.72,0,0,0-15.53,7.72,9,9,0,0,0,.43,17.53,5.77,5.77,0,0,0,5.91,7.14,5.71,5.71,0,0,0,4.21-2.17c.85.37,1.73.78,2.62,1.27,3,1.62,4,4.62,4.44,6.06a32.6,32.6,0,0,1,.08,7.67c-.43,2.63-1.34,2.92-2.72,5.18,2.41.33,4.74-.65,7-.48,1.93.15,2.47.15,4.4.29-1.68-2.43-2-5-2.42-7.83-.63-4.1-.68-1.73-1-5.85-.07-1.05,2-3.7,3.44-4.34a2.64,2.64,0,0,0,1.59-2.19c.18-.92,2.71-3.29,4.23-4.6a9.6,9.6,0,0,0,1.42,0,10.68,10.68,0,0,0-.74-21.35Zm-24.15,7a11.16,11.16,0,0,0,.58,2.74,8.47,8.47,0,0,0-2.5.45,5,5,0,0,0-2.33,1.66,5.56,5.56,0,0,0-1.23,2.89,4.89,4.89,0,0,1,.36-3.4,5.61,5.61,0,0,1,2.47-2.69,5.73,5.73,0,0,1,.83-.39,6.48,6.48,0,0,1-.19-1.07,6.72,6.72,0,0,1,3.63-6.44,6.27,6.27,0,0,1,3.36-.6,7.29,7.29,0,0,0-2.82,1.45A6.53,6.53,0,0,0,191.94,890Zm9.28,21.77a10.61,10.61,0,0,0-4.79-3.72,2.88,2.88,0,0,1-1.27-1.37,5.34,5.34,0,0,0,.8,0,6.66,6.66,0,0,0,4.68-2.26,10.29,10.29,0,0,1,.46,1.9C201.06,908,201.27,910,201.22,911.75Zm7.19-4c-.38,1.06-1.76,1.07-2.53,2.33-.1-1.74-.21-3.67-.28-5.46a6.7,6.7,0,0,0,4.51-2.26,10.33,10.33,0,0,0,1.74,1A9.4,9.4,0,0,0,208.41,907.8Zm1.77-21.94a5,5,0,0,0-1.28,2.56,8.24,8.24,0,0,0-.06,2.53,11.22,11.22,0,0,0-2.81-.14,6.54,6.54,0,0,0-5,3,7.15,7.15,0,0,0-1,3,6.31,6.31,0,0,1,.07-3.42,6.72,6.72,0,0,1,5.8-4.57,5.65,5.65,0,0,1,1.09,0,5,5,0,0,1,.27-.88,5.54,5.54,0,0,1,2.27-2.86,4.93,4.93,0,0,1,3.31-.87A5.43,5.43,0,0,0,210.18,885.86Z"/><path class="cls-2" d="M183.83,909.82a7.12,7.12,0,0,1-1.82-4.43,4.54,4.54,0,0,1-.63-.18,11,11,0,0,1-2.45-1.23,10.59,10.59,0,0,1-4.65-8.32,9.9,9.9,0,0,1,1.22-5h-.38a5,5,0,0,0-4,2.41,5.2,5.2,0,0,0-3.2,1.49,5,5,0,0,0-1.89-.32,5,5,0,0,0-4.44,6.92,4.34,4.34,0,0,0-2.12,3.93,4.41,4.41,0,0,0,4.5,4.18c0,.07,0,.15,0,.22.72,2.52,5.49,3.8,6.31,4a8.57,8.57,0,0,1,3.11,1.58,5.3,5.3,0,0,1,1.51,2.16c.94,2.35.48,4,.07,6.44a12.25,12.25,0,0,1-1.81,4.37c1.43.2,2.63-.54,4-.44,1.16.09,3.24.13,4.4.21a14.26,14.26,0,0,1-2.41-5.24c-.37-2.45-.54-4-.71-6.46-.06-.74,1.83-1.63,2.52-1.89.87-.31,1.76-.52,2.63-.8a3.31,3.31,0,0,0,2.21-1.6,3.62,3.62,0,0,0,.19-.4l.19-.08A6.14,6.14,0,0,1,183.83,909.82Zm-18,.16a1.82,1.82,0,0,1-.6-.89,4.37,4.37,0,0,0,1.42-.78c.23,1.15,1.29,1.84,2,2.79A9.29,9.29,0,0,1,165.87,910Zm9.9,5.09a7.2,7.2,0,0,0-3.08-2.43,20.41,20.41,0,0,0-2-.77c-.74-.27-.74-.34-1.09-1-.81-1.5-1.72-1.65-2.14-2.78a4.34,4.34,0,0,1-.14-.48,5,5,0,0,0,.63-1.1,4.79,4.79,0,0,1,2.49-7.49,4.51,4.51,0,0,1,2.51,0,5.48,5.48,0,0,0-2.14.84,4.81,4.81,0,0,0-.55,7.48,5.71,5.71,0,0,0,1.63,1,4.83,4.83,0,0,0,1.79.25l.34,0c.07.09.15.17.22.27a7.49,7.49,0,0,1,1.58,3.13C175.84,913,175.81,914,175.77,915.07Zm4.09-2.57c-.21.64-1,.94-1.54,1.24-.07-1.18-.12-2.35-.16-3.53a3.53,3.53,0,0,1,.12-1.12,6.54,6.54,0,0,0,2,1.88C180.11,911.47,180,912,179.86,912.5Zm4.71-.26a16.07,16.07,0,0,1-3,.94,10.42,10.42,0,0,0,.35-1.49,6.35,6.35,0,0,0,2.14.25,7.73,7.73,0,0,0,1.09-.15A2.59,2.59,0,0,1,184.57,912.24Z"/><path class="cls-6" d="M2692.29,902.75c-652.8-3.94-1287.93,119.54-1769.25,332.17H2692.29Z"/><path class="cls-4" d="M2735.06,902.61c-677.85-9.08-1343.67,119.15-1837.85,342.56h68.6C1447.14,1032.54,2082.27,909.06,2735.06,913Z"/><path class="cls-4" d="M2359.23,1185.28l7.41,23.68c118.66-72.36,242.19-130.17,368.42-172.62v-12.53c-5.12,1.53-10.25,3.06-15.37,4.64C2597.07,1067,2476.25,1116.79,2359.23,1185.28Zm-131.69-13.9,6.74,23c126.77-73.43,260-127.05,394.38-168.23q53-16,106.4-28.88V988q-54.22,11.38-108.1,25.93C2491.38,1051.3,2357.45,1100.66,2227.54,1171.38Zm-131.71-13.89,6.11,22.39c140.1-75.13,286.88-127.86,434.51-167.53q98.75-26,198.61-42.62V963q-100.39,13.9-200,37.48C2386.26,1036.47,2238.94,1085.08,2095.83,1157.49Zm638.9-236.63c-195.77-2.86-391.75,9.41-586.66,38-194.82,29.62-389,71.55-579.27,143.25l4,19.36c188-74.29,382-119.73,576.05-152.58A3670.1,3670.1,0,0,1,2734.73,920.86ZM2499,1223.46a1779.48,1779.48,0,0,1,236-131.86v-17.51A1752.86,1752.86,0,0,0,2490.9,1199.2Zm-534.92-79.82,5.51,21.67c153.48-76.2,313.68-127.72,474.53-165.69a2432.81,2432.81,0,0,1,290.91-49.1v-4.64a2418.91,2418.91,0,0,0-292.12,42.34C2281.07,1022.58,2120.46,1070.12,1964.11,1143.64ZM2252.6,967.19c-185.94,31.17-371,75.33-552,148.79l4.45,20.16c178.46-76.1,363.32-123.93,548.44-158.46a3183.66,3183.66,0,0,1,481.58-50v-1.48A3179.18,3179.18,0,0,0,2252.6,967.19Zm-420.24,162.62,5,20.92c166.53-76.6,339.69-126.47,513.3-162.71a2768.51,2768.51,0,0,1,384.44-50.89v-3a2760.44,2760.44,0,0,0-385.47,42.88C2175.06,1009.83,2001.6,1055.86,1832.36,1129.81Z"/><path class="cls-6" d="M3116.36,1366.84C2335.71,1113.93,1352.69,953.49,360.93,937.43c-206-3.33-408.38-.36-606.16,8.47v420.94Z"/><path class="cls-4" d="M1150.92,1117.65c77.17,27.06,155.35,51.58,232.4,78.73,89.61,31.57,178.58,65.13,267.54,98.47,96.55,36.19,192.64,73.6,288.69,111.11q132,51.54,263.07,105.31c64.24,26.25,128.23,53.06,191.59,81.39,5.74,2.57,11.51,5.09,17.23,7.72h79.78c-249.13-114.67-1075-424.73-1337.12-492.8,0,0-54-13.5-91.5-22.5C1091.81,1096.5,1121.29,1107.26,1150.92,1117.65ZM720.63,1010.18,687.56,1220c157.46,76.49,492.6,315,635.35,422.26l74.62,9.74c-164.29-121.33-522.29-361.47-705.95-447.16,0,0-172.41-77.71-195.62-86.51C496,1118.28,681.56,1217,687.56,1220ZM786,1610.68c130.35,116.84,387,438.29,494.71,580.72l69.06,29.88c-124.58-161.83-402.72-491.17-555.74-624.07,0,0-144.38-122.13-164.28-137C629.78,1460.23,781.06,1606.23,786,1610.68ZM593.08,1249.09c154.78,81.76,481.68,331.42,620.72,443.48l74.24,12.25C1128,1578,778.26,1325.92,597.6,1234.07c0,0-215.38-123-238.28-132.59C359.32,1101.48,587.17,1246,593.08,1249.09ZM805.86,1215c179.31,80.45,562.75,332.76,726.21,446.36l84.35,9.73c-188.06-128.43-597.31-382.31-806.4-472.38,0,0-196.19-81.62-222.57-90.84C587.45,1107.84,799,1211.9,805.86,1215Zm154.33-2.62c185.54,74.69,586,318.13,757,428.21l86,5.82c-196.64-124.28-623.36-368-839.54-451.23,0,0-202.72-75-229.89-83.3C733.77,1111.85,953.11,1209.5,960.19,1212.35Zm155,.86c208.5,72.31,662.94,319,857.3,431.09l95.08,1.78c-223.39-126.36-706.77-372-949.47-452,0,0-227.45-71.78-257.83-79.41C860.26,1114.66,1107.23,1210.45,1115.18,1213.21Zm155.64,3.65c211.65,62.47,670.08,294.47,869.48,397.34l95-2.67c-229.06-115.77-721.34-347.1-967.53-415.67,0,0-230.32-74.8-261-81C1006.79,1114.85,1262.75,1214.48,1270.82,1216.86Zm-30.67-204.18c210.19,26.83,420.76,59.27,622.23,99.7,321.66,65.78,785.15,194.33,1094.86,305.5H3041C2703.72,1295.73,2214,1164.5,1864.83,1098c-203.18-37.91-414.52-66-625.86-89.67,0,0-142-19.28-196-18.28ZM772.5,960.83m266,90.23C1074,1060,1114,1071,1161,1081.53c40,9,79.76,19.16,119.69,28.47,83.55,19.47,165.8,44.72,247.32,71.35,92.69,30.27,185.24,60.89,277.32,93q151,52.64,301.4,107.15,139.88,50.79,278.86,104c70.24,26.77,258.15,99.17,327.4,128.43,6.33,2.68,12.68,5.32,19,8h81c-77.11-33.39-273.74-108.08-352.5-137.27-105.58-39.13-211.69-76.77-318-113.81q-169.75-59.14-340.33-115.87c-102.48-34.15-205.14-68-308.31-100-111.78-34.68-225.64-64-340.83-84.9C1115,1063.15,1076.89,1055.82,1038.49,1051.06Zm-314-30.23M1323.17,1046c107.72,18.26,218.51,40.63,347.23,70,302.1,68.83,844.26,229.44,1136.57,340.89h83c-319.52-122.76-884.72-288.73-1216.83-356-129.14-25.67-241.05-45-349.16-60.83,0,0-197-26.08-245-32.08ZM774.5,978.83m478.44,85.44q24.64,5.28,49.24,10.74c58.44,13,117,25.36,175.32,39.06C1761.17,1180.76,2592.22,1465.2,2863,1575h82.08c-297.51-121.31-1154-409-1464.5-476.66-93.54-20-164.57-34.52-226.54-45.52,0,0-165-25.82-201-29.82C1119.71,1036.5,1186.41,1050,1252.94,1064.27Zm-469.26-59.1"/><path class="cls-4" d="M422.52,932.13a10.76,10.76,0,0,1,3,.28,8.69,8.69,0,0,1,5.16-1.52,12.3,12.3,0,0,1,1.93.09,6,6,0,0,1,4.31-1.45c2.26,0,4.3.64,5.16,1.64a14.56,14.56,0,0,1,2.64-.27,16.43,16.43,0,0,1,2.76.21c1.32-1.27,4-2.13,7.13-2.15a14.21,14.21,0,0,1,6.91,1.58,17.11,17.11,0,0,1,11.46.78c1-1.27,3.45-2.15,6.41-2.13a12.53,12.53,0,0,1,4.66.87,15.51,15.51,0,0,1,6.78-1.32,14.63,14.63,0,0,1,8.53,2.43,17.43,17.43,0,0,1,4.48-.49,19.69,19.69,0,0,1,2.6.21c.94-1.13,3.18-1.89,5.83-1.85a9.59,9.59,0,0,1,5.36,1.5,12.16,12.16,0,0,1,6.83-1.64,14.47,14.47,0,0,1,5.7,1.2,17.18,17.18,0,0,1,6.82-1.14c3.92.08,7.34,1.24,9.12,2.88a21.39,21.39,0,0,1,2.29-.09,18.66,18.66,0,0,1,4.53.66l0-.15c0-1.5,2.44-2.66,5.44-2.58,2.7.06,4.92,1.1,5.34,2.39a15.79,15.79,0,0,1,2.61-.13,14.26,14.26,0,0,1,5.79,1.28,1.5,1.5,0,0,1-.19-.76c0-1.59,2.62-2.81,5.8-2.72s5.74,1.45,5.71,3a1.6,1.6,0,0,1-.27.83,16.38,16.38,0,0,1,7.81-1.5,19.72,19.72,0,0,1,2.36.21,15.84,15.84,0,0,1,8.35-1.78c4.44.13,8.18,1.64,9.63,3.63.55-1.7,3.55-2.92,7.12-2.81,3.85.13,6.91,1.78,6.89,3.7h1.08a16.45,16.45,0,0,1,4.09.64,16.47,16.47,0,0,1,9.11-2c.46,0,.92,0,1.36.1l.27-.15-1,11.08c-.42,0-.84,0-1.28,0a18.19,18.19,0,0,1-7-1.58,15,15,0,0,1-6,.93c-3.48-.12-6.44-1.22-7.86-2.72-1.07,1.19-3.51,2-6.33,1.88s-5.44-1.13-6.3-2.5a20.27,20.27,0,0,1-6.51.09,15.69,15.69,0,0,1-8.3,1.78,18.63,18.63,0,0,1-5.72-1,12.93,12.93,0,0,1-5.61,1c-3.49-.1-6.44-1.31-7.51-2.91a14.08,14.08,0,0,1-5.62.91c-3.7-.09-6.83-1.35-8-3-.6,2.44-4.74,4.24-9.77,4.13a14.39,14.39,0,0,1-8.26-2.45,19,19,0,0,1-3.06.16,15.56,15.56,0,0,1-8.49-2.38,15.75,15.75,0,0,1-3.95.42l-.53,0c-.34,1.31-2.56,2.28-5.28,2.24s-4.87-1-5.37-2.32c-1.22,2-4.85,3.33-9.2,3.28a14.52,14.52,0,0,1-8.42-2.44,17.59,17.59,0,0,1-4.44.5,14.69,14.69,0,0,1-8.47-2.41,1.63,1.63,0,0,1,.38.89c.09,1.41-2.09,2.54-4.87,2.52-2.25,0-4.21-.76-5-1.79a13.93,13.93,0,0,1-6.4,1.37,14.37,14.37,0,0,1-7.88-2.08,15.41,15.41,0,0,1-3.54.42,16.32,16.32,0,0,1-3.42-.34,10.5,10.5,0,0,1-6.28,1.8c-3.91,0-7.38-1.34-8.4-3.23-1,1.05-3,1.8-5.46,1.86a12.2,12.2,0,0,1-4.54-.72,8,8,0,0,1-3.47.85c-3,.11-5.82-1-6.35-2.58S419.34,932.25,422.52,932.13Z"/><path class="cls-4" d="M630.55,938.58c-.31,3.11,4,5.86,9.64,6.14s10.45-2,10.76-5.14-4-5.86-9.64-6.14S630.86,935.46,630.55,938.58Z"/><path class="cls-5" d="M648.08,941c-.19,1.87,1.81,3.49,4.45,3.62s4.94-1.28,5.12-3.15-1.81-3.49-4.45-3.62S648.26,939.08,648.08,941Z"/><path class="cls-4" d="M666.64,936.68a11.08,11.08,0,0,1,2.94.34,8.66,8.66,0,0,1,5.19-1.41,14.85,14.85,0,0,1,1.92.13,6.09,6.09,0,0,1,4.35-1.35c2.26,0,4.28.74,5.12,1.75a14.83,14.83,0,0,1,2.65-.21,16.12,16.12,0,0,1,2.75.27c1.35-1.24,4-2,7.18-2a14.23,14.23,0,0,1,6.88,1.73,17.05,17.05,0,0,1,11.43,1c1-1.25,3.5-2.07,6.46-2a12.56,12.56,0,0,1,4.64,1,15.6,15.6,0,0,1,6.8-1.17,14.74,14.74,0,0,1,8.48,2.61,18.15,18.15,0,0,1,4.49-.39,19.22,19.22,0,0,1,2.59.27c1-1.11,3.22-1.82,5.87-1.73a9.73,9.73,0,0,1,5.33,1.62,12.13,12.13,0,0,1,6.86-1.48,14.18,14.18,0,0,1,5.67,1.32,17.15,17.15,0,0,1,6.84-1c3.92.17,7.32,1.4,9.06,3.08a19.26,19.26,0,0,1,2.29,0,18.31,18.31,0,0,1,4.52.76v-.16c0-1.49,2.49-2.6,5.49-2.46,2.69.13,4.89,1.21,5.28,2.51a17.23,17.23,0,0,1,2.62-.08,14.42,14.42,0,0,1,5.75,1.41,1.55,1.55,0,0,1-.17-.75c.06-1.6,2.68-2.76,5.87-2.6s5.7,1.58,5.63,3.16a1.71,1.71,0,0,1-.28.83,16.39,16.39,0,0,1,7.83-1.34,21.84,21.84,0,0,1,2.36.26A15.85,15.85,0,0,1,845.7,939c4.45.23,8.15,1.82,9.56,3.84.59-1.69,3.61-2.84,7.17-2.65,3.86.21,6.87,1.93,6.82,3.85l1.08,0a16.2,16.2,0,0,1,4.07.73,16.32,16.32,0,0,1,9.15-1.81c.46,0,.91.07,1.36.13l.27-.15L884,954c-.42,0-.84,0-1.28,0a18,18,0,0,1-7-1.73,15.15,15.15,0,0,1-6,.8c-3.47-.2-6.4-1.36-7.79-2.89-1.1,1.17-3.56,1.9-6.37,1.74s-5.42-1.25-6.25-2.64a19.46,19.46,0,0,1-4.17.21,19.25,19.25,0,0,1-2.34-.26,15.79,15.79,0,0,1-8.33,1.6,18.58,18.58,0,0,1-5.7-1.16,12.87,12.87,0,0,1-5.63.87c-3.49-.18-6.41-1.45-7.45-3.07a14.26,14.26,0,0,1-5.63.79c-3.7-.18-6.8-1.5-8-3.21-.64,2.42-4.83,4.14-9.85,3.91a14.27,14.27,0,0,1-8.21-2.63,19.17,19.17,0,0,1-3.06.1,15.55,15.55,0,0,1-8.44-2.57,15,15,0,0,1-3.95.33l-.53,0c-.37,1.31-2.62,2.23-5.33,2.13s-4.85-1.15-5.31-2.44c-1.27,1.94-4.93,3.23-9.28,3.08a14.52,14.52,0,0,1-8.36-2.62,17.43,17.43,0,0,1-4.45.4,14.66,14.66,0,0,1-8.42-2.59,1.53,1.53,0,0,1,.36.89c.06,1.42-2.14,2.5-4.92,2.42-2.25-.06-4.19-.85-4.92-1.9a14.08,14.08,0,0,1-6.43,1.23,14.28,14.28,0,0,1-7.83-2.26,14.64,14.64,0,0,1-3.55.35,16.16,16.16,0,0,1-3.41-.41,10.57,10.57,0,0,1-6.32,1.66c-3.91,0-7.35-1.5-8.33-3.41-1,1-3,1.73-5.49,1.73a12.08,12.08,0,0,1-4.53-.82,7.86,7.86,0,0,1-3.49.78c-3,0-5.79-1.14-6.29-2.72S663.46,936.72,666.64,936.68Z"/><path class="cls-4" d="M874.48,947.67c-.38,3.1,3.88,6,9.5,6.35s10.49-1.8,10.87-4.9-3.88-6-9.51-6.35S874.85,944.56,874.48,947.67Z"/><path class="cls-5" d="M892,950.42c-.23,1.87,1.73,3.53,4.37,3.72s5-1.17,5.19-3-1.73-3.52-4.38-3.71S892.17,948.56,892,950.42Z"/><path class="cls-4" d="M418,931.11c-225.83-3.66-447.37.26-663.22,11.18v6.44c197.78-8.82,400.18-11.8,606.16-8.46,991.76,16.06,1974.78,176.5,2755.43,429.41h94.87C2423.11,1111.53,1421.45,947.36,418,931.11Z"/><polygon class="cls-7" points="2674.04 1167.26 605.97 1167.01 605.97 597.83 2674.04 597.83 2674.04 1167.26"/><path class="cls-4" d="M2278.91,910a4.81,4.81,0,0,1,2.59.27,5.91,5.91,0,0,1,4.41-3.07,5.63,5.63,0,0,1,1.69,0,4.51,4.51,0,0,1,8.28-.37,6.74,6.74,0,0,1,2.29-.66,7.15,7.15,0,0,1,2.41.16,7.5,7.5,0,0,1,12.23-2.05,8.06,8.06,0,0,1,10.05.53,6.23,6.23,0,0,1,5.47-4.24,6.15,6.15,0,0,1,4.12,1.18,24.65,24.65,0,0,0,17.3-.37,8.18,8.18,0,0,1,2.28.18,5.59,5.59,0,0,1,9.75-1.46,7.37,7.37,0,0,1,10.91-1.7,9,9,0,0,1,14,1.89,8.11,8.11,0,0,1,2-.32,8.4,8.4,0,0,1,4,.83l0-.27a4.79,4.79,0,0,1,4.59-5,4.74,4.74,0,0,1,4.8,3.84,7.45,7.45,0,0,1,7.4,1.4,4.79,4.79,0,0,1-.21-1.32,5,5,0,1,1,10.07-.29,5.56,5.56,0,0,1-.19,1.48,9.12,9.12,0,0,1,6.73-3.24,9.44,9.44,0,0,1,2.07.2,9.09,9.09,0,0,1,15.81,1.94,6.16,6.16,0,0,1,12.28.53l.94-.08a7.7,7.7,0,0,1,3.61.83,9.44,9.44,0,0,1,9-4.16c.07-.1.15-.18.22-.28l-.16,19.66a8.32,8.32,0,0,1-1.12.08,9.41,9.41,0,0,1-6.25-2.26,7.75,7.75,0,0,1-12.17-2.15,6,6,0,0,1-5.41,3.81,5.89,5.89,0,0,1-5.65-4,9.15,9.15,0,0,1-3.62.84,9.29,9.29,0,0,1-2.06-.19,9.06,9.06,0,0,1-12.19,2.36,7,7,0,0,1-11.57-2.41,7.42,7.42,0,0,1-12-2.75,8.72,8.72,0,0,1-8.27,8,8.57,8.57,0,0,1-7.37-3.72,9,9,0,0,1-10.21-3.07,7.26,7.26,0,0,1-3.42,1h-.46a4.78,4.78,0,0,1-4.47,4.36,4.73,4.73,0,0,1-4.83-3.7,8.68,8.68,0,0,1-7.84,6.48,8.56,8.56,0,0,1-7.49-3.68,8.43,8.43,0,0,1-3.84,1.21,8.57,8.57,0,0,1-7.54-3.62,4.54,4.54,0,0,1-3.72,6.36,4.43,4.43,0,0,1-4.42-2.81,8,8,0,0,1-12.52-.2,7.26,7.26,0,0,1-3.06,1,7.49,7.49,0,0,1-3-.34,7,7,0,0,1-5.38,3.64,7.15,7.15,0,0,1-7.52-5.08,5.87,5.87,0,0,1-4.66,3.68,5.75,5.75,0,0,1-4-.93,4.84,4.84,0,0,1-3,1.77,5.07,5.07,0,0,1-5.69-4.09A4.88,4.88,0,0,1,2278.91,910Z"/><path class="cls-4" d="M2459.15,903.09c-.08,5.53,3.85,10.07,8.78,10.14s9-4.35,9.08-9.88-3.85-10.07-8.79-10.14S2459.23,897.56,2459.15,903.09Z"/><path class="cls-5" d="M2474.59,906c-.05,3.32,1.79,6,4.1,6.07s4.23-2.63,4.28-5.95-1.79-6-4.1-6.06S2474.63,902.67,2474.59,906Z"/><path class="cls-4" d="M885.21,940.74a4.89,4.89,0,0,1,2.95.75,6.08,6.08,0,0,1,5.15-3.66,5.74,5.74,0,0,1,1.93.27,4.76,4.76,0,0,1,4.29-3.5c2.27-.06,4.32,1.7,5.18,4.18a6.38,6.38,0,0,1,2.64-.6,6.86,6.86,0,0,1,2.76.58c1.31-3.13,4-5.2,7.12-5.18a8.72,8.72,0,0,1,6.93,4.08,7.4,7.4,0,0,1,4.64-1.49,9.13,9.13,0,0,1,6.82,3.68c1-3.13,3.44-5.26,6.4-5.14a6.77,6.77,0,0,1,4.67,2.25,8.23,8.23,0,0,1,6.76-3.12c3.56.16,6.73,2.65,8.56,6.2a7.84,7.84,0,0,1,4.48-1.11,8.27,8.27,0,0,1,2.6.59c.93-2.78,3.16-4.63,5.81-4.47a6.82,6.82,0,0,1,5.38,3.84,7.33,7.33,0,0,1,6.81-3.9,8.3,8.3,0,0,1,5.72,3.1,8.53,8.53,0,0,1,6.8-2.69c3.93.29,7.37,3.25,9.16,7.36a7.52,7.52,0,0,1,2.28-.17,8.89,8.89,0,0,1,4.54,1.74v-.39c0-3.72,2.41-6.55,5.41-6.28,2.7.22,4.93,2.83,5.36,6.06a6.67,6.67,0,0,1,2.61-.28,8.56,8.56,0,0,1,5.81,3.31,8.39,8.39,0,0,1-.2-1.88c0-4,2.59-6.92,5.78-6.63s5.76,3.73,5.74,7.67a9,9,0,0,1-.26,2.05,8.79,8.79,0,0,1,7.79-3.56,9.12,9.12,0,0,1,2.37.57,8.93,8.93,0,0,1,8.33-4.22c4.44.43,8.2,4.25,9.67,9.22.54-4.2,3.52-7.17,7.09-6.81,3.86.41,6.93,4.57,6.94,9.33l1.08,0a8.19,8.19,0,0,1,4.09,1.68,9.48,9.48,0,0,1,9.09-4.78,8.85,8.85,0,0,1,1.36.27c.09-.13.18-.24.27-.36l-.84,27.46a8,8,0,0,1-1.29,0,10.91,10.91,0,0,1-7.06-4.07,7.35,7.35,0,0,1-6,2.16c-3.48-.37-6.45-3.16-7.89-6.92-1.06,2.94-3.49,4.83-6.31,4.54s-5.45-3-6.33-6.35a8.22,8.22,0,0,1-4.16.65,9,9,0,0,1-2.35-.56,9,9,0,0,1-8.28,4.23,9.93,9.93,0,0,1-5.73-2.69,6.63,6.63,0,0,1-5.61,2.32c-3.49-.32-6.45-3.37-7.54-7.37a7,7,0,0,1-5.61,2.13c-3.7-.31-6.84-3.5-8.05-7.7-.57,6-4.7,10.43-9.73,10-3.47-.26-6.52-2.75-8.29-6.26a8,8,0,0,1-3.06.35c-3.5-.26-6.6-2.65-8.52-6.11a6.77,6.77,0,0,1-3.94,1l-.53-.07c-.33,3.26-2.54,5.62-5.26,5.45s-4.89-2.7-5.39-5.88c-1.21,4.85-4.83,8.17-9.18,7.94-3.5-.2-6.62-2.67-8.44-6.23a7.82,7.82,0,0,1-4.43,1.14c-3.51-.17-6.65-2.61-8.51-6.16a7.64,7.64,0,0,1,.39,2.2c.11,3.51-2.06,6.26-4.84,6.16-2.25-.08-4.22-2-5-4.56a7.79,7.79,0,0,1-6.39,3.25c-3.19-.09-6.1-2.18-7.9-5.34a6.65,6.65,0,0,1-3.53,1,7.49,7.49,0,0,1-3.43-.9,7.18,7.18,0,0,1-6.27,4.31c-3.9,0-7.39-3.49-8.43-8.19-1,2.59-3,4.39-5.44,4.48a6.23,6.23,0,0,1-4.55-1.88,4.77,4.77,0,0,1-3.46,2c-3,.21-5.83-2.65-6.38-6.54S882,941,885.21,940.74Z"/><path class="cls-4" d="M1093.36,961.33c-.28,7.72,4.07,14.63,9.71,15.45s10.43-4.79,10.7-12.5-4.06-14.64-9.7-15.45S1093.64,953.62,1093.36,961.33Z"/><path class="cls-5" d="M1110.91,967.61c-.16,4.63,1.85,8.69,4.5,9.07s4.92-3.06,5.09-7.69-1.85-8.69-4.5-9.07S1111.08,963,1110.91,967.61Z"/><path class="cls-4" d="M1027.9,945a4.81,4.81,0,0,1,2.94.75,6.09,6.09,0,0,1,5.15-3.66,5.7,5.7,0,0,1,1.93.26,4.77,4.77,0,0,1,4.3-3.5c2.26-.06,4.31,1.7,5.18,4.19a6.2,6.2,0,0,1,2.64-.61,7.08,7.08,0,0,1,2.76.58c1.31-3.12,4-5.2,7.11-5.17a8.72,8.72,0,0,1,6.93,4.08,7.5,7.5,0,0,1,4.65-1.5,9.16,9.16,0,0,1,6.81,3.68c1-3.12,3.44-5.26,6.4-5.14a6.83,6.83,0,0,1,4.67,2.25,8.26,8.26,0,0,1,6.77-3.11c3.56.15,6.72,2.64,8.55,6.2a7.86,7.86,0,0,1,4.48-1.11,8.54,8.54,0,0,1,2.6.58c.93-2.78,3.16-4.63,5.81-4.47a6.85,6.85,0,0,1,5.38,3.84,7.36,7.36,0,0,1,6.82-3.9,8.32,8.32,0,0,1,5.71,3.1,8.55,8.55,0,0,1,6.81-2.68c3.92.29,7.36,3.24,9.15,7.35a8.29,8.29,0,0,1,2.29-.17,9,9,0,0,1,4.54,1.74l0-.38c0-3.72,2.41-6.55,5.42-6.29,2.69.22,4.93,2.83,5.36,6.06a6.86,6.86,0,0,1,2.61-.28,8.54,8.54,0,0,1,5.8,3.31,8.93,8.93,0,0,1-.2-1.87c0-4,2.6-6.92,5.79-6.63s5.75,3.72,5.73,7.66a8.48,8.48,0,0,1-.26,2.06,8.58,8.58,0,0,1,10.16-3A9,9,0,0,1,1207,945c4.45.44,8.2,4.25,9.68,9.23.53-4.21,3.51-7.18,7.09-6.81,3.85.4,6.92,4.56,6.93,9.32l1.08,0a8.13,8.13,0,0,1,4.1,1.68,9.47,9.47,0,0,1,9.08-4.79,9,9,0,0,1,1.37.27c.08-.13.18-.23.26-.36l-.84,27.46a9.16,9.16,0,0,1-1.28,0,11,11,0,0,1-7.07-4.07,7.34,7.34,0,0,1-6,2.15c-3.47-.36-6.45-3.16-7.88-6.91-1.06,2.93-3.5,4.83-6.31,4.54-3-.3-5.46-3-6.33-6.36a8.14,8.14,0,0,1-4.17.66,9.07,9.07,0,0,1-2.35-.57,9,9,0,0,1-8.27,4.24,9.94,9.94,0,0,1-5.74-2.7,6.62,6.62,0,0,1-5.61,2.32c-3.49-.31-6.44-3.37-7.54-7.36a7,7,0,0,1-5.61,2.13c-3.7-.32-6.84-3.5-8.05-7.7-.57,6-4.7,10.42-9.73,10-3.46-.27-6.51-2.75-8.29-6.26a8.15,8.15,0,0,1-3,.35c-3.5-.27-6.61-2.65-8.52-6.12a6.65,6.65,0,0,1-4,1l-.53-.07c-.32,3.26-2.54,5.63-5.26,5.45s-4.88-2.69-5.39-5.87c-1.2,4.85-4.82,8.17-9.17,7.93-3.51-.2-6.62-2.67-8.45-6.22a7.87,7.87,0,0,1-4.43,1.14c-3.51-.17-6.65-2.61-8.5-6.17a8.46,8.46,0,0,1,.39,2.21c.1,3.51-2.06,6.25-4.85,6.16-2.25-.09-4.21-2-5-4.56a7.8,7.8,0,0,1-6.4,3.24c-3.19-.08-6.09-2.17-7.9-5.33a6.69,6.69,0,0,1-3.53,1,7.37,7.37,0,0,1-3.42-.91,7.19,7.19,0,0,1-6.27,4.32c-3.91,0-7.4-3.49-8.44-8.19-1,2.58-3,4.39-5.44,4.48a6.21,6.21,0,0,1-4.54-1.89,4.76,4.76,0,0,1-3.47,2c-3,.21-5.83-2.65-6.37-6.54S1024.72,945.21,1027.9,945Z"/><path class="cls-4" d="M1236,965.59c-.27,7.71,4.07,14.63,9.71,15.44s10.43-4.78,10.71-12.5-4.07-14.63-9.71-15.44S1236.32,957.87,1236,965.59Z"/><path class="cls-5" d="M1253.6,971.87c-.17,4.62,1.84,8.69,4.49,9.07s4.93-3.06,5.09-7.69-1.84-8.7-4.49-9.08S1253.76,967.23,1253.6,971.87Z"/><path class="cls-4" d="M1398,1000.57a8,8,0,0,1,2.93.45,7.1,7.1,0,0,1,5.21-2,9.43,9.43,0,0,1,1.93.16,5.07,5.07,0,0,1,4.35-1.95,5.91,5.91,0,0,1,5.11,2.43,10.7,10.7,0,0,1,2.65-.31,11.2,11.2,0,0,1,2.75.35c1.36-1.77,4-2.93,7.2-2.88a10.9,10.9,0,0,1,6.86,2.39,11.72,11.72,0,0,1,4.67-.81,12,12,0,0,1,6.75,2.16c1-1.77,3.53-3,6.49-2.87a9.38,9.38,0,0,1,4.63,1.33,12.69,12.69,0,0,1,15.26,1.91,12.78,12.78,0,0,1,4.5-.59,13.48,13.48,0,0,1,2.59.35c1-1.57,3.24-2.61,5.89-2.49a7.72,7.72,0,0,1,5.31,2.24,9.51,9.51,0,0,1,6.88-2.16,10.9,10.9,0,0,1,5.66,1.82,12.74,12.74,0,0,1,6.85-1.46c3.92.2,7.31,1.92,9,4.28a13.28,13.28,0,0,1,6.8,1v-.22c0-2.12,2.52-3.71,5.52-3.54,2.69.16,4.88,1.67,5.26,3.51a11.81,11.81,0,0,1,2.62-.13,11,11,0,0,1,5.74,1.94,3,3,0,0,1-.16-1.07c.07-2.25,2.7-3.92,5.89-3.73s5.69,2.18,5.61,4.43a3.11,3.11,0,0,1-.3,1.17,12.4,12.4,0,0,1,7.85-2,14.9,14.9,0,0,1,2.36.35,12.17,12.17,0,0,1,8.4-2.33c4.44.29,8.13,2.5,9.52,5.35.6-2.39,3.63-4.06,7.2-3.81,3.85.26,6.85,2.67,6.78,5.38l1.08,0a12.11,12.11,0,0,1,4.06,1,12.69,12.69,0,0,1,9.17-2.64,12,12,0,0,1,1.36.17,2.34,2.34,0,0,1,.27-.2l-1.3,15.65c-.42,0-.84,0-1.28,0a14,14,0,0,1-7-2.39,11.16,11.16,0,0,1-6,1.18c-3.47-.25-6.4-1.87-7.77-4-1.11,1.67-3.58,2.73-6.38,2.53-3-.19-5.41-1.73-6.23-3.68a13.86,13.86,0,0,1-4.17.33,14.65,14.65,0,0,1-2.34-.34,12.18,12.18,0,0,1-8.35,2.34,13.88,13.88,0,0,1-5.69-1.6,9.67,9.67,0,0,1-5.64,1.28c-3.49-.22-6.39-2-7.42-4.28a10.57,10.57,0,0,1-5.64,1.17c-3.7-.22-6.79-2.07-7.93-4.48-.67,3.44-4.87,5.91-9.89,5.63a11.66,11.66,0,0,1-8.19-3.65,14.58,14.58,0,0,1-3.06.17,12.49,12.49,0,0,1-8.41-3.57,11,11,0,0,1-4,.51l-.53,0c-.38,1.85-2.64,3.18-5.35,3s-4.84-1.58-5.29-3.4c-1.29,2.76-5,4.62-9.31,4.44a11.74,11.74,0,0,1-8.34-3.63,12.73,12.73,0,0,1-4.45.61,11.81,11.81,0,0,1-8.4-3.6,2.84,2.84,0,0,1,.35,1.26c0,2-2.16,3.55-4.94,3.47a5.57,5.57,0,0,1-4.9-2.65,10.71,10.71,0,0,1-6.45,1.79,11.33,11.33,0,0,1-7.81-3.12,10.84,10.84,0,0,1-3.55.52,11.82,11.82,0,0,1-3.41-.55,8.53,8.53,0,0,1-6.34,2.41c-3.9,0-7.33-2.06-8.29-4.76a6.68,6.68,0,0,1-5.52,2.51,9,9,0,0,1-4.51-1.12,6.16,6.16,0,0,1-3.5,1.13c-3,.09-5.78-1.57-6.27-3.79S1394.82,1000.66,1398,1000.57Z"/><path class="cls-4" d="M1605.78,1014.29c-.41,4.4,3.82,8.39,9.44,8.9s10.51-2.63,10.92-7-3.83-8.38-9.45-8.9S1606.18,1009.89,1605.78,1014.29Z"/><path class="cls-5" d="M1623.22,1018a4.8,4.8,0,1,0,5.22-4.34A4.79,4.79,0,0,0,1623.22,1018Z"/><path class="cls-4" d="M1192.22,946.2a11.45,11.45,0,0,1,3.54.95,10.38,10.38,0,0,1,6.77-1.12,15.64,15.64,0,0,1,2.34.5c1.09-1,3.26-1.52,5.7-1.18,2.8.37,5.11,1.73,5.88,3.28a16.35,16.35,0,0,1,3.32.14,17.82,17.82,0,0,1,3.33.82c2-1.51,5.48-2.19,9.37-1.61a15.39,15.39,0,0,1,8,3.54,18.15,18.15,0,0,1,5.89,0,17.06,17.06,0,0,1,8,3.3c1.57-1.58,4.85-2.32,8.48-1.72a13.48,13.48,0,0,1,5.48,2.1,17.87,17.87,0,0,1,8.7-.52c4.36.73,8,2.7,9.79,5a20.15,20.15,0,0,1,5.65.19,21.25,21.25,0,0,1,3.12.8c1.48-1.39,4.44-2,7.68-1.45a10.58,10.58,0,0,1,6.17,3.12,14.15,14.15,0,0,1,8.85-1,15.71,15.71,0,0,1,6.67,2.77,19.52,19.52,0,0,1,8.69-.27c4.8.87,8.68,3.15,10.4,5.78a20.11,20.11,0,0,1,2.83.32,19.23,19.23,0,0,1,5.38,1.79l0-.22c.42-2.08,3.74-3.23,7.41-2.54,3.29.62,5.73,2.48,5.88,4.37a17.48,17.48,0,0,1,3.24.31,15.41,15.41,0,0,1,6.75,2.91,2.51,2.51,0,0,1,0-1.09c.48-2.21,4-3.41,7.91-2.67s6.63,3.13,6.15,5.34a2.7,2.7,0,0,1-.57,1.1,18.89,18.89,0,0,1,10-.59,24.05,24.05,0,0,1,2.84.75,18.29,18.29,0,0,1,10.75-.86c5.43,1,9.6,3.87,10.82,6.92,1.15-2.26,5.18-3.38,9.53-2.53,4.7.92,8,3.81,7.43,6.48l1.33.21a17.35,17.35,0,0,1,4.84,1.68c2.91-1.46,7.23-1.94,11.75-1,.56.12,1.11.25,1.65.4l.37-.15-4.29,15.23c-.52-.07-1-.15-1.58-.25a19.94,19.94,0,0,1-8.21-3.56,17.16,17.16,0,0,1-7.59.13c-4.24-.84-7.56-2.94-8.89-5.31-1.65,1.46-4.87,2.08-8.3,1.41-3.62-.71-6.37-2.64-7-4.71a21.24,21.24,0,0,1-5.2-.38,21.67,21.67,0,0,1-2.83-.75,18.14,18.14,0,0,1-10.68.88,20.21,20.21,0,0,1-6.75-2.55,14.88,14.88,0,0,1-7.17.29c-4.26-.81-7.54-3.06-8.41-5.49a16.21,16.21,0,0,1-7.16.18c-4.51-.85-8-3.2-9-5.78-1.41,3.28-7,5-13.16,3.86-4.23-.78-7.69-2.72-9.46-5a22,22,0,0,1-3.8-.36c-4.27-.78-7.82-2.68-9.76-5a16.82,16.82,0,0,1-5-.17l-.64-.14c-.79,1.77-3.8,2.69-7.12,2.1s-5.69-2.39-5.94-4.26c-2.06,2.49-6.91,3.7-12.23,2.78-4.29-.75-7.83-2.69-9.66-5a19.67,19.67,0,0,1-5.59-.17c-4.3-.73-7.87-2.66-9.73-5a2.32,2.32,0,0,1,.21,1.31c-.28,2-3.27,3.13-6.69,2.57-2.76-.46-5-1.88-5.58-3.45a16.26,16.26,0,0,1-8.25.66c-3.93-.63-7.25-2.33-9.1-4.42a16.84,16.84,0,0,1-4.46-.1,17.83,17.83,0,0,1-4.11-1.13,12.47,12.47,0,0,1-8.23,1.29c-4.8-.7-8.68-3.3-9.4-6.12-1.48,1.28-4.17,1.93-7.23,1.53a13.21,13.21,0,0,1-5.37-1.88,9.19,9.19,0,0,1-4.51.51c-3.73-.42-6.86-2.53-7.07-4.81S1188.28,945.74,1192.22,946.2Z"/><path class="cls-4" d="M1446,995.4c-1.25,4.27,3.28,8.93,10.12,10.41s13.4-.79,14.66-5.06-3.28-8.94-10.12-10.41S1447.22,991.13,1446,995.4Z"/><path class="cls-5" d="M1466.82,1002.09c-.75,2.57,1.24,5.21,4.46,5.9s6.42-.82,7.17-3.39-1.24-5.2-4.45-5.89S1467.57,999.53,1466.82,1002.09Z"/><path class="cls-4" d="M1616.59,1010.25a5.73,5.73,0,0,1,2.93-.26,7.24,7.24,0,0,1,4.52-4.18,7,7,0,0,1,1.89-.34,5.47,5.47,0,0,1,3.71-3.83,4.9,4.9,0,0,1,5.51,1.69,8.43,8.43,0,0,1,2.47-1.19,8.63,8.63,0,0,1,2.73-.34,9.13,9.13,0,0,1,6.23-5.86,8.47,8.47,0,0,1,7.18,1.11,10,10,0,0,1,4.29-2.42,9.15,9.15,0,0,1,7,.85,7.58,7.58,0,0,1,5.54-5.63,7,7,0,0,1,4.78.37,10.69,10.69,0,0,1,6.14-4.22,9.45,9.45,0,0,1,9,2.25,10.63,10.63,0,0,1,4.18-2.09,10.47,10.47,0,0,1,2.58-.29,6.83,6.83,0,0,1,5-5,6.14,6.14,0,0,1,5.66,1.36,9.14,9.14,0,0,1,6.09-4.82,8.29,8.29,0,0,1,5.89.72,11.26,11.26,0,0,1,6.23-3.91,10.29,10.29,0,0,0,11.91,2.18,9.74,9.74,0,0,1,4.59,0l-.07-.29a5.63,5.63,0,0,1,4.46-6.22,5,5,0,0,1,5.9,3,9.49,9.49,0,0,1,2.48-.94,8.36,8.36,0,0,1,6,.86,4.92,4.92,0,0,1-.42-1.35,6,6,0,0,1,4.77-6.58,5.21,5.21,0,0,1,6.46,4.13,5.43,5.43,0,0,1,0,1.61,11.33,11.33,0,0,1,7.08-4.84,10.6,10.6,0,0,1,2.35-.24,11.37,11.37,0,0,1,7.51-5.49,9.73,9.73,0,0,1,10.46,4.19,7.44,7.44,0,0,1,6-7.07,6.37,6.37,0,0,1,7.82,5l1-.28a8.8,8.8,0,0,1,4.16.12,11.93,11.93,0,0,1,8.17-6.13,13.18,13.18,0,0,1,1.35-.18l.21-.34,2.55,20.78c-.41.13-.82.24-1.24.33a10.69,10.69,0,0,1-7.31-1.07,9.76,9.76,0,0,1-5.48,3.28,8.39,8.39,0,0,1-8.45-3A7.27,7.27,0,0,1,1803,981a6.26,6.26,0,0,1-6.88-3,11.22,11.22,0,0,1-3.94,1.65,10.42,10.42,0,0,1-2.33.24,11.37,11.37,0,0,1-7.46,5.48,10.48,10.48,0,0,1-5.86-.41,8.65,8.65,0,0,1-5.12,3.3,7.46,7.46,0,0,1-8.17-3.4,9.24,9.24,0,0,1-5.14,3.16,8,8,0,0,1-8.71-3.51,10.34,10.34,0,0,1-8.15,10.22,9.37,9.37,0,0,1-8.76-2.36,11.25,11.25,0,0,1-2.9,1.11,9.92,9.92,0,0,1-9-2.19,8.89,8.89,0,0,1-3.69,1.82l-.51.1a5.68,5.68,0,0,1-4.41,5.55,5,5,0,0,1-5.91-2.89,10.46,10.46,0,0,1-7.88,8.5,9.43,9.43,0,0,1-8.9-2.29,10.63,10.63,0,0,1-4.13,2.09,9.47,9.47,0,0,1-9-2.24,4.55,4.55,0,0,1,.65,1.55,5.24,5.24,0,0,1-3.92,6,4.78,4.78,0,0,1-5.35-2,10,10,0,0,1-5.77,4.22,9,9,0,0,1-8.27-1.79,9.12,9.12,0,0,1-3.28,1.72,8.89,8.89,0,0,1-3.41.28,8.66,8.66,0,0,1-5.52,5,7.63,7.63,0,0,1-9.13-3.77,7.12,7.12,0,0,1-4.7,4.87,6.68,6.68,0,0,1-4.61-.14,5.93,5.93,0,0,1-3.09,2.5,5.4,5.4,0,0,1-6.95-3.11A5.59,5.59,0,0,1,1616.59,1010.25Z"/><path class="cls-4" d="M1819.74,967.44c.68,5.85,5.72,9.8,11.25,8.84s9.47-6.5,8.79-12.35-5.71-9.81-11.24-8.84S1819.07,961.59,1819.74,967.44Z"/><path class="cls-5" d="M1837.43,967.22c.41,3.51,2.84,6,5.44,5.53s4.38-3.66,4-7.17-2.84-6-5.44-5.54S1837,963.71,1837.43,967.22Z"/><path class="cls-4" d="M1722.08,990.93a5.83,5.83,0,0,1,2.93-.26,7.27,7.27,0,0,1,4.52-4.18,7.45,7.45,0,0,1,1.89-.34,5.45,5.45,0,0,1,3.71-3.82,4.9,4.9,0,0,1,5.51,1.68,8.49,8.49,0,0,1,5.2-1.53,9.14,9.14,0,0,1,6.23-5.85,8.41,8.41,0,0,1,7.17,1.11,10,10,0,0,1,4.3-2.42,9.11,9.11,0,0,1,7,.85,7.58,7.58,0,0,1,5.54-5.64,7,7,0,0,1,4.77.38,10.7,10.7,0,0,1,6.15-4.22,9.47,9.47,0,0,1,9,2.24,10.75,10.75,0,0,1,4.18-2.08,10.47,10.47,0,0,1,2.58-.29,6.82,6.82,0,0,1,5-5,6.17,6.17,0,0,1,5.66,1.37,9.09,9.09,0,0,1,6.09-4.82,8.29,8.29,0,0,1,5.89.72,11.22,11.22,0,0,1,6.23-3.92,9.83,9.83,0,0,1,9.72,2.94,11.33,11.33,0,0,1,2.19-.76,10,10,0,0,1,4.58,0l-.06-.28a5.62,5.62,0,0,1,4.45-6.22,5,5,0,0,1,5.91,3,9,9,0,0,1,2.48-1,8.37,8.37,0,0,1,6,.86,4.72,4.72,0,0,1-.42-1.35,6,6,0,0,1,4.76-6.58,5.22,5.22,0,0,1,6.47,4.14,5.43,5.43,0,0,1,0,1.61,11.31,11.31,0,0,1,7.08-4.85,10.58,10.58,0,0,1,2.35-.23,11.31,11.31,0,0,1,7.51-5.49,9.73,9.73,0,0,1,10.46,4.19,7.45,7.45,0,0,1,6-7.08,6.39,6.39,0,0,1,7.83,5l1-.29a9.08,9.08,0,0,1,4.16.12,11.91,11.91,0,0,1,8.17-6.12,10.64,10.64,0,0,1,1.35-.18l.21-.34,2.54,20.77a12.35,12.35,0,0,1-1.23.33,10.74,10.74,0,0,1-7.31-1.06,9.82,9.82,0,0,1-5.48,3.28,8.41,8.41,0,0,1-8.45-3,7.28,7.28,0,0,1-5.53,5.17,6.25,6.25,0,0,1-6.87-3,11.07,11.07,0,0,1-6.27,1.89,11.33,11.33,0,0,1-7.46,5.48,10.3,10.3,0,0,1-5.86-.41,8.71,8.71,0,0,1-5.12,3.31,7.46,7.46,0,0,1-8.17-3.4,9.24,9.24,0,0,1-5.15,3.16,8,8,0,0,1-8.7-3.51,10.36,10.36,0,0,1-8.15,10.22,9.37,9.37,0,0,1-8.76-2.37,10.92,10.92,0,0,1-2.9,1.12,10,10,0,0,1-9-2.19,9.2,9.2,0,0,1-3.69,1.82l-.51.1a5.67,5.67,0,0,1-4.41,5.54,5,5,0,0,1-5.91-2.89,10.49,10.49,0,0,1-7.88,8.51,9.43,9.43,0,0,1-8.9-2.3,10.63,10.63,0,0,1-4.13,2.09,9.46,9.46,0,0,1-9-2.23,4.5,4.5,0,0,1,.65,1.54,5.26,5.26,0,0,1-3.92,6,4.79,4.79,0,0,1-5.35-2,10,10,0,0,1-5.77,4.22,9,9,0,0,0-11.55-.07,8.93,8.93,0,0,1-3.42.28,8.63,8.63,0,0,1-5.51,5,7.65,7.65,0,0,1-9.14-3.77,7.1,7.1,0,0,1-4.69,4.87,6.73,6.73,0,0,1-4.61-.14,6,6,0,0,1-3.1,2.5,5.4,5.4,0,0,1-6.94-3.11A5.59,5.59,0,0,1,1722.08,990.93Z"/><path class="cls-4" d="M1925.23,948.12c.68,5.85,5.71,9.81,11.24,8.84s9.48-6.5,8.8-12.34-5.71-9.81-11.25-8.84S1924.56,942.27,1925.23,948.12Z"/><path class="cls-5" d="M1942.92,947.91c.4,3.51,2.84,6,5.44,5.52s4.37-3.66,4-7.17-2.84-6-5.44-5.53S1942.51,944.4,1942.92,947.91Z"/><path class="cls-4" d="M1885.64,959.84a5.19,5.19,0,0,1,2.62-.05,6.45,6.45,0,0,1,4.29-3.41,5.83,5.83,0,0,1,1.7-.18,4.86,4.86,0,0,1,3.55-3.16,4.36,4.36,0,0,1,4.78,1.85,7.6,7.6,0,0,1,4.72-1,8.16,8.16,0,0,1,5.92-4.81,7.55,7.55,0,0,1,6.31,1.46,8.91,8.91,0,0,1,4-1.87,8.17,8.17,0,0,1,6.19,1.21,6.78,6.78,0,0,1,5.29-4.65,6.31,6.31,0,0,1,4.22.65,9.53,9.53,0,0,1,5.73-3.35,8.44,8.44,0,0,1,7.86,2.58,9.29,9.29,0,0,1,6.16-1.67,6.09,6.09,0,0,1,4.82-4.08,5.45,5.45,0,0,1,4.93,1.58,8.16,8.16,0,0,1,5.73-3.89,7.4,7.4,0,0,1,5.19,1,10,10,0,0,1,5.79-3.08,8.77,8.77,0,0,1,8.45,3.25,9.59,9.59,0,0,1,2-.54,8.8,8.8,0,0,1,4.08.33l0-.26a5,5,0,0,1,4.36-5.23,4.42,4.42,0,0,1,5,3.08,8.27,8.27,0,0,1,2.27-.67,7.45,7.45,0,0,1,5.28,1.15,4.6,4.6,0,0,1-.29-1.23,5.32,5.32,0,0,1,4.66-5.53,4.64,4.64,0,0,1,5.48,4.09,4.86,4.86,0,0,1-.1,1.43,10.11,10.11,0,0,1,6.6-3.85,10.69,10.69,0,0,1,2.11,0,10.12,10.12,0,0,1,7-4.39,8.67,8.67,0,0,1,9,4.41,6.64,6.64,0,0,1,5.79-5.9,5.68,5.68,0,0,1,6.63,5l.95-.19a8,8,0,0,1,3.68.37,10.65,10.65,0,0,1,7.67-4.91,9.77,9.77,0,0,1,1.2-.07l.22-.29.9,18.63a9.53,9.53,0,0,1-7.55-1.21,8.64,8.64,0,0,1-5.08,2.56,7.48,7.48,0,0,1-7.31-3.19,6.5,6.5,0,0,1-5.25,4.23,5.57,5.57,0,0,1-5.92-3.11,10,10,0,0,1-5.7,1.28,10.09,10.09,0,0,1-7,4.38,9.34,9.34,0,0,1-5.19-.74,7.65,7.65,0,0,1-4.76,2.6,6.65,6.65,0,0,1-7-3.55,8.26,8.26,0,0,1-4.78,2.47,7.13,7.13,0,0,1-7.51-3.69,9.2,9.2,0,0,1-7.91,8.55,8.35,8.35,0,0,1-7.63-2.67,9.37,9.37,0,0,1-2.65.8,8.81,8.81,0,0,1-7.82-2.53,8,8,0,0,1-3.39,1.38l-.47.06a5.05,5.05,0,0,1-4.28,4.64,4.45,4.45,0,0,1-5.06-3,9.35,9.35,0,0,1-7.56,7,8.4,8.4,0,0,1-7.76-2.62,9.45,9.45,0,0,1-3.81,1.59,8.41,8.41,0,0,1-7.8-2.57,4.17,4.17,0,0,1,.47,1.42,4.68,4.68,0,0,1-3.87,5,4.27,4.27,0,0,1-4.63-2.15,8.9,8.9,0,0,1-5.4,3.38,8,8,0,0,1-7.23-2.13,8.17,8.17,0,0,1-3,1.31,7.84,7.84,0,0,1-3,0,7.71,7.71,0,0,1-5.23,4.07,6.8,6.8,0,0,1-7.87-4,6.35,6.35,0,0,1-4.49,4,6,6,0,0,1-4.09-.43,5.3,5.3,0,0,1-2.91,2,4.8,4.8,0,0,1-6-3.21A5,5,0,0,1,1885.64,959.84Z"/><path class="cls-4" d="M2069,935a8.65,8.65,0,0,0,9.41,8.58,10,10,0,0,0,8.62-10.4,8.65,8.65,0,0,0-9.42-8.58A10,10,0,0,0,2069,935Z"/><path class="cls-5" d="M2084.72,936c.13,3.14,2.14,5.5,4.47,5.26s4.13-3,4-6.11-2.14-5.51-4.48-5.28S2084.59,932.84,2084.72,936Z"/><path class="cls-4" d="M45.1,930.23a17.45,17.45,0,0,1,4.82.45c1.66-1.45,4.69-2.44,8.35-2.56a23.2,23.2,0,0,1,3.15.14c1.11-1.37,3.74-2.36,7-2.43,3.7-.08,7,1.06,8.48,2.7a22.35,22.35,0,0,1,4.31-.45,25.1,25.1,0,0,1,4.49.33c2.11-2.12,6.4-3.56,11.56-3.61a23.12,23.12,0,0,1,11.33,2.59,27.4,27.4,0,0,1,18.71,1.24c1.57-2.11,5.54-3.59,10.37-3.57a20.47,20.47,0,0,1,7.65,1.41,24.59,24.59,0,0,1,11-2.22c5.8,0,11,1.64,14,4a28.23,28.23,0,0,1,7.31-.84,32.21,32.21,0,0,1,4.24.34c1.49-1.87,5.11-3.16,9.43-3.11a15.77,15.77,0,0,1,8.8,2.47c2.43-1.73,6.45-2.82,11.08-2.75a23.39,23.39,0,0,1,9.34,2,27.1,27.1,0,0,1,11.07-1.93c6.4.11,12,2,15,4.74a32.34,32.34,0,0,1,3.73-.16,29.94,29.94,0,0,1,7.41,1.08l0-.26c-.05-2.49,3.87-4.43,8.77-4.32,4.39.1,8.06,1.8,8.79,3.95a26.66,26.66,0,0,1,4.26-.23,23.16,23.16,0,0,1,9.49,2.1,2.65,2.65,0,0,1-.34-1.26c0-2.64,4.16-4.68,9.36-4.55s9.42,2.38,9.43,5a2.77,2.77,0,0,1-.41,1.38,26,26,0,0,1,12.67-2.54,34.6,34.6,0,0,1,3.87.33c3.13-2,8-3.15,13.53-3,7.26.2,13.42,2.68,15.86,6,.84-2.83,5.67-4.88,11.49-4.71,6.3.2,11.35,2.92,11.4,6.11h1.76a26.94,26.94,0,0,1,6.69,1.05c3.31-2.23,8.71-3.59,14.76-3.39.76,0,1.51.08,2.24.16.13-.09.29-.16.42-.25L400.58,950c-.69,0-1.39,0-2.1,0a29.81,29.81,0,0,1-11.56-2.58,23.93,23.93,0,0,1-9.69,1.56c-5.67-.17-10.54-2-12.92-4.47-1.7,2-5.65,3.3-10.24,3.16-4.84-.14-8.93-1.86-10.38-4.13a31.29,31.29,0,0,1-6.79.53,33.45,33.45,0,0,1-3.83-.34c-3.14,2-8,3.15-13.45,3a29.86,29.86,0,0,1-9.37-1.69,20.56,20.56,0,0,1-9.13,1.67c-5.68-.14-10.53-2.13-12.35-4.78a22.59,22.59,0,0,1-9.13,1.54c-6-.14-11.18-2.21-13.2-5-.87,4-7.56,7.07-15.77,6.9-5.64-.1-10.64-1.71-13.57-4a31.8,31.8,0,0,1-5,.29c-5.71-.11-10.8-1.65-13.95-3.93a23.91,23.91,0,0,1-6.42.72l-.86,0c-.51,2.19-4.09,3.82-8.52,3.76s-8-1.72-8.85-3.84c-1.92,3.27-7.79,5.57-14.88,5.5-5.71-.06-10.82-1.65-13.82-4a28,28,0,0,1-7.22.85c-5.72,0-10.86-1.61-13.91-4a2.92,2.92,0,0,1,.65,1.48c.21,2.34-3.3,4.23-7.84,4.21-3.67,0-6.89-1.24-8.14-2.95a22.31,22.31,0,0,1-10.41,2.3c-5.2,0-9.95-1.34-12.93-3.42a23.13,23.13,0,0,1-5.75.72,25.78,25.78,0,0,1-5.58-.54c-2.1,1.76-5.8,3-10.18,3-6.36.09-12.08-2.19-13.83-5.32-1.52,1.75-4.78,3-8.82,3.11a19.53,19.53,0,0,1-7.43-1.17,12.68,12.68,0,0,1-5.64,1.44c-4.89.2-9.52-1.66-10.45-4.26S39.92,930.44,45.1,930.23Z"/><path class="cls-4" d="M381.52,937.09c-.37,5.18,6.78,9.72,16,10.16s17-3.41,17.33-8.59-6.77-9.72-16-10.15S381.9,931.92,381.52,937.09Z"/><path class="cls-5" d="M410.19,941c-.22,3.1,3.1,5.79,7.42,6s8-2.15,8.23-5.26-3.1-5.78-7.42-6S410.42,937.84,410.19,941Z"/><path class="cls-4" d="M947.18,1637.29c24.27,1.83,29.24,1.15,57.94,3.87-6.18-5.12-313.93-266.58-375.66-307.1a1006.62,1006.62,0,0,0-114.13-64.26c-22.29-10.54-46.21-20.67-71.16-29.85-12.43-4.54-25.5-9.06-37.33-13.21-3.82-1.35-1.68-.78-3.3-1.38,8.92-7.77,13.47-21.57,3.06-30.9-19.6-21.35-98.78-44.75-122.62-51.92-47.76-13.94-148.77-42.63-148.73-42.61a467.42,467.42,0,0,0,47.11,16.43c37,12,80.68,25.58,126.2,41.37,39.69,14.47,109.34,37.94,86.76,56.55-1.56,2.63-10.58,8.92-2.41,20.32,8.57,9.12,17.28,11,23.86,14.13,12,4.7,26.26,9.66,37.55,14.43,22.35,9.58,46.17,20.16,65.79,30.78a876.6,876.6,0,0,1,100.15,64.38C645.82,1377.48,931.69,1624.09,947.18,1637.29Z"/><path class="cls-4" d="M628.6,1632.59c16,0,29.3-.44,48.15.11-3.67-5-190.1-257.79-290-324.55-27.91-18.65-65.58-29.41-68.48-37.14-2.43-6.46,12.61-14.84-2.31-38.17-13.11-20.51-59.11-36.19-74.36-41.89-30.57-11-48.82-17-71.74-25.07C118.61,1148,108,1132.6,108,1132.6c-9.49-10.66-10.64-20.7-10.64-20.7s-1.62,8.44,8.72,21.83c8.54,11,26.69,24,63,37,23.57,9.81,57.22,21.63,86.37,34.31,14.91,6.5,27.25,12.72,36.83,20.19,15.42,12,22.12,25.68,13.3,36.9-3,3.86-6.92,9.83-3.78,17.93,4.93,9,13.82,10.61,17.93,13.37C403.37,1337.87,619.42,1619.76,628.6,1632.59Z"/><path class="cls-8" d="M244.22,989.74c-28.16,25.92-45.14,50.59-65.92,76.6,40.68,2,81.21,5.63,124.56,6.24,59.67.84,132.3,5.08,191.87,5.83,38.59.48,64.41,1.63,102.43,2C576.5,1053,568.5,1018,552.61,988.93c-99.42-2.7-203.54-5-300-5.57Z"/><path class="cls-9" d="M295.1,991.38c-14.91,17.74-25.88,35.4-40.47,53.11-4.77,5.79-9.09,8.88-16.2,17.93"/><path class="cls-9" d="M329.75,993.25c-8.38,12.89-19,25.26-27.35,38.15-5,7.73-7.53,14.71-16.63,28.43"/><path class="cls-9" d="M384.75,994.8c6.15,22.5-8.11,46-2.5,68.85"/><path class="cls-9" d="M459.5,995c6,20,9,35.21,9.89,51.9.3,5.84,2.54,11.15,5.55,18.48"/><path class="cls-9" d="M512.09,997.52q10.41,35.44,20.81,70.92"/><path class="cls-9" d="M535.93,1008.57l-92-1.53c-49.49-.83-151.31-6.26-194.88-2.59"/><path class="cls-9" d="M241.49,1015.52l302.81,5.18"/><path class="cls-9" d="M229.21,1027.83q167.87,2.94,335.73,5.9"/><path class="cls-9" d="M223.83,1038.65l327.37,5.89"/><path class="cls-9" d="M215.06,1050.66l344,6.27"/><path class="cls-8" d="M700.72,998.94c-19.12,31.25-28.07,48.7-48.21,73.93,128.91,6.15,258,4.67,388,11.12-18-30-36-64-46-94-96.43-2.6-194.15-2-287.68-2.47Z"/><path class="cls-10" d="M750.07,1000.52c-14.46,17.21-25.09,34.34-39.24,51.53-4.62,5.61-8.82,8.61-15.71,17.39"/><path class="cls-10" d="M783.68,1002.33c-8.13,12.51-18.39,24.5-26.52,37-4.88,7.5-7.3,14.27-16.13,27.57"/><path class="cls-10" d="M836.5,994c6,21.82-7.34,54.47-1.9,76.61"/><path class="cls-10" d="M910.5,1000c1.69,17.79,7.76,38.15,8.61,54.33.29,5.67,2.47,10.82,5.39,17.92"/><path class="cls-10" d="M962.5,996c6.73,22.92,11.48,56.3,18.22,79.22"/><path class="cls-10" d="M705.39,1013.21c42.25-3.57,141,1.68,189,2.47l89.25,1.47"/><path class="cls-10" d="M698.08,1024l293.69,5"/><path class="cls-10" d="M698.5,1036c108.53,1.88,204.75,3.66,313.28,5.55"/><path class="cls-10" d="M681,1046.38l317.5,5.65"/><path class="cls-10" d="M672.46,1058l333.66,6"/><path class="cls-5" d="M713,926.57a18.24,18.24,0,0,1,4.29,4.3c.75,11,1.62,23.91,2.58,35.2.56,6.67,2.66,28.45.46,34.16-3.72-2.23-2.77-7.94-3-12-.74-12.88-2.35-44.4-3.47-57.77C713.76,929.06,713.24,928,713,926.57Z"/><path class="cls-5" d="M739.72,964.52c-.32-1.25-2.32-.83-2.15-2.57-1.26-13.09-4.46-17.84-2.65-32.8,2.15-17.86,7.8-38.92,6-60.11-2.46-.11-4.12,4.12-6.86,5.15-3-.54-3.33-3.83-5.58-5.15-.69,1.13,1.8,2.75,1.71,4.72-5.34,3.53-12.6,5.14-16.74,9.88,1.17,10.13,3.76,44.81,4.73,55.14-2.18,1.26-3.56-5.31-3.36-1.68-2.78-11.53-3.26-40.27-4.81-53,.17-1.6-3.14-1.47-3.22-2.82a14,14,0,0,1,.65-6.21c.26-.71,1.59-1,1.71-1.71.62-3.51-.72-6.82-.85-10.73-4.06-.33-6.89.55-10.74.42-.7-5.46-.9-11.6-1.29-18.46-.23-4.24-2.11-8.92,0-11.59,2.12,2.65,2.26,7.79,2.58,12.45.25,3.76-.31,7.7.86,10.74,2,.13,3.71,0,4.72-.86-.42-2.66-.23-6.09-.43-9.88-.24-4.77-2.67-11,.43-12.88,2.49,6.1,1.13,16,3,22.76a9.42,9.42,0,0,0,4.72-.43c-.63-2.62-.29-5.56-.43-8.59-.25-5.52-2.86-11.8.43-14.6,2,6.47,1.56,15.33,2.58,22.76.73,1,3.27.16,4.72.43,1.07-8.58-2.55-16.84-.43-23.62,2.68.56,1.49,3.5,1.72,5.58.74,6.87,1.86,17.36,1.71,24.48a39.27,39.27,0,0,0-8.15.86c-1.3-.57-1.57-2.16-2.15-3.44-.9,4.77.29,11.16,1.29,15.46,6.59.58,7.17-4.85,11.16-6.87.26-1.69-.63-2.23-1.28-3,3.52-4,7.86-8.25,11.59-13.74,4.18-6.16,9.16-12.4,11.59-.85,1-2.57.07-6.94-2.15-7.73,2.87-1.86,8-1.41,8.59-5.59-1-.91-3.12,1.34-4.72,0-1.3-3.51,1.42-7.88-2.58-9.44.82-1.62,2-2.92,2.58-4.73,0-.15-1-1-1.14-1.11a11.13,11.13,0,0,0-1.36-1c-1-.6-2-1.14-3-1.66-1.92-1-4-2.22-5.1-4.12a7.5,7.5,0,0,1-.9-2c-.08-.36-.14-.69.23-.87s.57,0,.69-.35c0-.16-.14-.45-.12-.63a.61.61,0,0,1,.39-.5,7.19,7.19,0,0,1,2.27-.36,20.59,20.59,0,0,1,4.64.11c.85.1,1.7.22,2.54.35s1.69.29,2.53.47c3.53-1.58,2.76-6.62,6.44-7.3,3.2-.59,6.82,4.27,11.17,3,1.3,1.71.76,5.25.86,8.16-3-.48-6.56-2.77-10-2.79,4.27,1.16,35.49,17,10.83,16.1-2-.13.76-1.43.43-2.57-1.73.55-5,5.09-3.87,8.59.9,1.65,1.38-1.33,2.15,0,.76.81.31,2.84.43,4.29a7.44,7.44,0,0,0,6.43,2.58c-1,2.86-2.68,5-2.57,9,2.34-3.43,1.81-8.85,8.16-7.73,6.58,1.15,8.17,10.28,11.16,17.6,2.34,5.72,5.25,10.95,5.15,14.17-2.16,1.27-5.45,1.42-7.72,2.58,1.12,1.09,4.48-1,6,.43-.26,16.2-11.59,21.32-17.61,31.77-2.29-1.14-3.57-3.3-4.72-5.58-.72,4.26,3.95,8,5.33,11.28,3,7.28-1,26.65-1.54,35.85-.72,12.47-4.08,7-5,17.62,0,0-2.48,5.67-6.18,4.33a24.81,24.81,0,0,1-3.4-2.78C758.25,947,759.78,939,756.82,921c-7.24,14.1-7.11,25.5-7.36,44.39-2.85,1.17-4.1-.06-7.25,0M777.42,897c3.52-4.93,8.55-9.66,6.44-18.9-3.64-.21-3.59-4.13-3.86-7.72h-1.29C777.78,878.23,775.43,890.26,777.42,897Z"/><path class="cls-6" d="M754.28,835.55l9.27-.31,3.4-10.82c-6.56.7-17.54-2.32-17.54-2.32l-2.56,4.44,2.63,2.59a14.66,14.66,0,0,0-.72,4.68c0,.57,0,1.47.47,1.88.66.58,1.61-.1,2.32-.26s2-.44,2.73.12"/><path class="cls-6" d="M754.28,835.55l.11,11.62s7.57,3.4,10.66-.92l-1.81-13.48Z"/><path class="cls-6" d="M771.8,851.71c-.83,7.08-2,14.21-2.8,21.29-.46,4-.62,8.13-1.25,12.11-.5,3.1.11,6.72-.65,9.79,1.31-2.06,1.08-4.26,1-6.26a26.38,26.38,0,0,1,1-7.12,126.33,126.33,0,0,0,2.59-14.41,66.27,66.27,0,0,0,.42-10.36C772.16,855.38,772.61,852.71,771.8,851.71Z"/><path class="cls-6" d="M747.55,853c0,.95.28,1.89.38,2.82.15,1.41.3,2.82.43,4.23.24,2.81.35,5.64.39,8.47s0,5.65,0,8.48-.07,5.66-.07,8.49,0,5.67.15,8.5c0,.35,0,.7,0,1,1.18-10.5,1-20.71,1.14-31.21,0-2.87.15-10-2.4-12A4.38,4.38,0,0,0,747.55,853Z"/><path class="cls-4" d="M751.66,823.2c1.59.6,4.53,1.16,6.06,1.83-.47,2.12-4.79.33-6.07-.23a4.5,4.5,0,0,1,.31-.94Z"/><path class="cls-4" d="M755.29,825.43a1.24,1.24,0,1,1-1.24-1.24A1.24,1.24,0,0,1,755.29,825.43Z"/><path class="cls-6" d="M732.63,897.28a105.85,105.85,0,0,0,19.81,1.39,69.62,69.62,0,0,0,7.65-.09,6.19,6.19,0,0,1-4.39,1.6c-3.43,0-7,.29-10.39-.26a75.66,75.66,0,0,1-7.72-1.22c-1.57-.43-3.11-1-4.61-1.3"/><path class="cls-6" d="M769.56,903c-1.36.87-5.64,2.55-6.15,4s2.51,6,3.44,7.24c1.53,2.06,3.45-.15,5.29-1.09.79-.4,3.77-1.16,2.24-2.4-1.88,1.16-4.66,2.89-6.81,3.09-.88-1.43-3.76-4.33-3-6,.53-1.19,3.77-3.11,4.68-4.2"/><path class="cls-11" d="M738.2,812.37c-.38,1.21.63,2.42,1.48,3.29a14.76,14.76,0,0,0,4.24,2.76c.72.35,1.46.66,2.2,1a23.42,23.42,0,0,1-5.2-3.93,5.5,5.5,0,0,1-1.63-2c-.52-1.15,0-1.51.36-2.56,0,0-.49.21-.57.26a2.71,2.71,0,0,0-.42.41A2.17,2.17,0,0,0,738.2,812.37Z"/><path class="cls-11" d="M775,822.58c.91.76,1.72,1.71,1.28,2.57s-1.68,1.15-2.49,1.39c-.48.15-1,.29-1.45.39a13,13,0,0,0-1.64.38c1.27-.13,2.55-.21,3.8-.46.86-.18,2.26-.47,2.7-1.33.54-1-.17-2-1-2.66a8.86,8.86,0,0,0-1.44-.89,5.53,5.53,0,0,0-1.44-.6A20.28,20.28,0,0,1,775,822.58Z"/><path class="cls-5" d="M735.28,953s-4.62,8,2.07,23.76c0,0,2.56,8.35,1.46,10,0,0-16.16,2.34-13.65,9.46,0,0-1.53,3.14,11,2.49l17.8-.69s-2.57-18.94-2.42-25.76c0,0-1.27-11.77.39-15.58C751.93,956.71,742.23,949.17,735.28,953Z"/><path class="cls-11" d="M737.06,963.65c1.82,7.15,5.4,14.8,3.48,23.59C740.66,978.43,736.85,972.52,737.06,963.65Z"/><path class="cls-11" d="M743.44,957.57c-2.12.39-6.41.49-8-1.2C736,958.56,742.22,958.8,743.44,957.57Z"/><path class="cls-11" d="M726.55,994.8c2.33-2.44,6.25-3.3,9.27-5C731.37,990.08,727.19,990.68,726.55,994.8Z"/><path class="cls-12" d="M758.87,953.49c6.7,1.55,12.44,1.25,19.16.31,0,3-.85,5.2-1.52,8.18-.89,4-.87,7.89-1.15,11.95-.28,4.29-1.57,9-.67,13.3.77,3.68,8.13,8.85,2.68,12-6,3.5-16.44.66-17.19-4.41-1.11-7.51,1-15.28-.59-22.67-1.47-6.77-.72-10.48-.72-17.43"/><path class="cls-11" d="M775.24,996.17c-2.5.78-7.93-.1-9.77.3C767.46,998,773.75,998.12,775.24,996.17Z"/><path class="cls-11" d="M760.41,956.89s12.37,1.55,16.08-.92C776.49,956,767.52,960.91,760.41,956.89Z"/><path class="cls-4" d="M748.52,829.71c2.5-.18,5.58,2,6,4.46a11.63,11.63,0,0,0-1.64.31c-.62-1-2-1.16-2.82-1.83s-2.2-1.71-1.54-2.94"/><path class="cls-4" d="M767.93,823.09c-1.22-.32-3.85-1.58-5-.64-.94.77-.47,2.5-.63,3.53a5.36,5.36,0,0,1-.71,2,14.32,14.32,0,0,1-3,3c-4.1,3.65-7.05,3.91-9.93,3.42a3.09,3.09,0,0,0-.35,0l-.15,1.85c.69,1.44,3.78,1.48,5,1.4a48.77,48.77,0,0,0,6.47-1.07,9.46,9.46,0,0,0,3.81-1.41,4.81,4.81,0,0,0,1.7-3.18,16.61,16.61,0,0,1,1.14-3.61C766.94,827,768.21,824.71,767.93,823.09Z"/><path class="cls-11" d="M711.25,876a1.23,1.23,0,0,1,.65,1.78,1.5,1.5,0,0,1,.54.93c0,.47-.34.53-.38.92-.07.57.47,1.07.12,1.7.49-.27.2-1.36.32-1.83s.65-1.16,0-1.6c0-.78,0-2.19-1.13-2"/><path class="cls-4" d="M753,833.73c1.38-1,2.82-2,1.56-4,3.43.87,1.18,5.5-1.25,3.84"/><polygon class="cls-6" points="732.54 910.8 746.44 909.4 732.15 915.18 747.17 913.19 735.36 917.89 748.53 916.21 735.19 923.17 726.74 912.44 732.54 910.8"/><path class="cls-12" d="M2241.59,858.53c.24,0,.3.15.48.19.07.35-.16.4-.1.76C2241.72,859.31,2241.33,858.9,2241.59,858.53Z"/><path class="cls-12" d="M2257.37,875.26c-.11.14-.27.23-.28.47-1.26-.11-2-1.36-2.76-2.57-.6-1-1.54-2.5-.95-3.13A20.14,20.14,0,0,1,2257.37,875.26Z"/><path class="cls-12" d="M2245.68,871c-.29.69-1,.93-1.33,1.61-1.17-.25-1.79.45-2.57.29C2242,871.21,2244.13,871,2245.68,871Z"/><path class="cls-12" d="M2273.43,873.16c.24-.41.78-.51,1.62-.28,1.9.53,4.64,3.33,4.47,5.23-.22,2.28-1.75,0-2.28-.86a8.17,8.17,0,0,0-1.62-2.09C2274.8,874.53,2273.63,874.4,2273.43,873.16Z"/><path class="cls-12" d="M2273.62,914.79c.37.2.58.57.29,1C2273.66,915.53,2273.25,915.08,2273.62,914.79Z"/><path class="cls-12" d="M2241.78,858.34c-.22-.47-.21-2.3.48-2.47,1.14.09,1.49,1,2,1.71-.19.4-.55-.56-1-.48a1.64,1.64,0,0,0,1.33.95c.17,1.28.29,2.63.57,3.8.52-.08.95-1.07,1.33-1.61.49,0,.36.72.38,1.23.71-.21.47-1.36,1-1.71.5.3.32,1.28.39,2,1.1-.9,2.2-.63,4.08-.86a5,5,0,0,0,1.14-.28c1.46-.57,2.43-2.09,3.52-2a1.27,1.27,0,0,1,1,.86c.21,1.28-2.05,2.5-2.85,3.13a4.82,4.82,0,0,0-2,2.47c.16.34.68-.25.86.1.38,0,.2.5.38.67.93-.05.67,1.1,1.62,1v.48a4.86,4.86,0,0,1,.94.47v.76c.28.27.84.25,1.24.38.12,1,1,1.19,1.62,1.62-.34.17-.92.6-.57,1.14.65.24.16-.66.57-.67,1.15.35,2.44,1.79,4,1.81,1,0,2-1.08,3.23-1.43.69-.19,1.4-.16,2-.28,1.74-.34,3.9-1.46,6.08-.57a11.86,11.86,0,0,1,3.33,2.47,12.53,12.53,0,0,1,3.8,5.89c-.34.08-.44.39-.86.38-.2-.76,0-.76.38-1-.14-.52-.51,0-.66-.1-1.36-2.77-3.62-6-6.85-6.75-3.48-.84-4.15,2.54-7.12,2.09.08-.68.75-.77,1.33-.95-.88-.35-2.14.43-2.76.95,1.28,1.11,3.49,1.76,3.42,3.9-1.66-.34-1.75-2.74-3.8-2.38.46,1.25,2.21,2.55,1.81,4.66-2-1.42-2.21-4.55-4.28-5.89-.63-.4-1.37-.39-2.09-.86,0-.35.46-.91,0-1.14-.38,0-.07.7-.38.76-2.28-1-4.67-3.07-6.94-4.75-1-.7-2.38-2-3.42-1,0,.47.57.78.28,1.24a1.15,1.15,0,0,1-1.42.19c-.36-2.45,2.14-2.62,3.32-3.71.44-.41.6-1,1-1.43.74-.82,1.74-1.11,2.19-2a10,10,0,0,0-4.75,3.42,4.41,4.41,0,0,0-2.28,1.71c-.27.57.2,1.33-.1,1.9-1,.74-1.72-1.41-2.47-.09.3.45.52,1,1,1.61.29.38.74.54.95,1s.29,1.1.57,1.71a6.27,6.27,0,0,1,.76,2.09c.15,1.76-1,3.33-1.14,5,2.27-1.15,2.51-4.54,2.19-8a1.52,1.52,0,0,1,1.42.67,11,11,0,0,1,1.43,3.14c.76,3.11,1.5,6.34,3.42,8.17.55.06.62.46,1.23.28,1.81-.5-1.1-3.68.1-4.75,2.87-1.05,3.77,2.59,3.23,5.23-.29,1.43-1.14,2.36-.85,4.37.4,2.87,2.21,3.37,3.13,5.42,0,1,.92,2.8-.38,3-.33-.17-.3-.71-.57-.95-1.37.6-1.47,2.46-1.61,4.28a1.25,1.25,0,0,1-.57.47c.39.91-.48,1.44-.76,2.1a13.9,13.9,0,0,0-.57,3.22c-.15,1.75.6,1.81,1.33,2.86,1-.71.67-2.22.85-3.23.68-3.69,3.58-6,3.9-10.46.11-1.51-.26-3.22.09-4.85a13.24,13.24,0,0,0,.58-1.52c.06-.45-.11-1,0-1.52s.64-.95.85-1.61c.36-1.15.21-2.32,1-2.48s1.35.73,1.53,1.53c1,.75,1.25,1.78,2.37,2.28,1.7.75,3.66.15,5.7.38,1.68.18,1.32,1.66.77,2.94-1,2.24-4.69,4.83-8.08,5.13a11.2,11.2,0,0,0-2.95.2c-.53.22-.71.86-1.14,1.33a13,13,0,0,0,5.23-.57,15.5,15.5,0,0,0,6.74-5.23,14.93,14.93,0,0,0,2.48-8.75c-.07-1-.67-2.28.18-3,.88.49,1.06,3.17,1,4.47-.29,3.78-2.49,6.92-2.85,10.45-.74.95-.44,2.35-.57,3.52-.3,2.59-2.1,4.36-1.72,7.51.61-1,.15-2.17.57-3.33.22-.6.85-1,1.15-1.61.76-1.54.47-4.07,1.14-6,.33-.95.95-1.72,1.14-2.57s.27-2,.57-3a17,17,0,0,0,1-4,36.85,36.85,0,0,0,.1-3.71c0-.65-.41-1.91.66-1.71.29.74-.28.83-.57,1.24,0,.54.48-.06.67.19.27,6.28-1.84,10.54-3,16a29,29,0,0,1-.57,3.61c-.42,1-1.26,1.64-1.43,3-.13,1.09.07,2.06,0,2.95-.19,2.26-1.79,4.36-1.62,7.12-.29.35-.36-.32-.76-.19.67.77,1.49,1.27,1.52,2.38,0,.5-.35,1-.38,1.52,0,.95.56,1.75.38,2.76a7.66,7.66,0,0,1-5.13,0c-.32-.37.29-.9,0-1.24-.51-.28-1.38-.2-1.71-.66-.1-.72.52-1.09.67-1.81a8.51,8.51,0,0,1,.19-1.9c.27-.61,1-.91,1.14-1.43a11.62,11.62,0,0,0,0-4,14.11,14.11,0,0,0-1.14-4.66c-.64-1.36-2-2-2.19-3.89-.1-.86.15-1.4-.09-2.09-1-.21-2.38-.51-3.14.09-.31.25-.31.81-.57,1.43-.53,1.28-2.26,3.28-2.47,5.23-.07.61.11,1.37.09,1.89a14.13,14.13,0,0,1-.47,2.29,18.3,18.3,0,0,0,.28,6.65,8,8,0,0,1,.57,1.71c0,.42-.45.77-.57,1.43-.24,1.35,1,2.44.29,3.32-1.56.55-2.95.23-4.85.29a1.66,1.66,0,0,1-.38-.76,5.69,5.69,0,0,1-2.19-.38,3,3,0,0,1,.67-2.28c0-2.87,1.25-4.8.48-7.7-.38-1.4-1.66-2.48-1.43-4.37a7.52,7.52,0,0,0,0-3.8c-.63-1.84-2.19-3.38-2.57-5.33-.1-.55,0-1.17-.09-1.8-.43-2.16-2.13-4.35-2.47-6.75-.24-1.63.88-2.7.66-4-.14-.82-1.19-1.66-1.71-2.29s-1.28-2.14-2.09-2.28c-2.51-.43-4.35,1.94-6,3.33a2.62,2.62,0,0,1-2.37,2.57c-2.33.2-3.4-2-4.18-3.42-.59-1.84.72-2.89,1.42-4.19a20.79,20.79,0,0,0,.86-2.75c.25-.62.92-1.14,1.13-1.62a12.49,12.49,0,0,0,.29-1.81c.23-.93.82-1.46.67-2.28s-1.29-1.33-.67-2.28c.44-.67,1.6-.86,2.18-1.42a5.25,5.25,0,0,0,1.53-4.66c-.16-1.14-.69-1.89.09-3.33.82.25.37,1.14.48,1.9s.84,1.7.57,2.66a9.75,9.75,0,0,0,1.71-1,12.89,12.89,0,0,0-.57-4.18c0-.13.28,0,.28-.19a8.36,8.36,0,0,0-.66-1C2242.61,857.71,2242.17,858,2241.78,858.34Zm4,4.94a1.66,1.66,0,0,0,1.81-.38C2246.91,862.52,2246.44,863.13,2245.77,863.28Zm-4.94,10.07c2.17,1.13,5.52.07,5.14-2.85A3.38,3.38,0,0,0,2240.83,873.35Zm-.47,7.8c-.77-.55-2.15-4.7-3.24-3.14-.68,1-1.46,2.74-2.18,3.71a2.26,2.26,0,0,0,1.33,1c.51.08.77-.27,1.14-.19,1.49.33-.37,2,1.14,2.67.75-.19.61-.89.95-1.43.57-.89,2-1.16,2.19-2.38A2.2,2.2,0,0,0,2240.36,881.15Zm16.73,14.54c-.53-.67-.66-1.31-1.24-1.71-.73-.5-2-.23-3-.29-.4,1.08,1.25,1.64,1.43,2.57.25,1.33-.79,1.58-.58,2.85.29,1.68,2.06,3.25,2.57,4.94.57,1.91-1.11,3.81.66,4.85.18-.53-.06-.87-.09-1.33-.11-1.49.55-3,.48-5a9.7,9.7,0,0,0-1.05-3.42c-.37-.68-1.26-1.31-1.05-2.18.42-1.74,2.32.34,3,.66C2258.61,896.51,2257.57,896.3,2257.09,895.69Zm15.68,3.23c.37,1.28.11,4,1.14,4.28-.16-2.13-.78-3.78-.76-6.08C2271.61,897.16,2272.56,898.18,2272.77,898.92Zm-13.59,11.31a37.54,37.54,0,0,0-.29,7.51c2.56-.07.37,2.64,1.14,4a1.21,1.21,0,0,0,.95,0c.31-1.05-.44-1.82-.66-2.66,1.63-1.32-.23-2.75-.38-4.46s.59-2.74,0-4.19A1.08,1.08,0,0,0,2259.18,910.23Z"/><ellipse class="cls-4" cx="2483.81" cy="906.2" rx="9" ry="4.75"/><ellipse class="cls-4" cx="2090.5" cy="934" rx="9.5" ry="7"/><ellipse class="cls-4" cx="2104.5" cy="936" rx="9.5" ry="7"/><path class="cls-12" d="M495.28,908.22h.51c1.6.11,2.56,1.13,3.62,1.9a7.52,7.52,0,0,0,.85.53,9,9,0,0,1,.78.6c2.52,2,5.19,3.91,7.83,5.91.24,0,.61-.1.76.05a62.52,62.52,0,0,1,6.62-.12,4.75,4.75,0,0,0,.94,0,4.13,4.13,0,0,0,.92-.62c2.73-1.92,5.61-3.58,8.34-5.48.6-.41,1.14-.9,1.74-1.33,1.15-.81,2.84-1.75,4.52-.84.21.65.57,1.28.73,2,.38,1.71-1,2.46-2,3.09A35.59,35.59,0,0,0,527,917c1.59.15,3.4,0,5,.12a4.63,4.63,0,0,1,3.56,1.53v.14a19.37,19.37,0,0,0-.23,2,3.73,3.73,0,0,1,0,.69c0,.12-.21.21-.27.34-.15.33-.12.84-.46,1,.78.8-.41,1.69-.46,2.5,0,.48.19.92.14,1.31s-.48.63-.55,1c-.11.54.23,1.08.09,1.54-.07.21-.23.27-.39.46a7.71,7.71,0,0,0,.2,1.23c-.23.38-.76,1.2-.36,1.75a10.79,10.79,0,0,1-.74,2.42,3.65,3.65,0,0,1-.32.71,3.54,3.54,0,0,1-1.39.74,6.3,6.3,0,0,1-1.88.23c-4.21,0-8.3-.21-12.52-.21-1.35,0-2.72.08-4.1.14s-2.8,0-4.19,0c-2.81,0-5.58.14-8.21.25h-2c-.28,0-.57,0-.84,0a3.15,3.15,0,0,1-.83-.06c-.18-.07-.46-.53-.59-.71a6.37,6.37,0,0,1-1.13-2.8c.1-.12.26,0,.44,0-.07-.3,0-.73-.23-.87-.17.14,0,.4,0,.62a1.13,1.13,0,0,1-.39-.71,14.77,14.77,0,0,0-.46-2.38c-.06-.12-.18-.22-.21-.35a4.47,4.47,0,0,1,0-.73,6.17,6.17,0,0,0-.46-1.81c.39-.63-.12-1.34-.21-2,0-.14,0-.34,0-.44s-.32-.33-.39-.46c-.31-.61.09-1.45-.14-2.11-.08-.24-.41-.43-.55-.71-.34-.69-.07-1.57-.22-2.45v-.16c1.38-1.62,4.77-1.22,7.58-1.42a21.4,21.4,0,0,0-3.07-2.82c-.52-.4-1.09-.83-1.63-1.33a2.7,2.7,0,0,1-1.14-2.27C493.4,909.53,494.63,908.92,495.28,908.22Z"/><path class="cls-6" d="M779.5,872.08c2.88,0,6.3-.29,6.41-3.89,1.5,3.31-1.91,5.24-4.58,6.16,2.79.27,6.1-.14,6.51-3.52.4,2.89-2.92,6.07-5.76,5.54-2-.36-4.49-3.22-1.91-4.29"/><path class="cls-11" d="M750.5,848s2,8.5,2,10.73h15S768,852,770,848.5a24.13,24.13,0,0,1-8,3S754,853.5,750.5,848Z"/><path class="cls-6" d="M786.25,879.25c2.17,7-2.25,11.63-6.39,16.51-3.1,3.65-3.23,5.46-2.82,10,2-.64,4.16-4.93,5.45-6.72,1.71-2.36,3.83-4.41,5.58-6.69,3.44-4.49,5.19-8.15,4.89-13.77-2.5-.12-4.39.56-6.71,1"/><path class="cls-6" d="M714,875.5c2.79,1.55,8.74-2.35,9.56-5.22,1.05.77,3.9,1.61,3.94,3,.06,2.18-2.74,2.19-5,2.69a14,14,0,0,0-6.73,3.34,4.09,4.09,0,0,1-1.5-3"/><path d="M598.67,589.5a8.42,8.42,0,0,0-.31,2.64c1.93.57,5.22-.71,4.61-3.28-2.06-.11-3.07-.05-4.47,1.14"/><path class="cls-11" d="M754.36,866.15c-.94,3.33-.31,5.9-.45,8.84.94-2.54.29-4.32,1.37-6.93,2.74-.15,6,.71,9.22,1.64a69.17,69.17,0,0,1,1.06,8.3,31.84,31.84,0,0,0,.14-9.47C761.62,867.12,758.08,866.81,754.36,866.15Z"/><path class="cls-11" d="M422.76,922.2c-2.71-4.15-4.78-9-9-11.53C418.11,911.41,425.21,915.27,422.76,922.2Z"/><path class="cls-11" d="M409.08,912.2c1.37.24,1.64,1.42,2.64,2,2.5,1.58,9.75,3.62,7.49,7.34-.68,1.11-2.35,1-4.21.81a7.65,7.65,0,0,1-6.6-9.24C408.48,912.78,408.41,912.09,409.08,912.2Z"/><path class="cls-11" d="M393.1,922a45.18,45.18,0,0,0-3.24,20.33,8,8,0,0,0-2.78,1.48c-.13,1.88-.1,3.66-1,5.21-1.59-2.38-.21-4.95-.21-7.77-2.21,2-4.05,6.25-6.84,8.42a4,4,0,0,1-3.07-.62c2.92-1.62,6.39-4.47,6.35-9.11s-4.26-9.37-8.39-5.67c-2.87,2.57-5.74,7.9-6.75,11.71.63,1.59,2.69,1.68,3.61,3-5,.39-6.61-2.87-7.25-7.11-6.09,4.75,3.19,13.75,8.47,8.72-1.77,4-4.42,7.13-6.31,11a55.43,55.43,0,0,1-11.2-5.36c1.54,4,7.17,3.72,6.84,9.71,4.75,11.95,9.24,26,18.09,34.36.06,3.58,4.39,3.91,4.41,6.71-1.88-.43-2.27-2.43-3.85-3.19.37,1.39,2.68,2.82,3,5.1-2.74-.25-3.3-2.81-4.59-4.59-.3,1.69,1.39,3.37,2,4.89-3.76-.71-3.9-5.24-7.23-6.4.13,1.25.8,3.63-.12,4.48-1.16,0-.84-1.54-1.23-2.32-1.12-2.3-4-4-3.49-7.21.57-.37,2.55.22,2.54-1.71,0-1.32-1.7-1.52-2.42-2.53-1.08-1.54-1.1-4-2.27-6.06-.91-1.59-2.57-3.06-3.66-4.61a33.09,33.09,0,0,1-4.76-11.18c1.91,1.93,3.66,4,5.57,6-2.4-5-5.41-9.45-9.74-12.46,1.73,5.18,3.7,10.12,5.34,15.4-3.71-4.15-5.62-10.2-10.23-13.39a59.26,59.26,0,0,1,4.87-11.66c.13-.94-.65-.93-.52-1.87,3.71-7.3,5-15.88,9.53-22.61,3.66-5.41,13.56-10.25,22.08-10.7C387.67,920.21,389.58,921.92,393.1,922Z"/><path class="cls-11" d="M398.13,934.62c-.71.58-1.82,1.36-3,.78a7.43,7.43,0,0,1,1.22-7.09c.26-.3,1.73.12.92-1,2.7,3.52,5,7.48,7.81,10.86-4,0-8.46-.38-8.14,3.75-1.48-3.94,3.26-4,3.59-6.93a6.62,6.62,0,0,0-4.33,5.3C395.47,938,397.47,936.36,398.13,934.62Z"/><path class="cls-11" d="M422,928.58c.2-.05.22.08.24.22,7,4.42,4.46,17.63-4.73,17.08-3.77-.23-6-2.79-8.6-4.72,3.15.83,6.19,3.77,10.68,3.25,4.07-.47,6.5-4.79,5.66-8.62-.58-2.6-2.79-4-3.93-6C421.58,929.41,422,929.18,422,928.58Z"/><path class="cls-11" d="M400.61,939.26c-.53.94-2.78.26-2.78,1.72C397.1,939.68,399.38,938.8,400.61,939.26Z"/><path class="cls-11" d="M414.72,965.72c1,.66,2.28,1,3.11,1.81.25,2.22-.24,3.74-1.77,4.28a5.58,5.58,0,0,0-2-3C413.79,967,414.74,967.48,414.72,965.72Z"/><path class="cls-11" d="M406.41,980.77c1.9.41,3.79.84,4.76,2.23,1.42.12,1.8-.75,3.29-.56-1.19,2.47-6.06,1.45-7.2,4C406.8,984.66,405.37,982.64,406.41,980.77Z"/><path class="cls-11" d="M409.75,991.51c.22,1.3,1.12,1.88,1,3.51-5.62,1.92-8.66-2.32-13-2.72A10.6,10.6,0,0,1,409.75,991.51Z"/><path class="cls-11" d="M374.11,1005.63c1.79-.2,2.18,1.08,2.65,2.28-.86-.3-1.76-1-2.84-.39A5.14,5.14,0,0,1,374.11,1005.63Z"/><path class="cls-11" d="M382.87,1007.52c1-.16,1.58.87,1.21,1.38C383.11,1009,383.21,1008,382.87,1007.52Z"/><path class="cls-12" d="M348,995.49c-2.21.49-3.8,4.84-5.72,6.5-1.63,1.42-4.44,1.72-5.79,3.69-1.95,2.86-1.8,11.18,3.53,8.85-1.09-2.11-2.41-3.34-2.51-6.06-.23-6,6.61-6.59,10.28-3.09-.35-2.07-2.93-2-3.4-3.68-.82-3,1.89-4.48,4.09-5.75-1.11,1.1-1.93,5.2.38,5.64,1.62-.69,1.63-2.9,2.24-4.54.74.72-.24,1.75.07,2.83.55.69,1.09,0,1.66.42.66-.9.83-2.27,1.57-3.1,0,1.32-1.37,3.3-.79,5.91.44-.05.12-.8.45-1,.94.86,1.07,2.58,2.2,3.24-.06-1.29-.68-3-.11-4.23-.22-.69-.34.55-.94.26a21,21,0,0,0-.65-7c-1.55,1.3-3.4,1.21-6.09,1.11,1.45-.82,4.9.23,6.07-1.81a60.5,60.5,0,0,1-2.09-7.95c-.26-1.23-.29-3.36-.83-4.45-.09-.19-.89-.45-.95-.68-.23-.78-.39-2.61-.56-3.28-.7-2.73-.59-6.26-1.42-9.15-.69-2.41-3.09-8.09,0-9.65-.11-1.32.65-1.83.63-3.07,3.07-3.51,3.76-9.27,7-12.66,2.38-12.77,13-21.42,27.65-22.85,3.77-.37,6.49,1.31,9.92,1.15-.59-3.9-4.08-4.73-4.7-8.59,4.38-3.14,5.3,4.81,9.32,5.17,1.79-1.53,3.52-3.07,5.28-4.85,1.16-1.16,3.63-5.3,6-4.86,1.42.26,3.92,1.82,6.44,2.89,2.22.94,5.47,2.55,6.46,4.3,1.79,3.16,1.59,7.44.31,11.53,2.06,2.93,5.31,5.1,5.42,9.27s-5.17,10.81-9.6,10.85c-2.51,0-4.12-1.28-6.42-2.19.48,3.65-.72,6.71-1.62,9.69,6.24.49,10.83,4.29,9,11.77.15.49,1.53.26,1.41-.27.36.63-.43,1.23.06,2.35-1.4.28-1.83,1.48-2.52,2.42,1.53.11.82,1,.05,2.12,1.86-2.22,3.84-.13,5.66.32,1,.26,2.42-.1,3.53.14a10.52,10.52,0,0,1,3.82,1.79c-1.21.31-3.47.26-5.17.6,0,2,0,4.05.62,5.4-2.62-.7-4.08-2.63-5.77-4.32-3.42.66-5.16,2.9-6.68,5.36.31.39,1.13.26,1.2.91A4.57,4.57,0,0,1,415,985c1.2,0,2.06-1.14,3.51-1,1.92.14,3.25,2,5,2.46-1.06,4-6.23,4.19-10,5.68-2,2.45-2.29,5.12-3.3,8.56,3.83.36,7-1.18,9,1.41-2-.2-3.06-.51-4.7.36-1-.92-2.85-1-4.74-1.05.35-3.18-3.57-4.19-4.75-1.76,2.08,2,3.87,2.47,7.35,2.16-4.16,2.09-9.42,3.14-15,3.92a1.58,1.58,0,0,0,.72.45c-1.54.73-3.24-.44-4.95-.34,1.49-.41,3-.81,4.44-1.29-.05-.88-1.45-1.2-.76-2.1-1.7.11-2.66.42-4-.13.81-.76,2.38-.8,3.74-1,1-3.14.68-5.75.21-9.89-.31-2.75-1.48-5.52-1.62-8-.24-4.22,1.55-8.26,1.08-12.74-7,.49-14.95,2.4-21.18.32-2.65,2.24-1.72,6.53-2.09,10.18-.08.82-.59,1.62-.64,2.37-.13,1.72.66,4,.87,6.1a16.09,16.09,0,0,0,.06,2.35c.77,2.73,4.07,4.68,5.83,7.14.85,1.19,1.17,2.69,2,3.72,1.49,1.89,3.87,2.82,4.13,5.07,2.71,0,5.34-1.18,6.84.52-6.1-.64-8,4.12-14,3.2.1-.75,1.33-.42,1.62-1-.9-.2-1.88-.69-2.6-.4s.66.06.26.7a10.38,10.38,0,0,1-3.29.32c.16-1.76,2.35-1.59,3.71-2.22a21.67,21.67,0,0,1-3.08-.86c-.17.91,1.14.25,1,1.16-1.54,1-2.44-.19-4.23.34-.08-.38.21-.41.21-.71-2-.78-3.55.32-5.87.39,1.24-1.27,3.66-1.42,6.08-1.57-.28-5.86-6-1.39-9-1.41.09-2.75-4.76-1.93-4.21,1.28-2.39.22-4,1-6.13-.54a3.19,3.19,0,0,1-2.58.3c-4.25,1.42-6.78,8.65-12.49,8.33a4.3,4.3,0,0,1-3.88-4.13c-.55-5,5.51-8.35,9.13-10.83C343.56,998.21,345.81,996.9,348,995.49Zm65.8-84.82c4.23,2.55,6.3,7.38,9,11.53C425.21,915.27,418.11,911.41,413.75,910.67Zm-5.35,2.49a7.65,7.65,0,0,0,6.6,9.24c1.86.22,3.53.3,4.21-.81,2.26-3.72-5-5.76-7.49-7.34-1-.63-1.27-1.81-2.64-2C408.41,912.09,408.48,912.78,408.4,913.16Zm-23.82,7.22c-8.52.45-18.42,5.29-22.08,10.7-4.55,6.73-5.82,15.31-9.53,22.61-.13.94.65.93.52,1.87a59.26,59.26,0,0,0-4.87,11.66c4.61,3.19,6.52,9.24,10.23,13.39-1.64-5.28-3.61-10.22-5.34-15.4,4.33,3,7.34,7.41,9.74,12.46-1.91-1.94-3.66-4-5.57-6a33.09,33.09,0,0,0,4.76,11.18c1.09,1.55,2.75,3,3.66,4.61,1.17,2,1.19,4.52,2.27,6.06.72,1,2.42,1.21,2.42,2.53,0,1.93-2,1.34-2.54,1.71-.48,3.17,2.37,4.91,3.49,7.21.39.78.07,2.34,1.23,2.32.92-.85.25-3.23.12-4.48,3.33,1.16,3.47,5.69,7.23,6.4-.62-1.52-2.31-3.2-2-4.89,1.29,1.78,1.85,4.34,4.59,4.59-.28-2.28-2.59-3.71-3-5.1,1.58.76,2,2.76,3.85,3.19,0-2.8-4.35-3.13-4.41-6.71-8.85-8.4-13.34-22.41-18.09-34.36.33-6-5.3-5.69-6.84-9.71a55.43,55.43,0,0,0,11.2,5.36c1.89-3.87,4.54-7,6.31-11-5.28,5-14.56-4-8.47-8.72.64,4.24,2.21,7.5,7.25,7.11-.92-1.29-3-1.38-3.61-3,1-3.81,3.88-9.14,6.75-11.71,4.13-3.7,8.35.9,8.39,5.67s-3.43,7.49-6.35,9.11a4,4,0,0,0,3.07.62c2.79-2.17,4.63-6.46,6.84-8.42,0,2.82-1.38,5.39.21,7.77.94-1.55.91-3.33,1-5.21a8,8,0,0,1,2.78-1.48A45.18,45.18,0,0,1,393.1,922C389.58,921.92,387.67,920.21,384.58,920.38Zm11.59,19.94a6.62,6.62,0,0,1,4.33-5.3c-.33,3-5.07,3-3.59,6.93-.32-4.13,4.11-3.76,8.14-3.75-2.83-3.38-5.11-7.34-7.81-10.86.81,1.09-.66.67-.92,1a7.43,7.43,0,0,0-1.22,7.09c1.21.58,2.32-.2,3-.78C397.47,936.36,395.47,938,396.17,940.32Zm25.14-10.55c1.14,2,3.35,3.42,3.93,6,.84,3.83-1.59,8.15-5.66,8.62-4.49.52-7.53-2.42-10.68-3.25,2.64,1.93,4.83,4.49,8.6,4.72,9.19.55,11.7-12.66,4.73-17.08,0-.14,0-.27-.24-.22C422,929.18,421.58,929.41,421.31,929.77ZM397.83,941c0-1.46,2.25-.78,2.78-1.72C399.38,938.8,397.1,939.68,397.83,941Zm6.67,2.88c-1.21.62-2.07,1.56-3.48,2,2.89.2,3.54-2.88,5.58-2.74-.31-1.51.64-1.84,1.35-2.39-.75-1-3.19-2.71-3.78-.37a8.59,8.59,0,0,0,1.45,1.61,1.14,1.14,0,0,1-.44,1.19c-1.63,0-2.73-1.79-3.8-1.55C402.34,942.43,403.51,943.05,404.5,943.86Zm2.25,23c.56-.31,1.45-1.51,2.09-1-.42,1.28-2.15,1.32-2.76,2.42,4.44-1.83,7.3-6.38,10.85-8.28-1.22,3.74-5,6.29-6.6,8.88,2.78-1.73,5.24-5,7.12-6.78-.39,1.39.45,3.12,1.06,4.21,3.27-6.52-1.85-11.41-8.08-11.56.23,3.74-2.37,6-1.87,9.23a69.77,69.77,0,0,0,6.24-4.4C413.38,962.92,408,964.88,406.75,966.87Zm7.35,1.93a5.58,5.58,0,0,1,2,3c1.53-.54,2-2.06,1.77-4.28-.83-.82-2.12-1.15-3.11-1.81C414.74,967.48,413.79,967,414.1,968.8Zm-4.83,4.36c-.94.63-1.84-.15-2.61-.87-3.44-.5-8.12,1.33-9.31,4,.34-.28.55-.69,1.15-.74a26.37,26.37,0,0,0,9.18,0c2.16.54,2.63,2.05,5.48,2.21C412.61,975.45,410.66,974.59,409.27,973.16Zm7.84,2.62c0-1.1,1.66-.56,1.6-1.69a2.73,2.73,0,0,0-1.86.76C417.67,974.89,416.28,975.74,417.11,975.78Zm-9.85,10.62c1.14-2.51,6-1.49,7.2-4-1.49-.19-1.87.68-3.29.56-1-1.39-2.86-1.82-4.76-2.23C405.37,982.64,406.8,984.66,407.26,986.4Zm-9.49,5.9c4.35.4,7.39,4.64,13,2.72.09-1.63-.81-2.21-1-3.51A10.6,10.6,0,0,0,397.77,992.3Zm-23.85,15.22c1.08-.64,2,.09,2.84.39-.47-1.2-.86-2.48-2.65-2.28A5.14,5.14,0,0,0,373.92,1007.52Zm10.16,1.38c.37-.51-.24-1.54-1.21-1.38C383.21,1008,383.11,1009,384.08,1008.9Z"/><path class="cls-11" d="M401.38,941.59c1.07-.24,2.17,1.58,3.8,1.55a1.14,1.14,0,0,0,.44-1.19,8.59,8.59,0,0,1-1.45-1.61c.59-2.34,3-.59,3.78.37-.71.55-1.66.88-1.35,2.39-2-.14-2.69,2.94-5.58,2.74,1.41-.42,2.27-1.36,3.48-2C403.51,943.05,402.34,942.43,401.38,941.59Z"/><path class="cls-11" d="M414.8,959.6a69.77,69.77,0,0,1-6.24,4.4c-.5-3.23,2.1-5.49,1.87-9.23,6.23.15,11.35,5,8.08,11.56-.61-1.09-1.45-2.82-1.06-4.21-1.88,1.81-4.34,5-7.12,6.78,1.63-2.59,5.38-5.14,6.6-8.88-3.55,1.9-6.41,6.45-10.85,8.28.61-1.1,2.34-1.14,2.76-2.42-.64-.52-1.53.68-2.09,1C408,964.88,413.38,962.92,414.8,959.6Z"/><path class="cls-11" d="M413.16,977.77c-2.85-.16-3.32-1.67-5.48-2.21a26.37,26.37,0,0,1-9.18,0c-.6.05-.81.46-1.15.74,1.19-2.68,5.87-4.51,9.31-4,.77.72,1.67,1.5,2.61.87C410.66,974.59,412.61,975.45,413.16,977.77Z"/><path class="cls-11" d="M416.85,974.85a2.73,2.73,0,0,1,1.86-.76c.06,1.13-1.64.59-1.6,1.69C416.28,975.74,417.67,974.89,416.85,974.85Z"/><path d="M406.62,1013c0,.85-1.17,1.53-2.62,1.53s-2.62-.68-2.62-1.53,1.17-1.53,2.62-1.53S406.62,1012.15,406.62,1013Z"/><path d="M424.62,1013c0,.85-1.17,1.53-2.62,1.53s-2.62-.68-2.62-1.53,1.17-1.53,2.62-1.53S424.62,1012.15,424.62,1013Z"/><path d="M409.62,1025c0,.85-1.17,1.53-2.62,1.53s-2.62-.68-2.62-1.53,1.17-1.53,2.62-1.53S409.62,1024.15,409.62,1025Z"/><path d="M418.62,1020c0,.85-1.17,1.53-2.62,1.53s-2.62-.68-2.62-1.53,1.17-1.53,2.62-1.53S418.62,1019.15,418.62,1020Z"/><path class="cls-12" d="M544.18,996.94c-4,.5-6.69,5.44-9.3,8-3.8,3.68-9.39,5.45-14.37,6.67-2,.49-12.45.31-12,2.49,3.36,1.81,8.51,2,12.31,2.07a52.77,52.77,0,0,0,9.16-.22c3.15-.53,5.85-2.66,8.51-4.29a71.19,71.19,0,0,0,6.78-4.79c1.14-.91,3.76-2.5,4.12-4,.42-1.71-3.5-5.92-5.48-5.48"/><path class="cls-7" d="M550.26,979.32l-1.06,1.19c0,.06.06.11.08.17,1.3-1.33,4.7-1.68,7.16-1.28l-1.31-.77Z"/><path d="M571.63,1011c0-.54-.15-.84-.63-.84A.57.57,0,0,0,571.63,1011Z"/><path d="M562.6,1017.07a.73.73,0,0,0,.26.5C562.77,1017.41,562.68,1017.25,562.6,1017.07Z"/><path d="M562.42,1016.16h0S562.4,1016.12,562.42,1016.16Z"/><path d="M549.81,997.63v-.53c-.28-.25-.72,0-1.06,0a1.84,1.84,0,0,0-.42,1.37H549C548.76,997.71,549.37,997.75,549.81,997.63Z"/><path d="M569.51,1010.13c0,.55.87,1.72,1.38,1.8A3,3,0,0,0,569.51,1010.13Z"/><path d="M569.72,1012.35c.18-.17.13-.67-.21-.64C569.51,1012,569.45,1012.34,569.72,1012.35Z"/><path d="M563,1017.77s0,0-.07-.14l0-.06a.73.73,0,0,1-.26-.5l-.11-.21c-.25.08-.3-.11-.6-.17-.16.36.09.5.1.85.61,0,.53.6,1.06.64.27,0,.37-.2.53-.32a1.21,1.21,0,0,1-.71-.27l0,0Z"/><path d="M562.63,1016.8h0v0S562.62,1016.81,562.63,1016.8Z"/><path d="M561.14,1017c.31.69.92,1.61,1.49,1.7A2.73,2.73,0,0,0,561.14,1017Z"/><path d="M561.14,1017.75c-.32.34.47.9.22,1.17-.23-.25-.66-.7-1.06-.43a2.81,2.81,0,0,0,1.48,1A1.5,1.5,0,0,0,561.14,1017.75Z"/><path d="M559.45,1019.13c0-.41.67-.18.74-.53a.77.77,0,0,0-1.16.74c.14,0,.12.23.21.32.51.15,1-.27,1.27,0,.22.71-.84.14-.74.74a.81.81,0,0,0,1.16-.95C560.63,1018.82,559.74,1019.59,559.45,1019.13Z"/><path class="cls-6" d="M547.59,984.18c-.11.64-1.9,2-1.8,2.86.59-.14.74-1.08,1.16-1.06,1.34-2.53,6.63-4.84,10.17-2.65-.18.36,0,.06.11.1,1.71.83,2.28,3.45,2.64,5.83-.08,4.85-1.64,7.81-4.34,9.85a35.18,35.18,0,0,1,2.44,6.57c1.45,3,2.94,7.94,4.52,11.18l.13-.06c-.09-.28-.17-.55-.2-.63h0s0,0,0,0a23,23,0,0,1,1.48,1.9,32.46,32.46,0,0,1,6.14-1.48c0-1.57-.77-3.52.21-4.56-.1-.53-.55-.72-.84-1.06-2.09-12-4-26.12-13.24-29.76-2.67-1.05-5.22.22-6.89,1.17a3.33,3.33,0,0,1-2,1.69C547.37,984.08,547.61,984.06,547.59,984.18Zm21.92,27.53c.34,0,.39.47.21.64C569.45,1012.34,569.51,1012,569.51,1011.71Z"/><path class="cls-6" d="M562.6,1017.07c.08.18.17.34.26.5v0l-.25-.77A.71.71,0,0,0,562.6,1017.07Z"/><path class="cls-6" d="M562.89,1017.63l0,0v0Z"/><path class="cls-6" d="M563,1017.77l-.07-.14C562.93,1017.75,563,1017.81,563,1017.77Z"/><path class="cls-6" d="M562.6,1017.07a.71.71,0,0,1,0-.25v0l-.13.06Z"/><path class="cls-6" d="M557.75,979.73a7.36,7.36,0,0,0-1.31-.33l5.72,3.41A10.79,10.79,0,0,0,557.75,979.73Z"/><path d="M568.7,1006.29s1.29,8.77,1.34,10.3l2.54-.32s-2-14.5-2.14-15S568.7,1006.29,568.7,1006.29Z"/><path d="M547.27,984.07a4.38,4.38,0,0,1,1-.82c.52-.3.86-.63,1.38-.94a7.57,7.57,0,0,1,6.48-1.1c9.75,2.09,11.15,17.79,13.24,29.76.29.34.74.53.84,1.06-1,1,1.32,2.82,1.34,4.39a51.11,51.11,0,0,0-7.69,1.65,23,23,0,0,0-1.48-1.9c0,.08.11.35.2.65l.25.77a1.21,1.21,0,0,0,.71.27c-.16.12-.26.3-.53.32-.53,0-.45-.69-1.06-.64,0-.35-.26-.49-.1-.85.3.06.35.25.6.17-1.58-3.24-3.07-8.16-4.52-11.18a35.18,35.18,0,0,0-2.44-6.57c2.7-2,4.05-3.6,4.14-8.44-.37-2.39-.73-6.41-2.44-7.24-.1,0-.29.26-.11-.1-3.22-2-7.06-.44-9.63,1.83-.58.51-1.61.79-2,1.46.28-1-.12.69,1-1.12a6.07,6.07,0,0,0,.77-1.43c-2.32,3.29-2.92,5.8-4.32,8.47a9.32,9.32,0,0,0-.58,2.29c.14,1.17-.86,2.55-1.49,3.44,2.54,1.71,4.77,3.77,7.24,5.61,1.53,2.49,4.52,4.09,5.72,6.56L529,1029c-2.31,2-5.78,4.2-6.25,7.84-.58,4.39,3.88,6.21,7.83,7,4.91,1,10.84.73,15.57.31,7.48-.66,14.86-1.95,21.61-3.17l.28,0c.79.18,2.09-.23,2.28.35.73,2.25,2.08-.48,3.23,0,1.52.63.1.63.74.13a46.69,46.69,0,0,0,5.51-1.38s.67-2.07.68-2.1c.78-.05,3.37-.56,3.37-.56l.7-2.09c1.21-5.69-11.06-3.26-13.83-2.58-.47,0-2.08,2.81-2.64,2.77,2.64-.79,6.06-2,6.78-3.39,0,0,.32-.11.32-.1a5.93,5.93,0,0,0,.31-.64c1.46-2.37,1.54-5.06,1.23-8-.44-4.11-2.33-3.92-4.09-7.06-1.36.58,1.49-.46,0,0-.17-1.67-.08-5-.21-6.75-.72.09-1.87,1.61-1.9.71a2.1,2.1,0,0,1,1.9-.38,82.65,82.65,0,0,0-2.11-10.23c-1.56-5.71-4.44-12.72-8.1-16.81l-5.72-3.41c-2.46-.4-5.86,0-7.16,1.28,0-.06-.06-.11-.08-.17l-3,1.43c.28.08.73,1.84,1,1.92m22.24,26.27a3,3,0,0,1,1.38,1.8C570.38,1011.85,569.55,1010.68,569.51,1010.13Zm-9.74,10.27c-.1-.6,1,0,.74-.74-.28-.27-.76.15-1.27,0-.09-.09-.07-.29-.21-.32a.77.77,0,0,1,1.16-.74c-.07.35-.73.12-.74.53.29.46,1.18-.31,1.48.32A.81.81,0,0,1,559.77,1020.4Zm2-.95a2.81,2.81,0,0,1-1.48-1c.4-.27.83.18,1.06.43.25-.27-.54-.83-.22-1.17A1.5,1.5,0,0,1,561.78,1019.45Zm-.64-2.44a2.73,2.73,0,0,1,1.49,1.7C562.06,1018.62,561.45,1017.7,561.14,1017Z"/><path class="cls-12" d="M557.93,977.12c-1.77-5.22,3.7-8.35,4-12.74.15-2-1.26-3.26-1.43-5.76.21-.55.83-.59,1.12-1.06,5.28,3,.67,10.82.17,16.44a12.08,12.08,0,0,0,1.43,6.58c.45.88.95,1.73,1.35,2.64s.34,1.24,1.75,1.45c1.78.26.89-.74.71-1.56s-1-3.48-.34-4.25c.53-.58.92,1.76.91,2,.88-1.34-.63-3.54-.48-5.09.21-2.21,3.39-3.13,3.87-5.29a27.41,27.41,0,0,0,1-5.5c-.08-1.52-.91-3-.5-4.5.56-2.06-4.86-4-6.39-4.72a11.44,11.44,0,0,0-3.24-1c-1-.14-2.32.14-3-.8s-.37-2-1-2.85a6.07,6.07,0,0,0-2.7-1.45,11.22,11.22,0,0,0-4.8-1c-1.71.1-2.67,1-4,1.87s-3.08,1.07-4.45,2a12.15,12.15,0,0,0-3.3,3.69c-1.67,2.73-3.2,6.14-2.79,9.41a12.54,12.54,0,0,0,1.91,5.2c2.56-.6,3.42,2.49,2,5,3.61,1,2.43,6.49,6.86,6.7C546.57,982.57,553.79,981.94,557.93,977.12Z"/><path class="cls-11" d="M542.2,969.7c4.22-.24,7.51-1.63,11.64-2.37,0,1.91-.1,3.94.64,5.75.64,1.55,2.21,3,1,4.74-1.58,2.28-7.88,4.77-10.29,2.83a7.55,7.55,0,0,1-1.6-2.67,7.12,7.12,0,0,0-2.11-2.36c0-1.07.43-2,.13-3.13S539.81,969.45,542.2,969.7Z"/><polyline class="cls-12" points="541.11 972.14 538.32 972.07 541.25 973.41"/><path class="cls-12" d="M558.62,970.88s-2.44,7.92,1.73,10.53,0,1,0,1l-6-2.89s3.43-1,2.39-3.37v-4.7Z"/><path d="M559.3,985s3.47,3.88,2.23,8.21S566.65,990.9,559.3,985Z"/><path d="M570.75,1006.25c-2.5,1.75-4.38,1.41-6.66,1.49A6.23,6.23,0,0,0,569,1009c1.41-.23,3.53-1.81,1.25-2.75"/><path d="M569.88,1009.84a13.18,13.18,0,0,1-6.78.76,6.24,6.24,0,0,0,4.75,1.79c1.42-.09,3.7-1.42,1.54-2.6"/><path class="cls-6" d="M551,985.25a5.69,5.69,0,0,0-4.5,6.25A12.58,12.58,0,0,1,551,985.25Z"/><path class="cls-6" d="M558.09,1000.39c0,1.42-2.57,2.28-4.71,2.68a13.31,13.31,0,0,0,5.65-.78,19.74,19.74,0,0,1-8.51,3.37c2.11,0,7.5-.27,9.69-1.11,2.89-1.1-1.17-2.28-2-3.46"/><polygon points="541.77 978.42 543.73 977.54 547.41 978.07 543.12 980 541.77 978.42"/><path class="cls-12" d="M548.77,971.67a2.65,2.65,0,0,1-.71,1.38c-1.33.25-1.93-.22-1.88-1.37a1.57,1.57,0,0,0-1.31,1.22,4,4,0,0,1-1.18-.11c.69-3.24,4.94-2.3,6.34-.68C549.28,972.1,549.78,971.77,548.77,971.67Z"/><path d="M519.67,1012.19c-2.67.15-5.45-.08-8.14-.08-.8,0-4.64-.52-5,.26-.41.94,5.62.7,6.33.74-.83.28-6.6.39-6.49,1.94,2.17.49,4.62-.28,6.76-.56-.81.21-3.37,1.08-3.39,2.12,1.47.07,3.06-.63,4.5-1,.72-.17,1.4-.47,2.15-.58.54-.09,1.19,0,1.69-.16-1.65.68-3.76.65-5.07,1.86,2,.16,3.74-.31,5.67-.39,1.26,0,.89-.79.89-2v-2"/><polygon points="548.25 982.25 553.25 975.25 552.75 980.5 548.25 982.25"/><path class="cls-11" d="M545.62,988.25c.75-1,1.31-2.27,2.4-2.84a13.37,13.37,0,0,1,4.48-1.17c3.2-.31,5.3,1,5.6,4.26.37,4.11-2.69,7.15-5.75,9.46-3.66,2.77-7.28,5.94-10.68,9a31,31,0,0,1-8,5.33c-2.78,1.28-4.71,2.26-7.67,2.67-3.2.45-6.74.34-9.86.73.47-2-2.72-.8-3.62-.49,0-.21-.07-.51,0-.72a11.08,11.08,0,0,1-3.31,0c.68,0,1.85-1,1.21-1.48,2.92.05,5.93-.26,8.87-.4a35.85,35.85,0,0,0,9.75-2c6.3-2.29,9.9-7.08,13.5-12.55,2-3,2.42-7.11,3.75-10.24"/><path d="M543,992.54s7.72,6.46,11.72,6.46l4.9-6.5-5.24-9.5-6.84,2.16Z"/><path class="cls-11" d="M545.18,992.83a31.25,31.25,0,0,0,6.21,3.56c-.94-1.19-2.59-2.42-3.08-3.6,1.26.82,2.51,2.07,3.8,2.42-1-1.2-2.64-2.42-2.82-3.59a18.82,18.82,0,0,0,5,3.14c-1.59-1.6-5.4-5.43-7.47-6.3"/><path class="cls-11" d="M554.8,1033.44c.2.06.23-.19-.12-.25a39,39,0,0,1-15.91-.12C544.44,1036.34,550.34,1034.71,554.8,1033.44Z"/><path class="cls-11" d="M557.46,1026.65c-4.86,2.83-9.47,5.16-16.31,5.37-.72,0-1.39-.75-2.18.2,8.19,2.24,14.47-2.11,18.89-5.57Z"/><path d="M503.62,1023c0,.85-1.17,1.53-2.62,1.53s-2.62-.68-2.62-1.53,1.17-1.53,2.62-1.53S503.62,1022.15,503.62,1023Z"/><path d="M503.13,1016.08c0,.84-1.18,1.53-2.63,1.53s-2.62-.69-2.62-1.53,1.17-1.53,2.62-1.53S503.13,1015.23,503.13,1016.08Z"/><path d="M566,1050c0,.85-1.18,1.53-2.62,1.53s-2.63-.68-2.63-1.53,1.18-1.53,2.63-1.53S566,1049.15,566,1050Z"/><path d="M552,1053c0,.85-1.18,1.53-2.62,1.53s-2.63-.68-2.63-1.53,1.18-1.53,2.63-1.53S552,1052.15,552,1053Z"/><path d="M563,1059c0,.85-1.18,1.53-2.62,1.53s-2.63-.68-2.63-1.53,1.18-1.53,2.63-1.53S563,1058.15,563,1059Z"/><path d="M490,1022c0,.85-1.18,1.53-2.62,1.53s-2.63-.68-2.63-1.53,1.18-1.53,2.63-1.53S490,1021.15,490,1022Z"/><path class="cls-6" d="M546.28,1019.24c2-1.5,3.1-3.78,5.44-5,1.63-.83,3.27-1.26,4.78-2a54.24,54.24,0,0,0-9.9,7"/></svg>