<svg id="Layer_1" data-name="Layer 1" xmlns="http://www.w3.org/2000/svg" viewBox="0 0 465.97 675.2"><defs><style>.cls-1,.cls-2,.cls-4{fill-rule:evenodd;}.cls-2,.cls-3{fill:#fff;}.cls-4,.cls-5{fill:#e6e7e8;}.cls-6{fill:#231f20;}.cls-7{fill:#9b7d0d;}</style></defs><polygon class="cls-1" points="177.13 452.41 254.75 445.01 214.09 371.09 177.13 452.41"/><path class="cls-1" d="M171.73,233.27A65.5,65.5,0,0,1,167,223c0-2.62,1.34-4,.79-7.16-.32-1.9-4.89-5.48-6.16-7.09a67.73,67.73,0,0,1-5.31-7.72c-1.17-2-1.92-.16-1.81-2.52.38-7.61,8.95-7,11.67-7.31,3.8,10-.53,23.41,15.93,23.84,8,9.54,17,18.06,22.13,30.44,10.06,7.16,15.14,21.68,29.54,22-.37-3.08-4.56-3.67-6.14-5.54,1.93-5,2.16-6.7-.23-11.15,6.15-4.1,8.35-10.2,9.54-18.29,8.81-2.11,24.69-5.51,27,4.77,1.42.48,3.3-2.33,4,0,1.28,3.13-3.43.28-3.18,2.39,10.28,10.49-5.76,21.46-4,31-5.38-.34-10.18,4.11-7.15,9.54,3.3-.14,1.21-5.67,4-6.36,3,2.28-1.6,3.64-1.59,5.56,3.79,2,4,5.89,2.38,9.55.21,1.63,3.52.18,3.18,2.38,2.28,15.92-12,26.23-15.11,38.95-3,12.27-.85,26.11-2.38,38.16-.73,5.76-4.67,9.81-4.77,15.9h-4.77c-7.85,8.68-8,21-11.93,34.18,9.16,12,15.13,27.27,25.45,38.16-2.39,8.48-6.75,15-8,24.64-13.6-3.35-33.26-.67-37.37-13.52,4.64-4.8,13.56-.55,21.47-1.59,1.32-1.31.63-4.66.79-7.15-10.7-7.05-14.74-20.77-23.05-30.21-.38-2.5,1.13-3.1,1.58-4.77-7.45,5.53-9.63,16.34-19.07,19.88,3.74,7-3.37,14.58-4.77,21.46,8.41,10.8-9.33,21.19-4.77,35.77-8.92,2.39-14.4-2.58-19.87-4-3.67-.93-7.74.31-11.14-.8-6-1.93-8.78-7.65-14.3-9.54-1.1-5.6,1.83-7.17,4.77-8.74,9.9,3.81,24.48,3.48,26.23-7.16a9.63,9.63,0,0,0-4.77-4.77c1.12-14.3-1.67-34,2.39-46.89,2.55-8.15,10.75-12.35,11.92-21.47,7.92-12,17.7-22,26.24-33.39-10.39-6.3-29-4.36-39-11.13-2.17-9.75-1.61-22.24-6.36-29.41,5.81-3.46,20.4-.58,26.24-1.59-.29-12.93,6-25.68,11.12-35.77,10.88,2.37,16.76,9.73,24.65,15.1-.15-2,1.33-6.42,3.17-8.74-11.54-14.69-26.62-25.84-34.17-44.52C182.07,248.46,174.13,237,171.73,233.27Zm15.1,66.07c-1.55,8-7.9,17.8-4.76,25.43h7.15C190.46,316.2,199.52,301.72,186.83,299.34Zm7.15,27c4.54,1.29,8.05,3.61,11.93,5.56-.68-6,3.75-6.85,4-11.92-6.34-1.35-9.26-6.11-13.51-9.54C195.62,316.27,192.35,320.37,194,326.37Z"/><path class="cls-1" d="M160.51,204a50.76,50.76,0,0,0,5.13,5.92c2.31,2.41,3.67,3.22,2.62-.78-.42-1.58-.75-7.24-1.84-8.22-2-1.8-6,1.85-5.6,4.31"/><path class="cls-2" d="M157.24,197.65c0,1.48.74,2.95,2.7,1.88.71-.38.74-.65,1.58-.92a3.88,3.88,0,0,0,1.88-2.19c1.52-3.5-5-1.89-5.21.41"/><path d="M242.33,292.75a15.19,15.19,0,0,1,15.32-7.44l2.2,5.72S259.81,280.43,242.33,292.75Z"/><path d="M231.57,242.61c9,10.76,19.61,17.54,23.72,31.06s3.24,26.35,2,40.57c-.84,9.11,1.69,16.58,2.22,25.39.32,5.4-2.63,11.62,0,16.33,7.17-6,9.88-15.51,14.81-22.82,6-8.86,12.59-18,12.86-27.49.52-18.47-8.84-38.57-13.34-56.31-2.47-9.79-6.5-19.78-21.27-18.38-10.45,1-20.24,6.6-17.08,15.38"/><path d="M221,320.26s22.18-1.38,29.11-6.93C250.13,313.33,236.27,329.5,221,320.26Z"/><path class="cls-3" d="M195.42,370.06,230,381.23A71,71,0,0,1,195.42,370.06Z"/><path class="cls-3" d="M206.59,364.81,230,372.38A48,48,0,0,1,206.59,364.81Z"/><polygon class="cls-3" points="215.5 392.71 210.9 404.5 237.51 442.44 217.04 402.96 218.57 386.56 215.5 392.71"/><path class="cls-4" d="M238,237.26c0,4.88-1.09,8.4-4.79,11.71-2.54,2.29-1.72,2.46-1.31,5.32.37,2.6-.39,4.23-1.39,6.38,2.09,2.2,4.1,2.29,5.43,5.53,1.14,2.77-.1,3.28-.56,5.88,4.4.14,8.5,2.82,13.27,1.33,1.09-.34,4.44-1.93,4.82-3.13s-1-4.66-1.15-6.08a36.69,36.69,0,0,1,.85-13.37c.85-3.58,2.32-9.14-.46-12.32-2.08-2.36-14.86-6.42-15-.45"/><path class="cls-5" d="M205.53,335.33s-34.73,2.79-47.9-8C157.63,327.35,187.57,323.35,205.53,335.33Z"/><path class="cls-6" d="M237.82,247.87c1.94,2.15,3.81,5.41,7.21,4.61-.32-2.85-4.19-5.81-7.13-5.57-.35,1.82.5,2.7,2,3.56"/><path class="cls-3" d="M233.16,323.48a22,22,0,0,0,12.12-9c2.66-3.71,3.84-8.65,6.46-12-2.69,4.88-2.51,11.38-6.24,16-3.17,3.92-11.53,8-16.25,4.53,1.58,0,3.16,0,4.74,0"/><path class="cls-3" d="M214.58,292.88l5.32,12.24S222,301.4,214.58,292.88Z"/><polygon points="233.07 244.98 230.81 241.79 231.87 241.26 234.8 243.78 233.07 244.98"/><path d="M238.66,233.41c-5.08,3.63,2.35,8.16,5,10.27,3.38,2.67,4.56,6.26,5.47,10.48.56,2.58,1.29,5.11,2,7.7.49,1.91,1.48,5.5,3.71,5.74,2.45.27,4-2.5,4.83-4.4,1.54-3.73,1.14-9.36.56-13.28-.78-5.25-2.66-11.28-7.5-14.13-3.19-1.87-6.6-2.1-10.21-2.25-1,0-3.51-.81-4.26,0"/><path class="cls-2" d="M183,436.3c1.73,2.82,3.82,5.59,5.83,7-4.47-6.79-7.55-15-11.36-22.41A39.16,39.16,0,0,0,183,436.3Z"/><path class="cls-2" d="M184.79,414.47c.92.13,2.73,3,4.37,5.24,3,4.1,5.43,7.61,5.53,14.84C192.45,426.8,188.09,421.16,184.79,414.47Z"/><line x1="307.72" y1="101.59" x2="133.16" y2="221.37"/><path class="cls-7" d="M133.17,225.36a4,4,0,0,1-2.26-7.28L305.46,98.3a4,4,0,1,1,4.52,6.58L135.42,224.66A3.91,3.91,0,0,1,133.17,225.36Z"/></svg>