<svg id="Layer_1" data-name="Layer 1" xmlns="http://www.w3.org/2000/svg" viewBox="0 0 1437.68 796.65"><defs><style>.cls-1{fill:#e9e7e0;}</style></defs><path class="cls-1" d="M942.5,287.17a106.19,106.19,0,0,1,46.65-29.3c29.31-8.79,53.61,2.71,53.61,2.71s-24.12-7.75-52.77.66A129.84,129.84,0,0,0,942.5,287.17Z"/><path class="cls-1" d="M945.93,296.15a99.1,99.1,0,0,1,44-28.64c28-8.77,51.16.85,51.16.85a108.12,108.12,0,0,0-50.29,2.51A122.29,122.29,0,0,0,945.93,296.15Z"/><path class="cls-1" d="M949.35,305.13a92,92,0,0,1,41.41-28c26.74-8.75,48.72-1,48.72-1a124.09,124.09,0,0,0-47.81,4.36C966.78,288.06,949.35,305.13,949.35,305.13Z"/><path class="cls-1" d="M952.78,314.11s13.33-18.59,38.79-27.32,46.26-2.87,46.26-2.87a150,150,0,0,0-45.32,6.21C969.51,297.27,952.78,314.11,952.78,314.11Z"/><path class="cls-1" d="M956.2,323.09s12-17.95,36.17-26.66,43.81-4.73,43.81-4.73-21.72,1.31-42.83,8.05S956.2,323.09,956.2,323.09Z"/><path class="cls-1" d="M659.85,280s13.38-25.25,39-40.2S751.6,229,751.6,229s-25.47-1.66-51.18,13.88A144.81,144.81,0,0,0,659.85,280Z"/><path class="cls-1" d="M665.39,290.66s13.59-29.51,43-44.85,59.1-7.85,59.1-7.85-29.12-4.48-57.66,11S665.39,290.66,665.39,290.66Z"/><path class="cls-1" d="M670.94,301.61s13.79-33.78,46.92-49.51,65.48-4.88,65.48-4.88-32.77-7.3-64.15,8S670.94,301.61,670.94,301.61Z"/><path class="cls-1" d="M676.49,312.72s14-38.05,50.86-54.17,71.86-1.92,71.86-1.92-36.42-10.12-70.63,5.14S676.49,312.72,676.49,312.72Z"/><path class="cls-1" d="M682,323.94s14.18-42.32,54.8-58.84,78.24,1,78.24,1S775,253.21,738,268.37,682,323.94,682,323.94Z"/><path class="cls-1" d="M764.13,191.75s11.23-22.55,29.23-35.18,41.52-15.11,41.52-15.11-22.55,5.41-39.73,18S764.13,191.75,764.13,191.75Z"/><path class="cls-1" d="M769.93,198.86s9.85-20.91,26.57-32.64,38.32-13.42,38.32-13.42-20.58,4.65-36.53,16.32S769.93,198.86,769.93,198.86Z"/><path class="cls-1" d="M775.73,206s8.45-19.26,23.91-30.09,35.11-11.74,35.11-11.74-18.6,3.9-33.32,14.65S775.73,206,775.73,206Z"/><path class="cls-1" d="M781.53,213.07s7.07-17.62,21.25-27.55,31.91-10.06,31.91-10.06-16.62,3.15-30.13,13S781.53,213.07,781.53,213.07Z"/><path class="cls-1" d="M787.33,220.18s5.67-16,18.59-25,28.69-8.37,28.69-8.37S820,189.18,807.7,198.08,787.33,220.18,787.33,220.18Z"/><path class="cls-1" d="M793.14,227.28s4.27-14.33,15.92-22.47,25.5-6.68,25.5-6.68a58.23,58.23,0,0,0-23.72,9.6C799.78,215.69,793.14,227.28,793.14,227.28Z"/><path class="cls-1" d="M373,173.77s15.44-19.45,35.53-27.66,43.55-5.23,43.55-5.23S429,141,409.7,149.36,373,173.77,373,173.77Z"/><path class="cls-1" d="M377.26,182s13.75-18.16,32.42-25.78,40.09-4.32,40.09-4.32-21-.18-38.92,7.57S377.26,182,377.26,182Z"/><path class="cls-1" d="M381.52,190.32s12.07-16.87,29.32-23.91S447.46,163,447.46,163s-18.95-.46-35.45,6.66S381.52,190.32,381.52,190.32Z"/><path class="cls-1" d="M385.78,198.59s10.39-15.59,26.21-22,33.16-2.49,33.16-2.49-16.86-.75-32,5.75S385.78,198.59,385.78,198.59Z"/><path class="cls-1" d="M390.05,206.87s8.7-14.31,23.1-20.17,29.7-1.59,29.7-1.59-14.78-1-28.54,4.84S390.05,206.87,390.05,206.87Z"/><path class="cls-1" d="M394.31,215.14s7-13,20-18.29,26.23-.68,26.23-.68a56.81,56.81,0,0,0-25.07,3.94C403.09,205.35,394.31,215.14,394.31,215.14Z"/><path class="cls-1" d="M841.14,468.1s15.45-19.45,35.53-27.66,43.55-5.22,43.55-5.22-23.11.1-42.38,8.47S841.14,468.1,841.14,468.1Z"/><path class="cls-1" d="M845.41,476.38s13.75-18.17,32.42-25.79,40.08-4.32,40.08-4.32-21-.17-38.91,7.57S845.41,476.38,845.41,476.38Z"/><path class="cls-1" d="M849.67,484.65s12.08-16.88,29.32-23.91,36.62-3.41,36.62-3.41-18.94-.46-35.46,6.66S849.67,484.65,849.67,484.65Z"/><path class="cls-1" d="M853.94,492.93s10.38-15.6,26.21-22.05,33.15-2.49,33.15-2.49-16.85-.74-32,5.75S853.94,492.93,853.94,492.93Z"/><path class="cls-1" d="M858.2,501.2s8.69-14.3,23.1-20.16,29.7-1.59,29.7-1.59-14.78-1-28.54,4.84S858.2,501.2,858.2,501.2Z"/><path class="cls-1" d="M862.46,509.48s7-13,20-18.3,26.23-.67,26.23-.67a56.72,56.72,0,0,0-25.07,3.93C871.24,499.68,862.46,509.48,862.46,509.48Z"/><path class="cls-1" d="M960.56,198.52a91.54,91.54,0,0,0-23.49-42.43c-27.82-31.19-86.32-45.67-132.9-23.07-23,10.54-43.6,30.64-52.6,55.63a86.92,86.92,0,0,0-4.65,18.94l-.48,4.54s-6.17.44-9,1a119.07,119.07,0,0,0-30.8,8.47c-36,16-50.86,44.43-50.86,44.43s16.51-27.28,52-41.17a118.8,118.8,0,0,1,30.16-7c2.71-.39,11.15-.72,12.62-.86l1.22-8.55a81.51,81.51,0,0,1,4.79-17.52c8.92-23,28.38-41.5,50.14-51.48,43.94-21.37,100-9.67,128.11,19.23A89.42,89.42,0,0,1,959.52,199,5.37,5.37,0,0,1,960.56,198.52Z"/><path class="cls-1" d="M239.27,203C263.11,185.65,290.12,183,290.12,183s-28.64-.16-52.67,17.19-31.91,48-31.91,48S215.43,220.4,239.27,203Zm-34.68,61.74s7.79-26.26,28.8-43.8,40.71-21.68,40.71-21.68-21.6,1.49-42.74,19S204.59,264.77,204.59,264.77Zm.61,14.1s6.42-24.52,25.05-41.53S267,214.48,267,214.48s-20.17,3.32-38.89,20.26S205.2,278.87,205.2,278.87ZM229,251.56c16.31-16.33,33.71-21.82,33.71-21.82a72.4,72.4,0,0,0-35.92,19.31c-16.34,16.23-19.57,41.6-19.57,41.6S212.66,267.9,229,251.56Zm31.46-7.23s-21.08,3.53-35,19-15.68,38.89-15.68,38.89,4-20.83,18-36.48S260.43,244.33,260.43,244.33Zm-.76,12.7s-17.75,2.3-30.86,16.28-15.11,35.32-15.11,35.32,4.3-18.82,17.37-32.83A72.49,72.49,0,0,1,259.67,257Zm.16,12.37a48.72,48.72,0,0,0-27.59,13.87C220,295.73,217.7,315,217.7,315s4.61-16.81,16.74-29.2A66.68,66.68,0,0,1,259.83,269.4Zm-22.1,26.47a64.65,64.65,0,0,1,23.4-14.45,44.73,44.73,0,0,0-25.56,11.86c-11.33,10.92-13.86,28.09-13.86,28.09S226.59,306.61,237.73,295.87Zm-12,31.86S230.87,315,241,306a65.42,65.42,0,0,1,22.41-12.72s-14.12.7-24.51,10.07S225.71,327.73,225.71,327.73Z"/><path class="cls-1" d="M805,437.08C828.82,419.7,855.82,417,855.82,417s-28.64-.16-52.67,17.19-31.9,48-31.9,48S781.14,454.45,805,437.08Zm-34.69,61.74s7.8-26.26,28.8-43.8,40.71-21.67,40.71-21.67-21.6,1.49-42.73,19S770.29,498.82,770.29,498.82Zm.6,14.09s6.44-24.51,25.06-41.52,36.77-22.86,36.77-22.86-20.18,3.32-38.9,20.26S770.89,512.91,770.89,512.91Zm23.78-27.3c16.31-16.33,33.71-21.83,33.71-21.83a72.43,72.43,0,0,0-35.92,19.32c-16.34,16.23-19.56,41.59-19.56,41.59S778.37,501.94,794.67,485.61Zm31.46-7.23s-21.08,3.53-35,19-15.69,38.89-15.69,38.89,4-20.84,18-36.47S826.13,478.38,826.13,478.38Zm-.76,12.7s-17.75,2.3-30.86,16.29-15.11,35.31-15.11,35.31,4.3-18.82,17.37-32.84A72.61,72.61,0,0,1,825.37,491.08Zm.16,12.36a48.76,48.76,0,0,0-27.6,13.87c-12.26,12.47-14.52,31.74-14.52,31.74s4.6-16.81,16.74-29.2A66.79,66.79,0,0,1,825.53,503.44Zm-22.11,26.48a64.56,64.56,0,0,1,23.41-14.45,44.73,44.73,0,0,0-25.56,11.86c-11.33,10.92-13.87,28.09-13.87,28.09S792.28,540.66,803.42,529.92Zm-12,31.87s5.17-12.7,15.3-21.79a65.42,65.42,0,0,1,22.41-12.72S815,528,804.6,537.35,791.4,561.79,791.4,561.79Z"/><path class="cls-1" d="M182.08,371.88s-21.84-.54-39.46,9.93S114,412.67,114,412.67s13.59-18.05,30.19-27.81C160.71,374.91,182.08,371.88,182.08,371.88Zm3.41,7.84s-20.11-1.05-36.39,8.67S123,417.08,123,417.08s12.33-16.77,27.61-25.64C165.78,382.27,185.49,379.72,185.49,379.72Zm3.41,7.85S170.51,386,155.57,395c-15,8.79-23.47,26.52-23.47,26.52s11.06-15.49,25-23.47C170.87,389.62,188.9,387.57,188.9,387.57Zm3.39,7.84s-16.65-2.07-30.25,6.13c-13.76,7.94-20.89,24.35-20.89,24.35S151,411.7,163.59,404.6C176,397,192.29,395.41,192.29,395.41Zm3.42,7.85s-14.94-2.58-27.2,4.86C156,415.19,150.2,430.3,150.2,430.3s8.56-12.91,19.86-19.12C181,404.31,195.71,403.26,195.71,403.26ZM175,414.7c-11.17,6.22-15.72,20-15.72,20s7.3-11.62,17.27-16.95c9.59-6.09,22.58-6.66,22.58-6.66S185.91,408,175,414.7Z"/><path class="cls-1" d="M219.43,344.35s9-18.38,25.94-26.92,35.32-8.59,35.32-8.59a126.41,126.41,0,0,0-33.9,11.73A82.5,82.5,0,0,0,219.43,344.35Z"/><path class="cls-1" d="M223.07,350.52s7.83-15.7,22.37-23,30.38-6.71,30.38-6.71a106.26,106.26,0,0,0-29,9.86A74.72,74.72,0,0,0,223.07,350.52Z"/><path class="cls-1" d="M226.7,356.53s6.69-13,18.79-19.09S271,332.63,271,332.63a85.56,85.56,0,0,0-24.1,8A68.1,68.1,0,0,0,226.7,356.53Z"/><path class="cls-1" d="M230.34,362.72s5.54-10.33,15.21-15.17,20.53-2.92,20.53-2.92a65.31,65.31,0,0,0-19.2,6.09A64,64,0,0,0,230.34,362.72Z"/><path class="cls-1" d="M234,369.05s4.4-7.66,11.62-11.26,15.61-1,15.61-1A45.33,45.33,0,0,0,246.92,361,70.21,70.21,0,0,0,234,369.05Z"/><path class="cls-1" d="M281.17,298.48a111.08,111.08,0,0,1,39.57-39.59c26.89-15.54,52.86-10,52.86-10s-24.21-2.25-51.36,13.09S281.17,298.48,281.17,298.48Z"/><path class="cls-1" d="M285.83,306.15s12-23.64,37.13-38.32,50.1-11.25,50.1-11.25-23.5,0-48.56,14.31A122.72,122.72,0,0,0,285.83,306.15Z"/><path class="cls-1" d="M290.47,313.82s11.44-23.21,34.72-37.06a92.06,92.06,0,0,1,47.32-12.48,126.38,126.38,0,0,0-45.76,15.53C303.78,293.11,290.47,313.82,290.47,313.82Z"/><path class="cls-1" d="M295.12,321.5s10.81-22.8,32.29-35.8S372,272,372,272a156.7,156.7,0,0,0-43,16.75C308.13,301,295.12,321.5,295.12,321.5Z"/><path class="cls-1" d="M299.76,329.18s10.19-22.4,29.88-34.54,41.79-15,41.79-15-21.37,6.7-40.16,18S299.76,329.18,299.76,329.18Z"/><path class="cls-1" d="M445.33,367.07a116.09,116.09,0,0,1,31.57-47.2c23.47-20.86,50-21,50-21s-25,3.49-48,23.71A142,142,0,0,0,445.33,367.07Z"/><path class="cls-1" d="M451.85,373.78a108.09,108.09,0,0,1,29.42-45.45c22.3-20.28,47.06-21.63,47.06-21.63a112.72,112.72,0,0,0-45,24.31A133.65,133.65,0,0,0,451.85,373.78Z"/><path class="cls-1" d="M458.36,380.48a100.4,100.4,0,0,1,27.27-43.69c21.14-19.7,44.14-22.26,44.14-22.26a130,130,0,0,0-42,24.91C467.85,357.25,458.36,380.48,458.36,380.48Z"/><path class="cls-1" d="M464.87,387.19S470,364.36,490,345.24s41.19-22.88,41.19-22.88a158.53,158.53,0,0,0-39.07,25.51C473.82,364.47,464.87,387.19,464.87,387.19Z"/><path class="cls-1" d="M471.39,393.89s4.2-21.66,23-40.19,38.25-23.52,38.25-23.52a213.5,213.5,0,0,0-36.11,26.12C479.78,371.7,471.39,393.89,471.39,393.89Z"/><path class="cls-1" d="M379.41,218.37c-18.89-31.44-71.29-58.79-123.47-38.16-25.32,9.54-48.73,31.66-57.64,61.4-9.26,29-2.05,62.52,15.76,85.19a43.81,43.81,0,0,0-13.35,1.86,37.31,37.31,0,0,0-17.65,11.94c-7.15,8.35-10.07,20.76-10.44,21.73l-4.11.33c-3.22.2-6.35,1-9.48,1.49-25,5.55-45,23-54.08,42.9C95.63,427,96.4,449.57,104,466.42c7.46,17.09,19.9,28.8,32,36.55,25.06,15.84,49.3,14.1,66.19,13.19,34.71-3.29,47.18-8.82,48.63-9.46-1.45.44-14.33,4.9-48.76,6.85-16.89.27-40.36,1.19-64-14.36-11.49-7.6-23.12-18.91-29.93-34.88-6.94-15.71-7.56-36.38,1-54.92,8.42-18.47,27.09-34.93,50.71-40.34,3-.48,5.92-1.26,9-1.47l7-.63c.77-2.52,3.06-14.21,10.36-23.21,4-5,10.19-9.15,15.54-10.68a40,40,0,0,1,9.48-1.82,88.12,88.12,0,0,1,11.57.08c-1.6-2.12-4.85-6.17-4.85-6.17-17.86-21.55-25.39-54.06-16.64-82.45,8.25-28.59,30.66-50.42,55.32-60,50.79-20.84,102.91,5.24,122,36.18,19.54,29.32,16.07,54.44,16.34,56.88C394.9,273.28,398.75,248.21,379.41,218.37Z"/><path class="cls-1" d="M345.16,453.13s10.66-8.64,17.78-18.52c7.92-9.34,12-23.07,12-23.07s-1,15-9.48,25.26C357.7,447.42,345.16,453.13,345.16,453.13Z"/><path class="cls-1" d="M353.84,457.1s11.87-8.52,19.25-19.34c8.25-10.27,11.31-25.11,11.31-25.11s.1,16-8.76,27.26C367.55,451.57,353.84,457.1,353.84,457.1Z"/><path class="cls-1" d="M362.47,461.07s13.11-8.39,20.75-20.16c8.6-11.19,10.61-27.15,10.61-27.15s1.19,16.92-8,29.25C377.37,455.73,362.47,461.07,362.47,461.07Z"/><path class="cls-1" d="M371.05,465s14.33-8.27,22.24-21c8.94-12.11,9.91-29.18,9.91-29.18s2.28,17.89-7.31,31.24C387.12,459.88,371.05,465,371.05,465Z"/><path class="cls-1" d="M379.58,469s15.53-8.15,23.7-21.82c9.29-13,9.22-31.2,9.22-31.2s3.37,18.85-6.59,33.22C396.82,464,379.58,469,379.58,469Z"/><path class="cls-1" d="M388,473s16.76-8,25.2-22.65c9.62-13.94,8.52-33.24,8.52-33.24s4.45,19.81-5.87,35.22C406.47,468.18,388,473,388,473Z"/><path class="cls-1" d="M396.46,477s18-7.91,26.7-23.47c10-14.87,7.82-35.28,7.82-35.28s5.53,20.78-5.15,37.21C416.07,472.33,396.46,477,396.46,477Z"/><path class="cls-1" d="M404.87,480.93s19.2-7.78,28.17-24.3c10.31-15.78,7.13-37.31,7.13-37.31s6.61,21.74-4.42,39.2C425.65,476.48,404.87,480.93,404.87,480.93Z"/><path class="cls-1" d="M413.25,484.9s20.42-7.66,29.66-25.13c10.65-16.69,6.43-39.33,6.43-39.33s7.7,22.7-3.7,41.19C435.21,480.64,413.25,484.9,413.25,484.9Z"/><path class="cls-1" d="M421.61,488.87s21.65-7.54,31.15-25.95c11-17.62,5.74-41.37,5.74-41.37s8.78,23.67-3,43.19C444.75,484.79,421.61,488.87,421.61,488.87Z"/><path class="cls-1" d="M430,492.84s22.86-7.42,32.64-26.78c11.33-18.54,5-43.4,5-43.4s9.88,24.63-2.25,45.18C454.28,488.94,430,492.84,430,492.84Z"/><path class="cls-1" d="M643.43,195.07c-14.79.19-31.76,6.64-45.9,18.84-1.6,1.36-3.15,2.81-4.67,4.34a111.74,111.74,0,0,0-9.85-12,95.53,95.53,0,0,0-22.35-18c-34.09-20.34-76.89-7.17-99.58,11.44-23.64,19.48-29.83,41.6-29.88,41.12,0,.45,7.94-20.93,31.75-38.27,22.93-16.61,63.86-26.9,94.66-8.15A100.68,100.68,0,0,1,578.69,211c6.19,6.32,9.58,11.21,13.7,16.43,0,0,5.59-6.21,8.62-9,12.94-11.9,28.55-18.87,42.57-19.9,27.35-1.55,45.6,13,45.6,13S672.23,195.32,643.43,195.07Z"/><path class="cls-1" d="M709.32,464c-14-5.07-32-5-49.09,1.51q-2.88,1.08-5.73,2.44a121.34,121.34,0,0,0-5.63-14.85,103.63,103.63,0,0,0-15.59-24.95c-26-31.3-70.43-34-97.54-24.53-28.26,10-40.88,28.71-40.78,28.23-.14.42,13.91-16.95,41.68-24.87,26.73-7.56,68.52-2.74,91.88,25.88a108.81,108.81,0,0,1,14.81,23.21c3.91,8.16,5.62,14,7.9,20.37,0,0,7.18-3.86,10.89-5.42,15.87-6.64,32.73-7.68,46.28-3.68a76.23,76.23,0,0,1,39.1,28.45S736.45,474.45,709.32,464Z"/><path class="cls-1" d="M1139.77,325.18c.14.2-8.61-21-31.81-41.43-22.75-20.08-60.3-38.37-97.14-36.68a103,103,0,0,0-51.92,17.1c-7.78,4.83-14.63,10.79-21,16.64-3.1,3-7.71,8-10.59,10.92-2.5-1.8-5.69-5.14-9.38-8-24.65-19.68-46.79-15.08-46.79-15.08s22.19-6.07,48.11,12.88c4.08,3.18,7.69,6.33,7.69,6.33s5.65-6.43,8.72-9.65c6.32-6.2,13.18-12.56,21.1-17.77,15.53-10.86,34.75-17.83,53.86-18.56,38.63-1.69,76.55,18.49,98.93,39.9C1132.34,303.58,1139.9,325.41,1139.77,325.18Z"/><path class="cls-1" d="M806.82,322.7c12.11-30.44,36.34-46.26,36.34-46.26S816.49,290,803.85,321.29c-6.94,17.23-8.05,34.09-7.66,45.8q.7.9,1.38,1.8C797.94,357.39,799.86,340.17,806.82,322.7ZM877,303.75s-22.46,10.88-35,34.82c-6.7,12.75-9.2,26-10.07,35.58.47-.21,1-.39,1.44-.59a117.2,117.2,0,0,1,11.32-33.17A106.83,106.83,0,0,1,877,303.75Zm-8.54-6.83S845,308.46,832.38,334.25c-8.35,17.09-9.7,34.62-9.66,44.5l.82-.45A124.48,124.48,0,0,1,835.14,336,106.06,106.06,0,0,1,868.5,296.92Zm-42.84,34.62A105.76,105.76,0,0,1,860,290.1s-24.57,12.19-37.18,39.83c-10.86,23.81-9.08,47.81-8.38,54l.16-.11C814.54,377.61,815.09,354.73,825.66,331.54Zm-9.45-4.42a106.15,106.15,0,0,1,35.35-43.85s-25.62,12.85-38.24,42.34c-10.57,24.71-8.4,49.1-7.41,56.37l.24.47C805.88,375.93,805.74,351.74,816.21,327.12Zm84.33,37.15c1.4.15,2.78.34,4.17.53A151,151,0,0,1,929,344.71S913,351.57,900.54,364.27Zm-9.86-4.11c-.93,1.09-1.79,2.21-2.62,3.35,1.37,0,2.71.07,4.06.14.31-.38.6-.76.92-1.14a134.07,134.07,0,0,1,27.37-24.63S903.2,345.47,890.68,360.16Zm21-29.11s-18.26,8.25-30.8,24.79a63.64,63.64,0,0,0-5.08,7.94c1.22-.09,2.46-.17,3.68-.22,1.18-1.82,2.45-3.65,3.83-5.47A122.41,122.41,0,0,1,911.65,331.05ZM903,324.23s-19.3,8.9-31.86,27.29A73.42,73.42,0,0,0,864,365c1.07-.15,2.13-.32,3.19-.44a96,96,0,0,1,6.48-10.91A115.59,115.59,0,0,1,903,324.23Zm-8.67-6.83S874,327,861.39,347.21a80.54,80.54,0,0,0-8.73,20c.87-.21,1.75-.37,2.62-.57a105.4,105.4,0,0,1,8.66-17.36A111.23,111.23,0,0,1,894.31,317.4Zm-8.66-6.82s-21.41,10.22-34,32.31a88.24,88.24,0,0,0-9.74,27.4c.68-.23,1.36-.48,2.05-.7a110.6,110.6,0,0,1,10.31-24.77A108.28,108.28,0,0,1,885.65,310.58Z"/><path class="cls-1" d="M170.81,508.4s-25.28-4.22-44.19-26.85-14.24-51.84-14.24-51.84-.89,28.69,16.68,49.55S170.81,508.4,170.81,508.4Z"/><path class="cls-1" d="M186,508.8s-25.93-5.32-44.9-26.54S125.27,433,125.27,433s.65,27.43,18.18,46.92S186,508.8,186,508.8Z"/><path class="cls-1" d="M201.18,509.21S174.6,502.79,155.59,483s-17.43-46.77-17.43-46.77,2.2,26.16,19.68,44.29S201.18,509.21,201.18,509.21Z"/><path class="cls-1" d="M214.44,508.87s-25.3-6.78-44.37-25.19-19-44.23-19-44.23,3.73,24.89,21.17,41.66S214.44,508.87,214.44,508.87Z"/><path class="cls-1" d="M228.53,507.19s-24.77-5.79-43.89-22.8-20.6-41.7-20.6-41.7,5.26,23.63,22.66,39S228.53,507.19,228.53,507.19Z"/><path class="cls-1" d="M240.69,504.76s-22.3-4.05-41.48-19.67S177,445.93,177,445.93s6.8,22.37,24.15,36.41S240.69,504.76,240.69,504.76Z"/><path class="cls-1" d="M252.85,502.33a90.6,90.6,0,0,1-39.07-16.53C194.55,471.6,190,449.17,190,449.17s8.36,21.11,25.65,33.79S252.85,502.33,252.85,502.33Z"/><path class="cls-1" d="M299.09,500a97,97,0,0,1-19.23,1.65c-11.45-.06-26.29-1.93-39.63-9.21-13.2-6.29-25.11-17.26-31.44-27.64a43.1,43.1,0,0,1-6.94-19.23,44.15,44.15,0,0,0,8.26,18.21c6.82,9.6,18.75,19.43,31.48,25.5,12.69,7,27.13,9.71,38.37,10.63A115.65,115.65,0,0,0,299.09,500Z"/><path class="cls-1" d="M206.31,428.57a52.11,52.11,0,0,0,6.84,19.34A80.66,80.66,0,0,0,242.24,477c12.5,8.2,27.19,11.43,38.71,12.63a114.58,114.58,0,0,0,19.66.4,97.05,97.05,0,0,1-19.8,1.34c-11.75-.34-26.9-2.8-40.12-11.34a75.11,75.11,0,0,1-28.92-31.27A49.91,49.91,0,0,1,206.31,428.57Z"/><path class="cls-1" d="M210.76,411.58a62.17,62.17,0,0,0,5.43,20.47c4.9,11.33,14,24.2,26.7,32.73,12.31,9.37,27.25,13.16,39.05,14.63a112.06,112.06,0,0,0,20.19.7,96.89,96.89,0,0,1-20.37,1c-12.06-.62-27.5-3.67-40.61-13.47-13.33-9.12-22.11-22.95-26.4-34.91A59,59,0,0,1,210.76,411.58Z"/><path class="cls-1" d="M215.21,394.59a75.3,75.3,0,0,0,4,21.61c4,12.19,11.58,26.59,24.31,36.35,12.11,10.52,27.31,14.87,39.39,16.62a110.18,110.18,0,0,0,20.72,1,96.17,96.17,0,0,1-20.93.74c-12.37-.9-28.12-4.54-41.1-15.6-13.41-10.54-20.63-25.8-23.9-38.54S215.18,394,215.21,394.59Z"/><path class="cls-1" d="M305.17,460.23a97.41,97.41,0,0,1-21.49.44c-12.69-1.19-28.73-5.41-41.59-17.73-13.5-12-19.14-28.64-21.4-42.17s-1.11-23.88-1-23.16c-.12-.5-.36,9.68,2.62,22.73s9.17,29,21.92,40c11.91,11.69,27.35,16.6,39.71,18.62A108.9,108.9,0,0,0,305.17,460.23Z"/><path class="cls-1" d="M369.23,400.29c.2-.6,1,17.62-15.25,34.13-15.13,17.21-45.6,25.43-72,18.3-27.09-6.29-48.79-31.38-54.41-53.79-6.22-22.38-3-38.43-3.42-38.3.41-.16-1.5,16.16,5.71,37.43,6.74,21.39,27.86,43.64,53.27,49.58,25,6.68,53.85.41,69.24-15.15C368.81,417.69,369.48,399.82,369.23,400.29Z"/><path class="cls-1" d="M324.48,190.66a80,80,0,0,1,34.69,17.6c16,14.15,22.51,33.41,22.51,33.41S371.63,223.54,357.13,211,324.48,190.66,324.48,190.66Z"/><path class="cls-1" d="M318.78,197.11a73.63,73.63,0,0,1,31.84,15.67,71.73,71.73,0,0,1,19.94,28.46,114.24,114.24,0,0,0-22.14-25.86C334.88,204,318.78,197.11,318.78,197.11Z"/><path class="cls-1" d="M313.07,203.55a67.61,67.61,0,0,1,29,13.73c13.45,11.2,17.37,23.53,17.37,23.53a103.91,103.91,0,0,0-19.71-21A129.3,129.3,0,0,0,313.07,203.55Z"/><path class="cls-1" d="M307.35,210a61.36,61.36,0,0,1,26.16,11.79A54.52,54.52,0,0,1,350,243.35a105.21,105.21,0,0,0-19-19.12A125.81,125.81,0,0,0,307.35,210Z"/><path class="cls-1" d="M301.64,216.44A55.28,55.28,0,0,1,325,226.31a51.86,51.86,0,0,1,15.58,19.59,105.2,105.2,0,0,0-18.2-17.25A125.2,125.2,0,0,0,301.64,216.44Z"/><path class="cls-1" d="M295.93,222.9a49.63,49.63,0,0,1,21.48,8.9,42.15,42.15,0,0,1,13.7,16.87A98,98,0,0,0,315,234.28,122.66,122.66,0,0,0,295.93,222.9Z"/><path class="cls-1" d="M290.23,229.34a44.16,44.16,0,0,1,19.63,7.94c9.41,6.92,11.82,14.16,11.82,14.16s-4.33-4.6-14-11.53A122.76,122.76,0,0,0,290.23,229.34Z"/><path class="cls-1" d="M284.52,235.79a38.75,38.75,0,0,1,17.8,7,34.83,34.83,0,0,1,11.59,13.82,103.75,103.75,0,0,0-13.58-11A128.43,128.43,0,0,0,284.52,235.79Z"/><path class="cls-1" d="M278.82,242.24a33.31,33.31,0,0,1,15.95,6,37,37,0,0,1,11.38,13.49A103.72,103.72,0,0,0,293,251.16,143.55,143.55,0,0,0,278.82,242.24Z"/><path class="cls-1" d="M591.39,417s19.32,4.34,33.9,23.19a124.13,124.13,0,0,1,19.92,37.9,227.44,227.44,0,0,0-22.37-35.63A87.08,87.08,0,0,0,591.39,417Z"/><path class="cls-1" d="M584.91,425.14a64.4,64.4,0,0,1,32.68,22.26,109.66,109.66,0,0,1,18.53,36.79,187.62,187.62,0,0,0-21-34.52A85.21,85.21,0,0,0,584.91,425.14Z"/><path class="cls-1" d="M578.43,433.26a63.42,63.42,0,0,1,31.47,21.33A97.76,97.76,0,0,1,627,490.28a157.11,157.11,0,0,0-19.6-33.42A83.25,83.25,0,0,0,578.43,433.26Z"/><path class="cls-1" d="M572,441.38a62.4,62.4,0,0,1,30.25,20.41c12.44,15.83,15.74,34.58,15.74,34.58a132.41,132.41,0,0,0-18.19-32.32A81.45,81.45,0,0,0,572,441.38Z"/><path class="cls-1" d="M565.48,449.51s17.3,4.64,29,19.47,14.35,33.48,14.35,33.48a112,112,0,0,0-16.81-31.22A79.55,79.55,0,0,0,565.48,449.51Z"/><path class="cls-1" d="M559,457.62s16.8,4.73,27.82,18.55,13,32.37,13,32.37a95.37,95.37,0,0,0-15.41-30.11A78,78,0,0,0,559,457.62Z"/><path class="cls-1" d="M517.71,192.56a62.4,62.4,0,0,1,39.1,9.86,115.72,115.72,0,0,1,30.4,28.72,211.11,211.11,0,0,0-32-25.7A82,82,0,0,0,517.71,192.56Z"/><path class="cls-1" d="M514.08,202.53A61.28,61.28,0,0,1,551.74,212a102.5,102.5,0,0,1,28.75,28.16A175.56,175.56,0,0,0,550.12,215,80.15,80.15,0,0,0,514.08,202.53Z"/><path class="cls-1" d="M510.44,212.49a60.36,60.36,0,0,1,36.24,9,91.29,91.29,0,0,1,27.08,27.62,145.91,145.91,0,0,0-28.71-24.6A78.35,78.35,0,0,0,510.44,212.49Z"/><path class="cls-1" d="M506.81,222.46s18.2-2,34.79,8.53S567,258.06,567,258.06A123.3,123.3,0,0,0,540,234,76.6,76.6,0,0,0,506.81,222.46Z"/><path class="cls-1" d="M503.17,232.42s17.76-1.75,33.37,8.09S560.32,267,560.32,267a104.67,104.67,0,0,0-25.41-23.51A75,75,0,0,0,503.17,232.42Z"/><path class="cls-1" d="M499.54,242.39s17.3-1.5,31.93,7.64,22.12,26,22.12,26a89.16,89.16,0,0,0-23.75-23A73.28,73.28,0,0,0,499.54,242.39Z"/><path class="cls-1" d="M551.63,294.89s23.29-2.83,43.82,4c20.44,6.63,39.18,21.54,39.18,21.54s-20.38-11.85-40.11-18.21C574.84,295.61,551.63,294.89,551.63,294.89Z"/><path class="cls-1" d="M549.84,303.84s21.72-2.54,40.87,3.59C609.86,313.28,627.5,327,627.5,327s-19.18-10.6-37.66-16.21C571.43,304.83,549.84,303.84,549.84,303.84Z"/><path class="cls-1" d="M548,312.8s20.17-2.26,38,3.2c17.83,5.07,34.36,17.58,34.36,17.58s-18-9.36-35.2-14.22C568,314.07,548,312.8,548,312.8Z"/><path class="cls-1" d="M546.24,321.76s18.58-2,35,2.8c16.53,4.3,32,15.61,32,15.61s-16.76-8.12-32.74-12.22C564.62,323.29,546.24,321.76,546.24,321.76Z"/><path class="cls-1" d="M544.44,330.72s17-1.69,32.08,2.42c15.23,3.51,29.56,13.62,29.56,13.62s-15.57-6.87-30.29-10.23A232.49,232.49,0,0,0,544.44,330.72Z"/><path class="cls-1" d="M542.65,339.67s15.44-1.4,29.15,2c13.91,2.73,27.13,11.64,27.13,11.64a187.35,187.35,0,0,0-27.82-8.24C557.8,341.76,542.65,339.67,542.65,339.67Z"/><path class="cls-1" d="M939.65,388.73s23.29-2.84,43.82,4c20.44,6.64,39.19,21.54,39.19,21.54s-20.4-11.85-40.11-18.2C962.85,389.44,939.65,388.73,939.65,388.73Z"/><path class="cls-1" d="M937.86,397.68s21.71-2.55,40.87,3.58c19.15,5.86,36.79,19.56,36.79,19.56s-19.18-10.6-37.66-16.21C959.45,398.67,937.86,397.68,937.86,397.68Z"/><path class="cls-1" d="M936.06,406.64s20.15-2.27,38,3.19c17.83,5.08,34.36,17.58,34.36,17.58s-18-9.36-35.2-14.22C956,407.9,936.06,406.64,936.06,406.64Z"/><path class="cls-1" d="M934.26,415.6s18.58-2,35,2.8c16.52,4.3,32,15.6,32,15.6s-16.77-8.11-32.75-12.22C952.64,417.13,934.26,415.6,934.26,415.6Z"/><path class="cls-1" d="M932.46,424.55s17-1.69,32.08,2.42c15.23,3.52,29.55,13.63,29.55,13.63s-15.56-6.87-30.28-10.24A232.49,232.49,0,0,0,932.46,424.55Z"/><path class="cls-1" d="M930.66,433.51s15.45-1.41,29.15,2c13.93,2.74,27.14,11.65,27.14,11.65a186.76,186.76,0,0,0-27.82-8.25C945.82,435.59,930.66,433.51,930.66,433.51Z"/><path class="cls-1" d="M402.17,272s28.22,13,43.35,44.08a150,150,0,0,1,7.28,17.83l2.2-2.71a125.78,125.78,0,0,0-6.62-16.74C433.12,283,402.17,272,402.17,272Zm-4.58,5.69s26.18,12.75,40.32,42.22a152.84,152.84,0,0,1,8.89,23.57l1.89-3.21a121,121,0,0,0-7.91-21.94C426.53,288.54,397.59,277.69,397.59,277.69ZM393,283.38a93.48,93.48,0,0,1,37.29,40.36A152.38,152.38,0,0,1,440.86,355l1.52-3.4a119.42,119.42,0,0,0-9.19-29.37C419.94,294.07,393,283.38,393,283.38Zm18.31-22.76s32.31,13.6,49.42,47.8q2.58,5.19,4.71,10.38l2.43-2.4c-1.28-3.22-2.72-6.46-4.32-9.67C446.3,272,411.32,260.62,411.32,260.62Zm-32,39.83a85.11,85.11,0,0,1,28.19,34.78A142.86,142.86,0,0,1,417.83,373l.9.13c-.21-8.94-1.68-24.32-8.32-39.35C400.18,310.66,379.28,300.45,379.28,300.45Zm9.15-11.38a90.18,90.18,0,0,1,34.26,38.5,155.07,155.07,0,0,1,12.15,42.24l.87-2.5c-.74-10.52-3.1-26.07-10.11-41.24C413.35,299.6,388.43,289.07,388.43,289.07Zm18.31-22.76s30.27,13.32,46.39,45.95c2.28,4.61,4.26,9.25,6,13.82l2.24-2.79a127.24,127.24,0,0,0-5.38-12.7C439.71,277.47,406.74,266.31,406.74,266.31Zm-22.88,28.45a87.45,87.45,0,0,1,31.22,36.64,149.29,149.29,0,0,1,11.66,43.27l.64.15c-.08-9-1.35-27.19-9.37-44.89C406.76,305.13,383.86,294.76,383.86,294.76Zm70.08-18.4c-14.33-14.76-33.8-24.21-49.27-27-15.52-3.13-26.24-.71-26.24-.71s10.84-1.52,25.91,2.41c15.07,3.65,33.53,13.6,47.38,27.87,9.77,9.17,16.89,20.54,22.06,31.69l.17-.16,1.81-1.52C470.58,297.43,463.19,285.72,453.94,276.36Zm-93,46.85A88,88,0,0,1,377,350.55,122.48,122.48,0,0,1,383.32,376l1.05-.42A73.9,73.9,0,0,0,380,349.27,63.5,63.5,0,0,0,361,323.21Zm-4.58,5.69a98.72,98.72,0,0,1,13,25.49A118.56,118.56,0,0,1,375.09,380l.55-.34a67.38,67.38,0,0,0-3.2-26.55A63,63,0,0,0,356.39,328.9Zm9.15-11.38a83.86,83.86,0,0,1,19.1,29.21,125.83,125.83,0,0,1,7.06,26.79l1.23-.3a81,81,0,0,0-5.3-27.81A65,65,0,0,0,365.54,317.52Zm4.58-5.69a82.87,82.87,0,0,1,22.13,31.06,130.28,130.28,0,0,1,8,29.39l1.23-.08a88.75,88.75,0,0,0-6.25-30.66A67.11,67.11,0,0,0,370.12,311.83Zm4.59-5.69a83.4,83.4,0,0,1,25.15,32.92,134.93,134.93,0,0,1,9.08,33l1.15,0c-.29-8.43-1.73-21.55-7.27-34.42C393.59,316.19,374.71,306.14,374.71,306.14Z"/><path class="cls-1" d="M639.91,315.42c.2.12-15.8-15.43-44.7-23.93-28.34-8.38-69.56-8.65-102.59,9-16.42,8.65-30.84,22.44-41,38.36-5.28,7.82-9.3,16.26-12.92,24.4-1.68,4.14-4,10.65-5.55,14.62-3-.56-7.14-2.21-11.6-3.24-30-7.19-48.43,6.7-48.43,6.7s18-15.25,48.8-9.28c4.92,1.11,9.4,2.41,9.4,2.41s2.75-8.35,4.33-12.63c3.44-8.44,7.32-17.25,12.59-25.48,10.09-16.72,25-31.51,42.21-40.54,34.67-18.47,76.92-16.62,105.43-6.86C625,298.94,640.11,315.58,639.91,315.42Z"/><path class="cls-1" d="M270.71,369.89A75.86,75.86,0,0,1,280.28,409a77.54,77.54,0,0,1-11.52,38.73,61.93,61.93,0,0,0,1.95-77.81Zm7-4.86A79.57,79.57,0,0,1,289,407.12c-.36,24.87-12.3,41.34-12.3,41.34s15.07-15.44,15.48-41A67.19,67.19,0,0,0,277.72,365Zm6.73-5s13.29,18.44,13.19,45.29-13.07,44-13.07,44,16.12-16.18,16.24-43.68A72.11,72.11,0,0,0,284.45,360Zm6.92-5.46s13.95,19,14.61,46.75-12.1,47.39-12.1,47.39,15.9-18.79,15.23-47.26A76.71,76.71,0,0,0,291.37,354.53Zm26,42.74A82.52,82.52,0,0,0,298,348.69a95.79,95.79,0,0,1,16.34,48.6,102.31,102.31,0,0,1-11.13,50.82S318.86,426.72,317.41,397.27Zm8.3-5c-2.28-30.09-21.5-49.53-21.5-49.53a98.92,98.92,0,0,1,18.39,49.69,106.11,106.11,0,0,1-9.45,51.95A89.08,89.08,0,0,0,325.71,392.31Zm8.3-5c-3.11-30.73-23.92-50.86-23.92-50.86s17.75,21.16,20.79,51.17-7.78,53.08-7.78,53.08S337.11,418.07,334,387.34Zm-18.82-57a99.38,99.38,0,0,1,23,48.81c4.64,29.58-4.83,55.41-4.83,55.41s12.68-25.64,7.93-55.93S315.19,330.3,315.19,330.3Zm4.78-6.54a96.29,96.29,0,0,1,25.52,46.83c6.25,29.14-1.91,57.73-1.91,57.73s11.38-28.63,5-58.49S320,323.76,320,323.76Zm4.3-6.47s19.81,16.06,27.66,44.77.59,56,.59,56S363,390.5,355,361.08,324.27,317.29,324.27,317.29Zm37.16,35c-9.69-29-33.46-41.75-33.46-41.75s20.95,14.67,30.42,42.95a107.37,107.37,0,0,1,3.06,54.2S371.11,381.31,361.43,352.33Zm-97.74,22a72.55,72.55,0,0,1-1.15,68.89h.71a57.52,57.52,0,0,0,11.69-32A59,59,0,0,0,263.69,374.36Z"/><path class="cls-1" d="M1005.07,633.74s2.61-17.57,13-30.94,25-21,25-21A276.66,276.66,0,0,0,1020.59,605C1010.86,616.66,1005.07,633.74,1005.07,633.74Z"/><path class="cls-1" d="M996.88,634.11s1.27-18.4,11.56-33.37,25.71-23.18,25.71-23.18-13.58,12.08-23.17,25.31S996.88,634.11,996.88,634.11Z"/><path class="cls-1" d="M988.7,634.48s-.08-19.22,10.07-35.8,26.43-25.39,26.43-25.39-14.37,12.58-23.84,27.4S988.7,634.48,988.7,634.48Z"/><path class="cls-1" d="M980.52,634.85s-1.42-20.05,8.58-38.23S1016.26,569,1016.26,569s-15.18,13.09-24.51,29.51S980.52,634.85,980.52,634.85Z"/><path class="cls-1" d="M972.42,635.22s-2.78-20.88,7.08-40.66,27.88-29.84,27.88-29.84-16,13.6-25.16,31.63S972.42,635.22,972.42,635.22Z"/><path class="cls-1" d="M964.4,635.58s-4.12-21.7,5.6-43.09,28.6-32,28.6-32-16.77,14.11-25.83,33.73S964.4,635.58,964.4,635.58Z"/><path class="cls-1" d="M956.49,635.94s-5.47-22.53,4.1-45.51,29.34-34.28,29.34-34.28-17.58,14.61-26.5,35.84S956.49,635.94,956.49,635.94Z"/><path class="cls-1" d="M948.64,636.29s-6.81-23.35,2.62-47.93,30.06-36.51,30.06-36.51S962.94,567,954.15,589.8,948.64,636.29,948.64,636.29Z"/><path class="cls-1" d="M940.85,636.65s-8.15-24.18,1.13-50.37a78.27,78.27,0,0,1,30.78-38.72s-19.17,15.64-27.83,40.05S940.85,636.65,940.85,636.65Z"/><path class="cls-1" d="M933.11,637s-9.51-25-.36-52.79a79.5,79.5,0,0,1,31.5-40.94s-20,16.15-28.49,42.16S933.11,637,933.11,637Z"/><path class="cls-1" d="M925.41,637.34s-10.85-25.82-1.85-55.21S955.79,539,955.79,539,935,555.62,926.63,583.23,925.41,637.34,925.41,637.34Z"/><path class="cls-1" d="M1028.8,504.28s3.24-21,16.59-34.45,30.9-20.3,30.9-20.3a165.45,165.45,0,0,0-28.63,22.79C1034.39,485.83,1028.8,504.28,1028.8,504.28Z"/><path class="cls-1" d="M1034.07,508.87s2.78-17.87,14.37-29.49,26.8-16.82,26.8-16.82a134.89,134.89,0,0,0-24.56,19.32C1039.06,493.64,1034.07,508.87,1034.07,508.87Z"/><path class="cls-1" d="M1039.34,513.48s2.31-14.72,12.14-24.57,22.7-13.33,22.7-13.33a103.84,103.84,0,0,0-20.47,15.87A67.82,67.82,0,0,0,1039.34,513.48Z"/><path class="cls-1" d="M1044.63,518.07s1.83-11.55,9.9-19.61a38.34,38.34,0,0,1,18.59-9.85,74.06,74.06,0,0,0-16.38,12.4A60.17,60.17,0,0,0,1044.63,518.07Z"/><path class="cls-1" d="M1049.9,522.67a29.67,29.67,0,0,1,7.68-14.68,22.7,22.7,0,0,1,14.48-6.35s-5.57,2.38-12.3,8.92A60.41,60.41,0,0,0,1049.9,522.67Z"/><path class="cls-1" d="M1330.2,579.81c-12-19.43-41.81-38.42-79-36.68a133.54,133.54,0,0,0-14,1.71c-4.93,1-10.71,2.69-10.71,2.69.31-10.06.18-20.55-2.2-30.92a104.15,104.15,0,0,0-33.52-59.42c-34.39-30.73-87.89-43.75-130.71-20.79a90.45,90.45,0,0,0-45,56.29,102.7,102.7,0,0,0-3.22,34.55,46.5,46.5,0,0,0-24.16-7.72C975.87,519.2,964.6,524.44,956,532l-.79.68A88.68,88.68,0,0,0,944.5,527a73.42,73.42,0,0,0-15.45-4.67A69.53,69.53,0,0,0,872.51,537c-30.26,25.7-31.52,66.59-21.65,86.85,9.15,21.6,20.92,28.62,20.92,28.62s-11.54-7.47-20-29c-9.24-20.29-6.72-59.87,22.64-83.64A66.13,66.13,0,0,1,928.28,527a78.43,78.43,0,0,1,14.44,4.67,77.4,77.4,0,0,1,13,7.33c1.3-1.07,3.34-2.82,3.34-2.82,8.08-6.8,18.18-11.2,28.58-10.78,5.17.18,9.17,1.07,15.15,3.69s12.63,8.72,16.49,12.64c0,0-.35-2-1.28-12.12a103.54,103.54,0,0,1,3.07-35,84.34,84.34,0,0,1,41.89-52c40-21.51,91-9.95,124.45,19.14a98.93,98.93,0,0,1,32.6,55.85c2.62,10.51,2.8,21.23,2.63,31.49l-.17,4.15c3.41-1.56,13.15-4.22,15.42-4.7,4.52-1.15,9.07-1.45,13.51-2,36.07-2.56,65.74,15.11,78,33.85,12.2,17.84,10.47,33.86,10.47,33.86S1342.1,598.34,1330.2,579.81Z"/><path class="cls-1" d="M1075.53,597.35a56.77,56.77,0,0,1,38.54,14.82c17.35,16.07,20.49,38.48,20.49,38.48s-5.73-20.21-22.61-35.84A68.39,68.39,0,0,0,1075.53,597.35Z"/><path class="cls-1" d="M1079.75,588A59.52,59.52,0,0,1,1120,603.29c18.1,16.58,21.44,40,21.44,40s-5.88-21.16-23.54-37.36A70.89,70.89,0,0,0,1079.75,588Z"/><path class="cls-1" d="M1084,578.69a62.32,62.32,0,0,1,41.91,15.72c18.88,17.1,22.39,41.53,22.39,41.53s-6-22.11-24.48-38.88A73.38,73.38,0,0,0,1084,578.69Z"/><path class="cls-1" d="M1088.19,569.35s24-1.46,43.59,16.17,23.34,43.07,23.34,43.07-6.19-23.06-25.42-40.4A75.8,75.8,0,0,0,1088.19,569.35Z"/><path class="cls-1" d="M1092.41,560s24.86-1.53,45.27,16.62,24.3,44.59,24.3,44.59-6.33-24-26.36-41.91A78.31,78.31,0,0,0,1092.41,560Z"/><path class="cls-1" d="M1096.63,550.69s25.79-1.61,47,17.06,25.26,46.13,25.26,46.13-6.5-25-27.32-43.43A80.78,80.78,0,0,0,1096.63,550.69Z"/><path class="cls-1" d="M1100.85,541.36s26.7-1.69,48.64,17.51,26.21,47.66,26.21,47.66-6.65-25.92-28.25-45S1100.85,541.36,1100.85,541.36Z"/><path class="cls-1" d="M1151.48,450.64a82.33,82.33,0,0,1,33.5,20.11c15.44,15.38,20.35,35,20.35,35s-6.44-16.35-22.57-32.44S1151.48,450.64,1151.48,450.64Z"/><path class="cls-1" d="M1143.42,456a77.91,77.91,0,0,1,31.81,19c14.54,14.52,19.2,33.21,19.2,33.21s-6.27-15.55-21.43-30.67S1143.42,456,1143.42,456Z"/><path class="cls-1" d="M1135.37,461.4a73.24,73.24,0,0,1,30.09,17.84c13.66,13.64,18.08,31.42,18.08,31.42a99.24,99.24,0,0,0-20.3-28.88C1149.06,467.64,1135.37,461.4,1135.37,461.4Z"/><path class="cls-1" d="M1127.32,466.77a68.49,68.49,0,0,1,28.38,16.72c12.77,12.76,17,29.64,17,29.64A96.19,96.19,0,0,0,1153.47,486,104.85,104.85,0,0,0,1127.32,466.77Z"/><path class="cls-1" d="M1119.26,472.15a64.06,64.06,0,0,1,26.68,15.59c11.88,11.89,15.81,27.86,15.81,27.86a92.93,92.93,0,0,0-18-25.32A102.36,102.36,0,0,0,1119.26,472.15Z"/><path class="cls-1" d="M1111.22,477.52a59.53,59.53,0,0,1,25,14.47c11,11,14.69,26.08,14.69,26.08A90.38,90.38,0,0,0,1134,494.52,100.82,100.82,0,0,0,1111.22,477.52Z"/><path class="cls-1" d="M1103.16,482.9a55,55,0,0,1,23.25,13.33c10.11,10.14,13.55,24.31,13.55,24.31a87.32,87.32,0,0,0-15.77-21.77A98.28,98.28,0,0,0,1103.16,482.9Z"/><path class="cls-1" d="M1095.11,488.27s12.32,3,21.54,12.21S1129.07,523,1129.07,523a85.22,85.22,0,0,0-14.64-20A97.78,97.78,0,0,0,1095.11,488.27Z"/><path class="cls-1" d="M1087.05,493.65s11.51,2.69,19.83,11.08,11.3,20.75,11.3,20.75a83.23,83.23,0,0,0-13.51-18.21A97.47,97.47,0,0,0,1087.05,493.65Z"/><path class="cls-1" d="M1234.61,564.51s18.54,3.33,31.54,18.76,18,33.8,18,33.8a156.68,156.68,0,0,0-20.41-31.42A75.38,75.38,0,0,0,1234.61,564.51Z"/><path class="cls-1" d="M1232.4,572.76s15.84,3,27,16.22,14.92,29.3,14.92,29.3a126.77,126.77,0,0,0-17.3-26.94A68.54,68.54,0,0,0,1232.4,572.76Z"/><path class="cls-1" d="M1230.29,581a44.13,44.13,0,0,1,22.47,13.7c9.37,11,11.79,24.79,11.79,24.79A96.56,96.56,0,0,0,1250.36,597,63.18,63.18,0,0,0,1230.29,581Z"/><path class="cls-1" d="M1228,589.25a36.88,36.88,0,0,1,18,11.18c7.54,8.83,8.64,20.27,8.64,20.27a67.86,67.86,0,0,0-11.07-18A61.28,61.28,0,0,0,1228,589.25Z"/><path class="cls-1" d="M1225.78,597.5a29.58,29.58,0,0,1,13.42,8.65c5.73,6.63,5.52,15.76,5.52,15.76a42.28,42.28,0,0,0-8-13.48A77.51,77.51,0,0,0,1225.78,597.5Z"/></svg>