<svg id="Layer_1" data-name="Layer 1" xmlns="http://www.w3.org/2000/svg" viewBox="0 0 547.07 884.8"><defs><style>.cls-1{fill:none;}.cls-2{fill:#9b7d0d;}</style></defs><path class="cls-1" d="M275.45,424.18c-5.58,42.87-11.66,89.61-17.31,132.93h64.57c-5.63-43.32-11.72-90.06-17.32-132.93Z"/><path class="cls-1" d="M278,404.61h24.84c-1.94-15-3.81-29.3-5.56-42.61H283.56C281.83,375.31,280,389.61,278,404.61Z"/><path d="M290.43,215.28a18.39,18.39,0,1,0,18.38,18.38A18.39,18.39,0,0,0,290.43,215.28Z"/><path d="M325.12,424.18h16.46V404.61h-19L317,362H297.29c1.75,13.31,3.62,27.61,5.56,42.61H278c2-15,3.82-29.3,5.55-42.61H263.85l-5.57,42.61h-19v19.57h16.49L238.42,557.11H219.55v19.55h16.32l-16.5,126.58q10.37-4,20.77-7.94c3.2-24.58,8.9-68.3,15.46-118.64h69.68l11.07,85q9.45-3,18.93-6l-10.28-79h16.31V557.11H342.45Zm-67,132.93c5.65-43.32,11.73-90.06,17.31-132.93h29.94c5.6,42.87,11.69,89.61,17.32,132.93Z"/><path class="cls-2" d="M258.3,233.66a30,30,0,0,1,.54-5.64l-89.58-37.11v85.5c11.92-4.91,61.17-25.33,89.58-37.1A30,30,0,0,1,258.3,233.66Z"/><path class="cls-2" d="M238.8,204.85l11.69,4.85c2.27.94,4.47,1.84,6.59,2.73l7,2.91a32.56,32.56,0,0,1,8-8c-11.75-28.38-32.16-77.64-37.09-89.55l-60.47,60.47,59.21,24.51Z"/><path class="cls-2" d="M252.16,308.11c6.89-16.65,14.35-34.67,19.92-48.09a32.69,32.69,0,0,1-8-8L174.52,289.1C185.1,299.71,224.41,339,235,349.55Z"/><path class="cls-2" d="M316.77,215.34l89.55-37.1-60.45-60.47-37.08,89.55A33,33,0,0,1,316.77,215.34Z"/><path class="cls-2" d="M290.43,201.55a29.26,29.26,0,0,1,5.65.54c11.76-28.4,32.18-77.68,37.1-89.58h-85.5c4.9,11.9,25.33,61.18,37.1,89.55A31.58,31.58,0,0,1,290.43,201.55Z"/><path class="cls-2" d="M308.79,260l37.08,89.53,60.45-60.45L316.77,252A33.35,33.35,0,0,1,308.79,260Z"/><path class="cls-2" d="M284.5,354.83h48.68c-4.92-11.89-25.34-61.17-37.1-89.56a33.82,33.82,0,0,1-5.65.52,34.6,34.6,0,0,1-5.65-.51c-11.77,28.38-32.2,77.66-37.1,89.55H284.5Z"/><path class="cls-2" d="M322,228a30.33,30.33,0,0,1,0,11.29c28.39,11.77,77.66,32.19,89.56,37.1v-85.5Z"/></svg>