<svg id="Layer_1" data-name="Layer 1" xmlns="http://www.w3.org/2000/svg" viewBox="0 0 481.42 637.53"><defs><style>.cls-1{fill:#cfad67;}.cls-2{fill:#9b7d0d;}.cls-3{fill:#fff;}.cls-4{fill:#c6ac30;}.cls-5{fill:#231f20;}</style></defs><rect class="cls-1" x="321.99" y="179.88" width="3.77" height="321.81"/><path class="cls-2" d="M343.45,514.92c0,17.22-8.76,25.46-19.57,25.46s-19.57-8.24-19.57-25.46,18.3-38.69,19.57-42.71C326.89,479.58,343.45,497.68,343.45,514.92Z"/><path class="cls-3" d="M334.87,499.65c4.52,12.77,1.67,27-6.34,31.65-4,2.36-8.56,1.91-12.66-.75,4.82,5,10.85,6.71,16,3.68,7.91-4.64,10.72-18.62,6.26-31.22a28.27,28.27,0,0,0-8.05-12.32A31.73,31.73,0,0,1,334.87,499.65Z"/><path class="cls-2" d="M389.1,173.56c0,45.54-29.87,82.46-66.69,82.46s-66.68-36.92-66.68-82.46,29.84-82.47,66.68-82.47S389.1,128,389.1,173.56Z"/><path class="cls-4" d="M322.41,259.79c-38.85,0-70.46-38.68-70.46-86.23s31.61-86.24,70.46-86.24,70.46,38.68,70.46,86.24S361.26,259.79,322.41,259.79Zm0-164.93c-34.69,0-62.91,35.3-62.91,78.7s28.22,78.68,62.91,78.68,62.91-35.3,62.91-78.68S357.1,94.86,322.41,94.86Z"/><path class="cls-3" d="M362.45,165.9c0,30-19.64,54.26-43.87,54.26s-43.88-24.3-43.88-54.26,19.65-54.25,43.88-54.25S362.45,135.94,362.45,165.9Z"/><path class="cls-5" d="M143.6,320.2l.79-.05.5.05h.67l.62-.05H147l.74.05H151l.79-.05h.5l.62.05h1.41l.78-.05h.62l.62.05H157l.61-.05h.68l.73.05.5-.05H163l.62.05.73-.05.73.05.5-.05.79.05.56-.05.79.62-.06.67-.17.62-.67.73-.79-.06-.62.06-.61-.06-.79.06-.56-.06-.73.06h-1.46l-.62-.06-.56.06-.84-.06h-.51l-.73.06-.73-.06-.67.06h-.79l-.5-.06h-2.7l-.67.06h-4.78l-.84-.06-.67.06h-1.35l-.5-.06-.79.06h-.62l-.73-.06h-1.46l-.56-.67.06-.68-.11-.67.11-.67-.06-.62-.11-.68.11-.73-.11-.67.17-.73V316l-.17-.67v-.73l.17-.62v-.73l-.11-.61.05-.68v-.73l-.05-.62.11-.73-.11-.67-.06-.62.17-.73v-.73l-.06-.67-.11-.62v-2.07l.11-.62-.11-.73.11-.68-.11-.67.17-.62-.06-.67-.11-.68.17-.73-.06-.73.06-.61v-.73l-.06-.62.06-.73-.17-.67.17-.62-.17-.73v-.62l.17-.73-.17-.62v-1.4l.06-.62v-.78l-.06-.68v-.67l.17-.62v-1.35l-.17-.73.67-.61h.73l.79-.06.56.06H143l.67-.06.56.06.68-.06.61.06.79-.06.67.06h2l.73-.06.56.06.68-.06.73.06.62-.06.61.06.79-.06.51.06.78-.06.56.06h2.81l.62-.06.78.06h.62l.73-.06.68.06h.61l.57-.06.73.06h2.69l.67.56-.05.73-.06.61-.95.68-.51-.06-.67.06H164l-.73-.06-.62.06H160l-.78-.06-.68.06L158,286h-3.48l-.79.06-.51-.06h-1.51l-.56.06h-1.3L149,286h-.62l-.61.06h-1.4l-.62-.06H145l-.56.06-.73-.06-.79.06-.62.67.11.62v.79l-.05.67.05.62-.11.73.06.73-.06.67.06.62-.06.73.06.67v.73l-.11.62.16.67-.11.73.11.73-.05.68-.11.61.11.68-.11.78v.62l.73.68.78.05.62-.05.73.05h.62l.61-.05H149l.78.05.68-.05h4l.85.05h.5l.67-.05h.74l.72.05h.62l.62-.05h3.54l.62.05h1.4l.67.62v.67l-.11.57-.5.67h-.68l-.84.06h-.67l-.51-.06-.9.06h-1.29l-.67-.06-.68.06-.73-.06h-.67l-.68.06-.56-.06-.78.06-.68-.06-.61.06-.68-.06-.62.06-.78-.06-.56.06h-1.41l-.67-.06-.79.06-.5-.06-.68.06-.72-.06h-2.08l-.67.06H143l-.73.61.06.73.05.68-.11.72.06.62-.06.73.06.68v2.07l.05.62-.11.68v.78l-.05.62.05.67.06.73-.06.68-.05.73v1.29l.11.73v1.4l.73.62Z"/><path class="cls-5" d="M202.17,322.79l-1-.62-.45-.5-.44-.51-.45-.56-.23-.56-.5-.51-.51-.5-.34-.51-.5-.62-.28-.45-.51-.62-.33-.44-.45-.62-.57-.45-.22-.56-1-1.07-.33-.56-.45-.56-.45-.51-.39-.56-.51-.45-.45-.61-.34-.51-.33-.51-.56-.56-.45-.5-.28-.56-.4-.51-.45-.51-.5-.61-.45-.45-.39-.56h-.85l-.28.5-.5.51-.45.56-.34.56-.45.56-.5.51-.4.56-.45.45-.33.62-.34.5-.62.56-.39.51-.39.5-.45.57-.4.5-.44.51-.4.62-.39.5-.5.51-.23.5-.45.62-.56.44-.73,1.07-.56.62L176,319l-.39.56-.45.56-.39.56-.34.45-.45.57-.39.56-1.18.56-.67-.06-.68.06h-.73l-.33-.51.44-.61.57-.51.73-1.07.44-.5.45-.45.45-.56.45-.57.34-.5.51-.56.33-.51L175,316l.39-.56.45-.56.4-.45.44-.61.51-.51.39-.5.45-.57.45-.45.28-.61.56-.51.34-.45.39-.56.4-.56.44-.51.34-.5.5-.51.4-.5.5-.57.28-.5.56-.56.4-.56.39-.51.45-.45.28-.56.11-1.06-.56-.57-.28-.5-.45-.45-.28-.62-.45-.45-.9-1.07-.45-.56-.28-.45-.56-.56-.34-.5-.39-.51-.5-.56-.22-.56-.45-.51-.56-.56-.29-.45-.39-.56-.56-.5-.22-.56-.85-1-.56-.57-.39-.5-.4-.51-.28-.56-.45-.45-.5-.56-.45-.56-.39-.45-.45-.56-.28-.56-.34-.51-.39-.45-.62-.62.45-.44h1.23l.79-.06.95.56.57.5.28.57,1,1.06.23.51.56.5.39.57.28.56.45.56.45.45.33.62.51.45.5.61.29.51.56.56.33.45.45.56.45.56.23.51.5.56.34.5.45.56.45.57.33.5.57.56.33.51,1,1.07.39.5.28.56.56.56h.68l.39-.61.51-.51.44-.56.4-.45.45-.56.28-.51.45-.62.39-.44.5-.62.34-.45.51-.62.33-.45.4-.61.33-.51.57-.5.73-1.07.56-.56.28-.56.39-.51.56-.5.28-.51.45-.56.45-.56.45-.57.34-.44.39-.62.45-.45.39-.62.51-.45.39-.62,1.12-.5.51.06H203l.61-.06.28.62-.45.5-.5.56-.28.51-.45.5-.51.57-.44.5-.45.56-.28.56-.56.57-.4.45-.28.56-.5.56-.34.56-.39.51-.57.56-.44.56-.23.5-.62.51-.28.56-.5.56-.28.56-.57.51-.33.56-.51.5-.45.51-.45.56-.33.51-.34.56-.45.5-.45.57-.95,1.06-.23.56-.62.51.17,1.12.34.51.34.56.5.5.51.51.33.56.45.45.34.56.56.56.39.51.34.5.34.51.39.5,1,1.07.45.56.44.51.85,1,.22.56.4.56.5.51.51.56.22.45.56.61.28.51.62.5.34.51.73,1,.45.56.56.56.22.51.39.56.62.45.34.51.33.61-.11.51Z"/><path class="cls-5" d="M236.55,284.78l-.28.56-.62.67H234.3l-.73.06h-1.46l-.67-.06h-.67l-.68.06h-1.4l-.62-.06-.73.06-.56-.06-.62.06h-3.54l-.72.62.16.67-.16.67v.73l.11.62.05.62v.67l-.05.73-.11,1.35.16.62-.11.73v.61l.06.68v.67l.05.67V298l-.16.73,0,.62.06.73-.06.67.11.56-.16.73,0,.68.11.67V304l-.05.67-.06.73.06.67.11.67-.11.68v.62l.11.67-.11.62v.73l.11.62v.67l-.11.73v1.29l.05.68.06.67v.67l-.11.68v.61l-.06.73.17.68v.67l-.17.62.17.67-.17.62.11.67-.05.68-.56.67-.68.06h-.84l-.56-.68v-.73l-.11-.61.05-.73-.05-.57v-.67l.11-.67-.06-.73v-.68l.06-.61v-.73l-.17-.68V314l.17-.56v-1.35l-.17-.67.11-.68.06-.67v-.68l-.11-.73-.06-.67.17-.56-.17-.68.11-.73-.05-.61.05-.67V304l-.05-.68.05-.61-.11-.73v-.68l.11-.62-.05-.61v-.68l.11-.67-.17-.68v-.67l.06-.68-.06-.67.06-.67-.06-.68.11-.67-.05-.67.05-.62-.11-.73.11-.67v-.62l.06-.67-.17-.73V288l.11-.67v-.62l-.67-.73-.62.06h-.67l-.85-.06-.67.06h-.56l-.73-.06-.68.06h-.73l-.61-.06-.79.06L211,286l-.62.06-.56-.06h-.73l-.68.06h-2l-.67-.06-.73-.62V284.1l.67-.67H207l.56.06.84-.06.56.06.79-.06.51.06.83-.06h.68l.56.06.78-.06h3.26l.67.06.79-.06.68.06h.56l.73-.06h1.91l.67.06h.67l.73-.06.73.06.57-.06h.73l.56.06h.84l.56-.06.79.06h.62l.56-.06h.84l.51.06h.78l.73-.06h.67l.51.06.84-.06h.67l.68.06.56.61Z"/><path class="cls-5" d="M270.2,322.73l-.62.06H269l-1.12-.56-.23-.62-.33-.51-.56-.61-.34-.57-.28-.45-.84-1.12-.4-.56-.17-.56-.56-.56-.28-.62-.45-.5-.39-.62-.17-.56-.56-.51-.34-.5-.62-1.13-1.12-1.68-.39-.62-.4-.51-.5-.56-.22-.5-.45-.56-.29-.57-.39-.61-1-.57h-4.21l-.56.06-.79-.06h-.62l-.56.06h-.73l-.73-.06h-.56l-.67.06h-.79l-.62-.06-.61.06h-.62l-.84.62.17.73-.06.62.06.67-.06.62-.11.73.17.67v1.29l-.11.74-.06.67.17.62v.61l-.11.68.05.67-.11.67v.73l.11.62.06.67v.68l-.17.67.06.62.05.73-.11.62-.67.67-.45.06h-.73l-.68-.68-.11-.67.11-.67-.05-.68-.06-.73.11-.67-.11-.62.17-.79-.11-.67v-1.29l.05-.73v-2l.06-.62-.11-.67.11-.68v-.73l-.17-.61.06-.68.11-.78-.17-.62.11-.68-.05-.72.11-.62v-.73l-.06-.62v-.73l.06-.62-.17-.73.17-.67-.11-.62.11-.73V299l-.06-.68-.05-.67.05-.73.06-.67v-.68l-.11-.62.05-.72-.11-.62.17-.67v-.68l-.17-.67.11-.68.06-.67-.17-.73.17-.62-.11-.73.05-.73.06-.62-.11-.73-.06-.67.06-.62-.06-.73.67-.61h.85l.67-.06h1.4l.51.06.67-.06h2.92l.56.06.79-.06.67.06.62-.06.67.06.79-.06.5.06.79-.06.79.06h.61l.57-.06h2.19l2.07.11.62.06.67.11.62.05.84.17.57.23.56.28.67.22.68.28.5.4.68.33.5.45.62.45.44.51.4.56.45.51.22.56.28.62.28.67.34.56.17.73.05.68.23.61.05.73.12.62.05,1.35-.05.72-.17.68-.17.56V298l-.33.62-.17.56-.29.62-.16.67-.34.56-.45.57-.39.45-.45.56-1,.9-.5.33-.51.39-.67.4-.51.28-.67.22-.51.22-.84.17-.45.17-.68.17-.84.11-.28.68.34.5.5.62.28.56.51.56.39.56.28.51.51.56.34.51.33.56.34.62.45.56.45.5.34.62.28.51.5.62.34.5.22.62.4.56.45.56.45.5.22.62.39.45.45.62.28.56.51.56.28.51.5.62.22.56-.11.5Zm-26.5-34,.05.62-.11.73.11.62-.05.67.05.68-.11.67v.73l.17.62-.11.73v.67l.11.67-.06.68-.11.67.06.62-.06.67.11,1.35-.11.73.17.68-.11.61.11.68.67.73h.62l.56-.06h2.69l.79.06h.61l.73-.06h1.35l.68.06h.61l.57-.06h.78l.56.06.74-.06h1.29l.61.06,1.35-.06h.79l.61,0,.79-.17.56-.12.73-.11.56-.28.62-.22.79-.34.39-.39.56-.34L266,301l.4-.56.39-.5.34-.56.28-.62.33-.62.17-.67.17-.62.11-.73v-.68l0-1.29,0-.67-.28-.62-.06-.67-.16-.67-.28-.62-.17-.56-.45-.62-.34-.51-.5-.56-.34-.45-.62-.39-.5-.34-.57-.34-.56-.28-.67-.22-.56-.17-.79-.17-.73-.17H260l-.51-.05L258,286h-2.69l-.62.06h-1.46l-.62-.06h-1.23l-.9.06h-1.18l-.79-.06-.56.06-.84-.06h-.67l-.62.06h-1.29l-.78.62Z"/><path class="cls-5" d="M305.92,321.5l-.4-.62-.11-.56-.45-.68-.28-.61-.06-.62-.27-.56-.45-.57-.12-.67-.33-.62-.28-.56-.34-.61-.22-.68-.17-.56L302,313l-.78-.61-.84-.06-.68.06h-.5l-.73-.06-.62.06-.84-.06-.68.06-.67-.06h-.51l-.67.06H293l-.67-.06-.67.06-.51-.06h-.73l-.78.06h-.73l-.57-.06h-4.71l-.79.06h-.67l-.51-.06h-1.4l-.95.67-.4.57-.05.61-.45.62-.17.62-.34.61-.22.62-.34.67-.11.51-.34.67-.33.62-.12.56-.39.62-.17.68-.28.56-.39.67-.9.56h-.84l-.62.06-.51-.68.23-.61.22-.62.45-.56.23-.62.16-.67.29-.62.22-.62.45-.56.28-.62L275,316l.28-.61.22-.56.29-.68.39-.61.22-.62.17-.56.4-.62.16-.62.4-.62.17-.67.16-.62.34-.56.28-.68.34-.5.11-.62.28-.67.45-.62.22-.62.28-.56.12-.61.45-.62.27-.62.17-.67.28-.57.23-.61.33-.62.28-.67.28-.62.12-.62.39-.56.23-.62.33-.56.11-.68.29-.56.33-.67.4-.62.28-.56.05-.67.45-.62.23-.56.33-.67.06-.62.34-.62.22-.56.45-.62.17-.56.17-.62.45-.62.11-.67.39-.56.12-.68.44-.56.85-.61h.9l.56-.06,1,.62.22.67.39.62.23.61.34.62.22.56.23.68.16.56.34.56.23.62.39.67.11.57.45.61.28.68.11.62.34.56.23.67.22.56.34.67.22.56.39.62.12.62.45.62.45,1.18.28.62.28.67.17.56.39.62.17.67.22.62.4.56.27.68.17.56.34.67.28.56.28.62.39,1.23.34.56.28.68.67,1.23.06.62.39.62.34.56.28.62.11.62.28.67.4.56.11.68.39.56.28.61.23.62.28.62.17.56.33.67.17.57.56,1.23.28.68.4.61.22.62-.5.56-.79.06H307l-.84-.68Zm-23.81-11.74h1.18l.84-.05h.56l.56.05.74-.05h.67l.67.05.68-.05.67.05.62-.05.79.05h.67l.51-.05h.78l.56.05.73-.05h1.35l.62.05H296l.79-.05.73.05.45-.05.67.05.73-.05.68.05.5-.67-.39-.62-.23-.56-.28-.68-.33-.61-.17-.62-.34-.56-.28-.62-.17-.67-.67-1.24-.23-.61-.28-.62-.11-.62-.39-.56-.23-.62-.39-.67-.28-.57-.06-.67-.28-.56-.34-.68-.78-1.85-.23-.61-.45-.57-.28-.67-.11-.62-.34-.61-.34-.62-.27-.62-.23-.56-.17-.62-.45-.62-.05-.67-.28-.56-.57-.06-.28.62-.33.67-.28.62-.17.56-.34.68-.22.56-.28.67-.34.56-.23.68-.67,1.23-.11.56-.34.68-.28.61-.28.62-.17.56-.28.62-.34.67-.22.57-.28.67-.28.56-.29.68-.39.56-.11.67-.28.62-.28.56-.23.67-.28.62-.39.56-.17.62-.45.67-.11.62-.34.62-.17.62-.28.61.34.57Z"/><path class="cls-5" d="M165.89,327.76l.78.05.34.56-.34.62-.11.67-.39.62-.23.67-.16.57-.29.61-.44.68-.17.56-.17.67-.4.62-.28.56-.16.62-.4.67-.28.62-.11.62-.39.62-.12.62-.45.61-.22.68-.23.56-.16.61-.4.73-.33.62-.17.62-.34.62-.28.61-.05.62-.29.56-.45.68-.11.62-.28.61-.33.62-.29.68-.16.56-.4.67-.22.56-.17.62-.39.62-.28.67-.12.62-.28.67-.28.56-.28.68-.34.56-.33.62-.23.67-.11.62-.28.62-.39.61-.23.62-.22.62-.4.67-.17.57-.28.61-.33.62-.28.67L152,364l-.39.62-.28.61-.17.68-.23.62-1.18.56-.56.05h-.78l-1-.61-.28-.62-.22-.68-.34-.61-.39-.68-.17-.62-.17-.55-.28-.62-.45-.67-.22-.62-.11-.62-.28-.62-.45-.56-.12-.67-.28-.68-.22-.62-.39-.56-.23-.67-.17-.56-.33-.68-.4-.56-.17-.67-.22-.68-.23-.56-.28-.67-.33-.62-.17-.61-.45-.62-.28-.56-.11-.68-.4-.56-.11-.67-.45-.68-.11-.56-.23-.62-.28-.67-.39-.56-.28-.68-.28-.56-.17-.62-.34-.67-.22-.62-.28-.67-.34-.62-.28-.56-.11-.67-.39-.62-.12-.62-.5-1.29-.34-.56-.39-.62-.79-1.85-.22-.68-.17-.56-.4-.62-.16-.72-.23-.62-.39-.62-.28-.62.56-.61.79.05H133l1.07.62.22.56.28.62.28.67.17.56.34.68.17.56.45.67.22.56.22.62.17.68.34.61.17.62.45.62.22.62.23.56.22.62.39.61.17.62.23.67.22.57.28.61.28.67.4.62.17.56.16.68.34.62.28.61.23.62.39.62.11.62.34.62.22.67.34.56.28.62.4,1.23.44.68.17.61.23.56.33.62.29.62.11.62.45.67.17.56.39.68.11.56.23.67.45.62,0,.62.45.62.22.56.17.67.39.56.17.68.34.56.28.61.39.06.34-.67.33-.56.29-.62.17-.67.16-.62.28-.56.45-.68.17-.62.28-.56.23-.67.28-.62.22-.62.34-.61.34-.57.05-.67.39-.62.34-.56.51-1.23.11-.68.39-.61.17-.62.39-.62.17-.62.17-.61.45-.57.28-.67.23-.67.11-.62.45-.56.22-.68.28-.56.17-.67.28-.57.17-.67.56-1.23.28-.56.34-.62.23-.67.27-.62.34-.56.17-.62.28-.62.23-.62.33-.67.23-.56.22-.68.4-.61.16-.57.23-.67.28-.56.39-.62.11-.67.51-1.24,1.07-.61Z"/><path class="cls-5" d="M171.23,365.71l0-.62.11-.67-.06-.73.06-.68-.11-.67v-.73l0-.67-.11-.62.11-.73-.11-.67.17-.68-.06-.61,0-.68v-.67l-.06-.68v-1.34l.17-.68-.06-.73,0-.67v-.68l0-.72-.11-.68.06-.67-.06-.67.06-.62v-.73l0-.68-.11-.61.11-.73.06-.68v-.62l-.11-.73v-.67l.11-.68v-1.34l-.17-.73.06-.62,0-.73-.11-1.34.06-.62-.06-.73.11-.68v-.67l.06-.62-.17-.67.17-.79-.11-.67.11-.68-.17-.62.17-.67-.06-.73v-.61l.57-.73.78.05.68-.05.73.73-.17.61.11.73v.67l-.11.68v.62l.17.73v1.34l-.17.68.17.67-.17.68V338l.05.61-.05.68.11.72v1.29l-.06.73-.05.68.17.73-.17.67v.68l.17.62-.06.67.06.67-.17.73.17.62-.12,1.35-.05.73.11.62.06.67-.17.73.11.67v.73l-.11.62.05.67.12.73-.17.68.11.67-.06.62.12.67-.17.68.17.73-.12.67v1.35l.06.73-.06.67.12.67-.06.62-.11.73v.62l.05.73-.67.62h-1.29l-.68-.62Z"/><path class="cls-5" d="M212.22,367.06l-.61.05H211l-1.12-.56-.23-.62-.33-.5-.57-.62-.33-.56-.28-.45-.85-1.12-.39-.56-.17-.56-.56-.57-.28-.61-.45-.51-.39-.62-.17-.56-.56-.5-.34-.51-.62-1.12-1.12-1.69-.39-.61-.39-.51-.51-.56-.23-.51-.44-.56-.28-.56-.4-.61-1-.57h-4.21l-.56.06-.79-.06h-.62l-.56.06h-.73l-.73-.06h-.56l-.67.06h-.79l-.61-.06-.62.06h-.62l-.84.62.17.72-.06.62.06.68-.06.61-.11.73.17.68v1.29l-.12.73-.05.67.17.62V359l-.12.67.06.68-.11.67v.73l.11.62.06.67v.67l-.17.68.05.62.06.73-.11.61-.68.68-.45.05h-.73l-.67-.67-.11-.67.11-.68-.06-.67-.05-.73.11-.68-.11-.61.17-.79-.12-.67v-1.29l.06-.73v-2l.06-.62-.12-.68.12-.67v-.73l-.17-.62.05-.67.12-.79-.17-.62.11-.67-.06-.73.12-.61v-.73l-.06-.62v-.73l.06-.62-.17-.73.17-.67-.12-.62.12-.73v-.68l-.06-.67-.06-.68.06-.73.06-.67v-.67l-.12-.62.06-.73L183,338l.17-.68v-.67L183,336l.11-.67.06-.67-.17-.74.17-.61-.12-.73.06-.73.06-.62-.12-.73-.05-.67.05-.62-.05-.73.67-.62h.84l.68-.05h1.4l.51.05.67-.05h2.92l.56.05.79-.05.67.05.62-.05.67.05.79-.05.51.05.78-.05.79.05h.62l.56-.05h2.19l2.07.11.62.05.67.12.62,0,.84.17.56.23.57.28.67.22.67.28.51.39.67.34.51.45.62.45.45.5.39.57.45.5.22.56.28.62.29.67.33.57.17.73.06.67.22.62.06.73.11.62,0,1.34,0,.73-.17.67-.17.57v.73l-.34.61-.16.57-.28.61-.17.68-.34.56-.45.56-.39.45-.45.56-1,.9-.51.34-.5.39-.68.39-.5.28-.68.23-.5.22-.84.17-.45.17-.68.17-.84.11-.28.68.34.5.5.62.28.56.51.56.39.56.28.51.51.56.33.5.34.56.34.62.45.56.45.51.33.62.28.5.51.62.34.51.22.61.4.56.44.57.45.5.23.62.39.45.45.61.28.57.51.56.28.5.5.62.23.56-.12.51Zm-26.5-34,.06.62-.11.73.11.61-.06.68.06.67-.11.68v.73l.17.61-.12.73v.67l.12.68-.06.67-.11.68.05.61-.05.68.11,1.35-.11.73.17.67-.12.62.12.67.67.73h.62l.56-.05h2.69l.79.05h.62l.73-.05h1.35l.67.05h.62l.56-.05h.79l.56.05.73-.05h1.29l.61.05,1.35-.05h.79l.61-.06.79-.17.56-.11.73-.11.56-.28.62-.23.79-.34.39-.39.56-.34.62-.5.39-.56.4-.51.33-.56.28-.62.34-.62.17-.67.17-.62.11-.72v-.68l.06-1.29-.06-.67-.28-.62-.06-.68-.17-.67-.28-.62-.16-.56-.45-.62-.34-.5L208,333l-.33-.45-.62-.4-.51-.33-.56-.34-.56-.28-.67-.23-.57-.16-.78-.17-.73-.17H202l-.51-.06-1.51-.05h-2.7l-.62.05h-1.46l-.61-.05h-1.24l-.9.05h-1.18l-.78-.05-.56.05-.85-.05h-.67l-.62.05h-1.29l-.79.62Z"/><path class="cls-5" d="M234.86,367.73l-.66-.05h-.63l-.72-.17-.79-.12-.5-.11-.73-.11-.62-.17-.68-.11-.67-.28-.62-.17-.62-.28-.78-.23-.62-.28-.39-.33-.73-.28-.51-.34-.67-.45-.39-.34-.57-.39-.5-.51-.51-.44-.56-.4-.39-.5-.39-.51-.45-.56-.51-.5-.34-.56L219,359l-.45-.56-.39-.62-.34-.56-.28-.62,0-.67-.34-.56-.23-.68-.16-.67-.29-.56-.05-.73-.17-.67-.17-.62-.05-.67-.06-.68v-.73l-.06-.67V348l-.05-1.3-.06-.67.11-.67.12-.68L216,344l.17-.67.11-.68.06-.62.22-.61.23-.73.11-.56.22-.62.28-.62.23-.61.28-.62.45-.68.56-1.12.28-.62.51-.45.45-.61.33-.45.51-.57.34-.44.61-.51.51-.39.39-.45.62-.4.45-.33.73-.45.45-.28.56-.4.56-.28.67-.28.68-.28.56-.22.56-.17.79-.22.62-.23.61-.17,1.4-.22.51-.06.84-.16H234l.67-.06h3.59l.68.11h.56l.73.11.73.12.5.16.79.12.73.11.68.17.5.22.67.17,1.24.45.73.28.73.22.56.28.51.34.67.23.51.39.73.33.16.9-.67,1.07-1,.22-.62-.33-.56-.34-.51-.28-.73-.28-.56-.28-.62-.23-.61-.22L244,331l-.45-.16-.73-.17-.78-.17-.51-.17-.79-.17L240,330l-.67-.11h-.57l-.78-.17-.62.06-.73-.06h-1.4l-.67.06h-.73l-.57.05-.84.11-.67.12-.5.17-.68.11-.79.28-.67.22-.62.23-.45.28-.73.28-.56.28-.62.34-.5.39-.51.39-.56.45-.5.39-.51.51-.56.51-.4.45-.39.5-.45.56-.39.56-.39.62-.28.56-.45.62-.17.62-.34.61,0,.68-.23.61-.22.62-.17.68-.17.67-.06.67-.11.73v.62l-.05.73-.12.73-.05,1.35.05.62.12.73.05.62-.05.67.28.67.11.68.17.67v.62l.33.61.28.62.06.68.34.56.28.62.28.61.51.62.39.51.22.62.45.5.84,1,.62.4.45.44.56.45.51.34.39.39.62.4.62.27.56.4.73.22.5.23.57.22.84.23.56.22.73.11.61.17.68.11.62.06.56.06.78,0,.68.11,1.34-.05h1.41l.5-.06.85-.11.5-.06.79-.11.67-.17.51-.11.84-.17.45-.17L244,364l.56-.23.67-.17.73-.28.62-.22.62-.28.45-.28.78-.34.57-.95-.12-.79.12-.61-.17-.68.05-.73.12-.67-.12-.68-.05-.73.11-.67v-.73l-.11-1.35.05-.67v-.67l.12-.68-.06-.67v-.73l-.11-.73-.62-.62H244.8l-.56-.05h-.78l-.68.05h-.56l-.67-.05h-.62l-.79.05-.56-.05-.73.05h-.73l-.62-.05h-1.29l-.73.05-.62-.62-.11-.73.06-.56.79-.62.67,0h.67l.68,0h2.58l.79,0,.67,0h6l.56,0,.68,0,.78,0,.73,0,.51,0,.67.67.12.68v.67l.05.67-.05.73V351l.05.62-.17.67v1.4l.17.62-.17.73.12.62.05.73-.05.62-.12,1.35.17.73v.61l-.11,1.35.11.73v.67l-.56,1-.62.4-1.07.73-.73.28-.61.28-.62.33-.56.23-.62.22-.73.23-.67.22-.62.28-.67.17-.51.12-.79.16-.61.17-.68.11-.62.12-.89.05-.62.12-.68.05-.67-.05-.67.05h-2Z"/><path class="cls-5" d="M259.53,365.71l0-.62.11-.67-.06-.73.06-.68-.11-.67v-.73l0-.67-.11-.62.11-.73-.11-.67.17-.68-.06-.61,0-.68v-.67l-.06-.68v-1.34l.17-.68-.06-.73,0-.67v-.68l0-.72-.11-.68.06-.67-.06-.67.06-.62v-.73l0-.68-.11-.61.11-.73.06-.68v-.62l-.11-.73v-.67l.11-.68v-1.34l-.17-.73.06-.62,0-.73-.11-1.34.06-.62-.06-.73.11-.68v-.67l.06-.62-.17-.67.17-.79-.11-.67.11-.68-.17-.62.17-.67-.06-.73v-.61l.57-.73.78.05.68-.05.72.73-.16.61.11.73v.67l-.11.68v.62l.16.73v1.34l-.16.68.16.67-.16.68V338l.05.61-.05.68.11.72v1.29l-.06.73-.05.68.16.73-.16.67v.68l.16.62,0,.67,0,.67-.16.73.16.62-.11,1.35-.05.73.11.62,0,.67-.16.73.11.67v.73l-.11.62.05.67.11.73-.16.68.11.67-.06.62.11.67-.16.68.16.73-.11.67v1.35l.06.73-.06.67.11.67,0,.62-.11.73v.62l.05.73-.67.62h-1.29l-.68-.62Z"/><path class="cls-5" d="M302.49,327.81h.56l.73.62-.11.67.11.68,0,.72.11.68-.17.67.06.62v.79l-.06.67v2.7l.06.62-.06.67.17.67-.11.68V340l0,.68.06.61V342l-.06.74.06.61-.17.73.17.68-.17.67.17.68-.11.61,0,.68-.11.67v.68l.06.67.11.73v.67l-.06.67v.62l0,.79-.06.67.17.62-.17.73.06.67v.62l0,.73-.11.62.17.67-.17.68.06.73.11.62-.06.67-.11.73.11.73,0,.67v.67l0,.68v.67l.06.62-.17.67-.56.73-.62-.05h-.67l-1-.51-.45-.56-.4-.45-.5-.62-.34-.45-.39-.56-.45-.5-.34-.56-.45-.51-.33-.56-.51-.56-.39-.5-.45-.57-.45-.45-.28-.56-.45-.5-.51-.57-.44-.56-.34-.45-.45-.5-.39-.56-.45-.57-.23-.5-.45-.51-.56-.61-.34-.45-.45-.51-.33-.61-.45-.46-.34-.55-.5-.57-.4-.56-.39-.45-.51-.5-.39-.62-.34-.45-.39-.62-.34-.45-.44-.56-.46-.5-.33-.51-.39-.62-.62-.5-.34-.51-.39-.5-.5-.62-.29-.51-.5-.5-.39-.51-.34-.56-.5-.56-.29-.5-.39-.45-.45-.62-.33-.45-.51-.56-.34-.56-.56-.56-.28-.45-.56-.56-.34-.51-.5-.51-.29-.56-.5-.56-.39-.5-.34.16-.11.62v.73l0,.62.06.67.06.73-.12.62,0,.68v1.34l.17.68-.06.67-.11.62,0,.73.06.61v.73l-.06.62v1.35l0,.67.11,1.35.06.73V349l-.12.67v.68l0,.67v.67l.17.62V353l-.06.62-.11.73V355l.11.73-.11.61V357l.17.67-.06.62.06.73-.12.62.06.73L274,361l.17.74-.06.61L274,363l0,.68.12.67v.73l-.12.62v.67l-.73.68h-.45l-.67.05-.67-.67v-.73l-.17-.62.17-.73-.17-.67.05-.62-.05-.73.17-.73-.06-.67-.11-.62.11-.73.06-.62-.17-.67.05-.73.12-.62-.12-.67.12-.73-.06-.62.06-.73-.12-.67.06-.62-.11-.73.05-.68.12-.72-.12-.62-.05-.67.11-1.35v-.68l-.06-.73v-.67l.12-.67-.17-.62.17-.73v-.68l-.17-.67.05-.73v-.62l.06-.67V340l-.06-.72-.05-.62.17-.73-.17-.67.17-.68-.06-.62-.11-.73.11-.61-.06-.74.06-.61-.11-1.41.11-.73-.11-.67.17-.67v-.62l-.06-.73.73-.62h1.24l.95.51.51.56.33.44.56.62.45.45.34.56.34.57.5.45.34.56.34.5.5.56.45.57.28.5.4.51.45.56.56.56.22.45.39.51.62.56.28.56.39.56.57.45.27.56.51.51.34.5.5.56.23.56.39.45.62.62.39.5.34.51.39.56.34.51.56.5.45.56.28.57.39.45.51.61.39.51.28.5.56.51.4.56.28.5.56.57.28.5.51.51.28.5.61.56.23.51.45.5.39.62.39.45.51.56.39.56.34.51.45.56.5.51.4.56.78,1.07.45.44.45.57.28.56.34.5.45.51L301,362l.17-.72-.11-.62.05-.73-.05-.62-.06-.67v-.73l.11-.68v-.62l-.05-.67v-.67l.11-.62-.06-.73v-.62l.06-.73-.11-.62-.06-.67v-.73l.11-.67-.05-.68.11-1.34-.17-.62v-.73l.17-.68-.06-.67v-3.93l-.05-.67.05-.68-.05-.73-.06-.61.11-1.35-.05-.73.11-1.35-.06-.67v-.68l-.05-.56v-.73l.11-.62-.11-.67.05-.73.06-.62v-1.4l.56-.67Z"/><path class="cls-5" d="M172.63,412h-.73l-.73-.12h-.5l-.79-.17-.67-.05-.68-.17-.67-.17-.56-.22-.68-.23-.56-.17-.73-.33-.5-.28-.62-.23-.62-.34-.67-.33-1.18-.73-.5-.4-.45-.5-.56-.4-.56-.5-.45-.51-.4-.44-.39-.51-.34-.5-.45-.56-.39-.62L157,403l-.45-.57-.62-1.29-.28-.56-.17-.67-.17-.68-.33-.61-.06-.62-.34-.68-.11-.67.06-.67-.23-.62-.11-.68-.11-.72.17-.73-.06-.62v-2.7l-.06-.73.17-.67.06-.67.11-.62.23-.73.16-.56.06-.73.17-.62.22-.68.45-.55.17-.62.28-.62.17-.62.51-.62.28-.61.39-.51.39-.5.45-.62.23-.45.62-.56.39-.45.56-.45.45-.45.39-.45.51-.39.73-.4.33-.39.79-.39.56-.34.45-.28.73-.34.5-.22.79-.28.62-.17.61-.23.68-.22.62-.11.5-.17.79-.11.67-.06.68-.11.61-.05.68-.06h2.64l.67.06.79.05.73.06.61.17.68.05.67.22.73.12.68.22.45.23.73.22.61.28.73.22.45.28.62.34.5.34.56.34.57.39.72.5.34.4.68.39.5.56.39.45.45.51.34.45.56.56.39.56.34.56.34.56.39.62.28.62.17.56.39.67.06.62.39.67.06.56.28.68.17.67v.68l.11.73.23.61v.68l.22.73-.17.67.17.68v1.29L194,393l-.11.68.11.67-.28.73-.05.67-.11.62V397l-.17.62-.23.73-.28.62-.11.67-.17.62-.34.56-.22.62-.28.62-.34.56-.5.62-.17.5-.4.56-.39.57-.45.5-.39.5-.45.57-.56.39-.56.5-.4.45-.56.4-.5.39-.51.39-.56.34-.67.28-.51.34-.78.28-.62.28-.56.28-.67.17-.68.17-.5.28-.79.17-.51.11-.67.11-.67.11-.73.06L176,412l-.62.05h-.67l-1.29.06Zm3.71-2.59.56-.11.67-.06.68-.11.67-.17.56-.22.68-.11.67-.23.79-.34.5-.17.51-.33.62-.4.56-.33.72-.28.4-.4.67-.5.39-.45.62-.45.39-.5.51-.45.39-.56.34-.51.34-.62.39-.56.34-.5.33-.68.23-.56.28-.67.11-.56.39-.68.06-.67.11-.68.28-.61.06-.73.17-.68v-.67l0-.62.12-.67-.17-1.4,0-.62,0-.68-.17-.73.11-.61-.11-.62-.22-.68-.17-.73-.12-.61-.22-.68-.22-.62-.29-.56-.28-.67-.16-.56-.45-.62-.23-.5-.5-.56-.4-.62-.22-.45-.45-.56-.62-.51-.45-.39-.33-.51-1.18-.84-.45-.39-.62-.34-.56-.34-.56-.33-.62-.23-.73-.34-.62-.16-.44-.17-1.41-.4-.73-.16-.45-.12-.78,0-.68-.06-.67-.06-.62-.05h-1.29l-.67.05H172l-.62.06-.78.17-.68.11-.5.17-.79.11L168,375l-.68.22-.67.17-.62.28-.5.28-.62.34-.67.39-.57.4-.5.33-.56.4-.51.5-.44.45-.51.51-.45.45-.33.56-.4.56-.45.5-.39.57-.34.67-.17.56-.45.67,0,.62-.23.56-.28.67-.28.68-.17.67-.11.68-.11.67-.06.67,0,.68-.06.62-.11.67.17,1.35-.12.67.23.68.06.67.05.67.11.67.17.68.06.67.11.62.23.67.22.57.22.61.29.62.28.68.28.56.33.56.51.56.34.51.45.61.44.51.51.45.39.45.51.45.45.44.45.4.56.39.67.39.56.23.62.39,1.12.56.79.17.45.28.61.11.73.23.62.11.79.11.5.12h.85l.61.05.57.11,2.13-.11Z"/><path class="cls-5" d="M204.65,408.86l.68-.06.62.06h4.54l.79-.06.62.06h1.4l.73-.06h2l.62.06h1.23l.84-.06h.62l.68.06h5.28l.67-.06.56.62.06.68v.67l-.84.67H222.4l-.51-.05h-1.4l-.74.05h-1.29l-.61-.05h-.79l-.61.05-.57-.05h-.67l-.78.05-.62-.05-.73.05h-1.29l-.51-.05-.67.05h-1.46l-.62-.05-.73.05h-.73l-.62-.05-.67.05-.51-.05h-.78l-.68.05-.67-.05-.62.05-.56-.05h-.84l-.51-.68V410l-.06-.67-.11-.68V408l.11-.62-.11-.73.17-.73-.17-.67v-.68l.17-.67-.06-.67v-.68l.06-.61-.17-.68v-.73l.06-.67v-2l-.06-.62.11-.73.06-.73v-.62l-.17-.67.17-.73-.17-.68.11-.61v-.68l-.11-.73v-1.29l.06-.67v-.68l.11-.67-.17-.73.17-.73-.11-.68-.06-.67.17-.62-.17-.67.17-.67-.06-.67-.05-.74v-.67l.05-.62-.05-.67v-.67l.05-.68v-.67l-.11-.73.06-.73v-1.35l.05-.62.06-.73-.17-.61.73-.68.62-.06h.73l.67.68-.05.73.17.67-.17.62.11.67.06.62-.06.73-.11.67.05.62.06.73-.06.68v.61l.06.68v.67l-.06.62.06.73-.06.62.06.67-.06.67.12.68-.12.73v1.23l-.05.73.17.62v2l-.17.68.11.67.06.73-.12.62.12.61-.06.73-.11.62.11.73.06.67-.06.62-.11.73.11.62-.06.67v.68l.06.67v1.35l-.06.62.06.73-.11,1.35.17.67v1.23l-.12.73.06.62.62.73Z"/><path class="cls-5" d="M231.05,410l-.05-.62.11-.67-.06-.73.06-.68-.11-.67v-.73l.05-.67-.11-.62.11-.73-.11-.67.17-.68-.06-.61-.05-.68v-.67l-.06-.68v-1.34l.17-.68-.06-.73-.05-.67v-.68l.05-.73-.11-.67.06-.67-.06-.68.06-.61v-.73l.05-.68-.11-.61.11-.73.06-.68v-.62l-.11-.73V387l.11-.68V385l-.17-.73.06-.62.05-.73-.11-1.35L231,381l-.06-.73.11-.68v-.67l.06-.62-.17-.67.17-.79-.11-.67.11-.68-.17-.62.17-.67-.06-.73v-.61l.56-.74.79.06.67-.06.73.74-.16.61.11.73v.67l-.11.68v.62l.16.73v1.34l-.16.68.16.67-.16.68v2.08l.05.61-.05.67.11.73v1.29l-.06.73-.05.68.16.73-.16.67v.68l.16.62-.05.67.05.67-.16.73.16.62-.11,1.35-.05.73.11.61.05.68-.16.73.11.67v.73l-.11.62.05.67.11.73-.16.68.11.67-.06.62.11.67-.16.68.16.73-.11.67V406l.06.73-.06.67.11.67-.05.62-.11.73V410l.05.73-.67.62h-1.29l-.68-.62Z"/><path class="cls-5" d="M272.72,372.08l.78.06.34.56-.34.62-.11.67-.39.62-.22.67-.17.57-.29.61-.44.68-.17.56-.17.67-.39.62-.29.56-.16.62-.39.67-.28.62-.12.62-.39.62-.11.62-.45.61-.22.67-.23.57-.17.61-.39.73-.34.62-.16.62-.34.62-.28.61-.06.62-.28.56-.45.68-.11.62-.28.61-.34.62-.28.67-.17.57-.39.67-.23.56-.17.62-.39.62-.28.67-.11.62-.28.67-.28.56-.28.68-.34.56-.34.62-.22.67-.12.62-.28.62-.39.61-.22.62-.23.62-.39.67-.17.56-.28.62-.34.62-.28.67-.06.62-.39.62-.28.61-.17.68-.22.62-1.18.56-.56.05h-.79l-.95-.61-.28-.62-.23-.68-.34-.61-.39-.68-.17-.61-.17-.57-.28-.61-.45-.68-.22-.62-.11-.61-.28-.62-.45-.56-.12-.67-.28-.68-.22-.62-.39-.56-.23-.67-.17-.56-.33-.68-.4-.56-.16-.67-.23-.68-.22-.56-.28-.67-.34-.62-.17-.62-.45-.61-.28-.57-.11-.67-.39-.56-.11-.67-.45-.68-.11-.56-.23-.62-.28-.67-.39-.56-.28-.68-.28-.56-.17-.62-.34-.67-.23-.62-.28-.67-.33-.62-.28-.56-.12-.67-.39-.62-.11-.62-.51-1.29-.33-.56-.4-.62-.78-1.85-.23-.68-.17-.56-.39-.62-.17-.73-.22-.61-.4-.62-.28-.62.56-.62.79.06h.67l1.07.62.23.56.28.62.28.67.17.56.33.68.17.56.45.67.23.56.22.62.17.68.34.61.17.62.44.62.23.62.22.56.23.61.39.62.17.62.22.67.23.56.28.62.28.67.39.62.17.56.17.68.34.62.28.61.22.62.39.62.11.62.34.62.22.67.34.56.28.62.4,1.23.44.67.17.62.23.56.33.62.29.62.11.62.45.67.17.56.39.68.11.56.23.67.45.62.05.62.45.62.23.56.16.67.4.56.17.67.33.57.28.61.4.06.33-.67.34-.57.28-.61.17-.67.17-.62.28-.56.45-.68.17-.62.28-.56.22-.67.28-.62.23-.62.34-.61.33-.57.06-.67.39-.62.34-.56.5-1.24.11-.67.4-.62.17-.61.39-.62.17-.62.17-.61.45-.57.28-.67.22-.67.11-.62.45-.56.23-.68.28-.56.17-.67.28-.57.17-.67.56-1.23.28-.57.34-.61.22-.68.28-.61.34-.56.17-.62.28-.62.22-.62.34-.67.22-.56.23-.68.39-.61.17-.57.22-.67.28-.56.4-.62.11-.67.5-1.24,1.07-.62Z"/><path class="cls-5" d="M282.05,408.86l.79-.06.5.06H284l.62-.06h.78l.73.06h3.26l.79-.06h.5l.62.06h1.4l.79-.06h.62l.61.06h.73l.62-.06h.68l.73.06.5-.06h3.43l.61.06.74-.06.72.06.51-.06.78.06.57-.06.78.62-.06.68-.16.61-.68.73-.79-.05-.61.05-.62-.05-.78.05-.57-.05-.72.05h-1.46l-.62-.05-.56.05-.84-.05h-.51l-.73.05-.73-.05-.67.05h-.79l-.51-.05H291l-.68.05h-4.77l-.84-.05-.68.05h-1.34l-.51-.05-.78.05h-.62l-.73-.05h-1.46l-.56-.68.06-.67-.11-.67.11-.68-.06-.62-.11-.67.11-.73L278,406l.17-.73v-.62L278,404v-.73l.17-.62v-.73l-.11-.62.05-.67v-.73l-.05-.62.11-.73-.11-.67-.06-.62.17-.73v-.73l-.06-.68-.11-.61v-2.08l.11-.62-.11-.73.11-.67-.11-.67.17-.62-.06-.68-.11-.67.17-.73-.06-.73.06-.62v-.73l-.06-.62.06-.73-.17-.67.17-.61-.17-.74V381l.17-.73-.17-.62V378.2l.06-.61v-.79l-.06-.67v-.68l.17-.62v-1.34l-.17-.73.67-.62h.73l.79-.06.56.06h.78l.68-.06.56.06.67-.06.62.06.78-.06.68.06h2l.73-.06.56.06.68-.06.73.06.62-.06.61.06.79-.06.5.06.79-.06.56.06h2.81l.62-.06.78.06h.62l.73-.06.68.06h.61l.56-.06.73.06h2.7l.67.56-.06.73,0,.62-1,.67-.5-.05-.68.05h-.84l-.72-.05-.62.05h-2.7l-.78-.05-.68.05-.5-.05H293l-.78.05-.51-.05H290.2l-.56.05h-1.3l-.84-.05h-.62l-.61.05h-1.41l-.62-.05h-.84l-.56.05-.73-.05-.79.05-.61.68.11.61v.79l-.05.67.05.62-.11.73.06.73-.06.68.06.61-.06.73.06.68V383l-.12.61.17.68-.11.73.11.73-.05.67-.12.62.12.67-.12.79v.62l.73.67.79.06.61-.06.73.06h.62l.62-.06h2.69l.79.06.68-.06h4l.84.06h.51l.67-.06h.73l.73.06H297l.62-.06h3.54l.62.06h1.4l.67.62v.67l-.11.56-.51.68h-.67l-.84.05H301l-.5-.05-.9.05h-1.29l-.67-.05-.68.05-.73-.05h-.67l-.68.05-.56-.05-.78.05-.68-.05-.61.05-.68-.05-.62.05-.78-.05-.56.05h-1.41l-.67-.05-.79.05-.5-.05-.68.05-.73-.05h-2.08l-.67.05h-.67l-.73.62.06.73.05.67-.11.73.06.62-.06.73.06.67v2.08l.05.62-.11.67v.79l-.06.62.06.67.06.73-.06.67-.06.73v1.29l.12.73v1.41l.72.61Z"/><path class="cls-5" d="M242.68,456.33H242l-.73-.11h-.51l-.78-.17-.68-.06-.67-.17-.68-.16-.56-.23-.67-.22-.56-.17-.73-.34-.51-.28-.62-.22-.62-.34-.67-.34-1.18-.72-.5-.4-.45-.5-.56-.4-.57-.5-.44-.51-.4-.45-.39-.5-.33-.51-.45-.56-.4-.62-.28-.56-.45-.56-.61-1.29-.28-.56-.17-.68-.17-.67-.34-.62-.05-.61-.34-.68-.11-.67,0-.68-.22-.62-.11-.67-.12-.73.17-.73,0-.62v-2.69l-.06-.73.17-.68.05-.67.12-.62.22-.73.17-.56.06-.73.16-.61.23-.68.45-.56L226,427l.28-.61.17-.62.5-.62.28-.62.39-.5.4-.51.45-.62.22-.45.62-.56.39-.45.56-.45.45-.45.39-.44.51-.4.73-.39.33-.39.79-.39.56-.34.45-.28.73-.34.51-.22.78-.29.62-.16.62-.23.67-.22.62-.11.51-.17.78-.12.68-.05.67-.11.62-.06.67-.06h2.64l.67.06.79.06.73,0,.62.17.67.06.68.22.73.11.67.23.45.22.73.23.61.28.73.22.45.28.62.34.51.33.56.34.56.39.73.51.34.39.67.4.51.56.39.45.45.5.33.45.57.56.39.57.34.56.33.56.4.62.28.61.17.57.39.67.06.62.39.67.05.56.28.67.17.68v.67l.12.73.22.62v.67l.22.73-.16.68.16.67v1.29l-.05.68L264,438l.11.67-.28.74-.06.67-.11.61v.68l-.17.62-.22.73-.28.61-.12.68-.16.62-.34.56-.23.62-.28.61-.33.56-.51.62-.17.51-.39.56-.39.56-.45.51-.4.5-.45.56-.56.4-.56.5-.39.45-.56.39-.51.39-.51.4-.56.34-.67.28-.51.33-.78.28-.62.29-.56.27-.67.17-.67.17-.51.28-.79.17-.5.11-.68.12-.67.11-.73,0-.67.06-.62.06h-.68l-1.29.05Zm3.7-2.58.56-.11.68-.06.67-.11.68-.17.56-.23.67-.11.67-.22.79-.34.5-.17.51-.33.61-.4.57-.33.73-.28.39-.4.67-.5.4-.45.62-.45.39-.51.5-.45.4-.56.33-.5.34-.62.39-.56.34-.51.34-.67.22-.56.28-.68.12-.56.39-.67.06-.68.11-.67.28-.62.06-.72.16-.68v-.67l.06-.62.11-.68-.17-1.4.06-.62-.06-.67-.16-.73.11-.62-.11-.62-.23-.67-.17-.73-.11-.62-.23-.67-.22-.62-.28-.56-.28-.67-.17-.57-.45-.61-.22-.51-.51-.56-.39-.62-.23-.45-.45-.56-.61-.5-.45-.4-.34-.5-1.18-.85-.45-.39-.62-.34-.56-.33-.56-.34-.62-.22-.72-.34-.62-.17-.45-.17-1.4-.39-.73-.16-.45-.12-.79-.05-.67-.06-.68-.06-.62-.05h-1.29l-.67.05H242l-.62.06-.78.16-.67.12-.51.17-.79.11-.56.22-.67.23-.68.17-.61.28-.51.28-.62.33-.67.4-.56.39-.51.34-.56.39-.51.51-.45.45-.5.5-.45.45-.33.56-.4.56-.44.51-.4.56-.34.68-.16.56-.45.67-.06.62-.22.56-.28.67-.28.68-.17.67-.11.67-.12.68,0,.67-.06.67-.05.62-.12.68.17,1.34-.11.68.22.67.06.67.06.68.11.67.17.67.05.68.11.62.23.67.23.56.22.62.28.62.28.67.28.56.34.56.5.57.34.5.44.62.45.51.51.44.39.45.51.45.45.45.45.4.56.39.67.39.56.23.62.39,1.13.56.78.17.45.28.62.11.73.22.61.12.79.11.51.11h.84l.62.06.56.11,2.13-.11Z"/><path class="cls-5" d="M270.6,454.36l-.06-.61.12-.68-.06-.73.06-.67-.12-.67v-.73l.06-.68-.11-.61.11-.73-.11-.68.17-.67-.06-.62-.06-.67v-.68l-.05-.67v-1.35l.17-.67-.06-.73-.06-.68v-.67l.06-.73-.11-.67.05-.68-.05-.67.05-.62v-.73l.06-.67-.11-.62.11-.73.06-.67v-.62l-.12-.73v-.68l.12-.67v-1.35l-.17-.72.05-.62.06-.73-.11-1.35.05-.62-.05-.73.11-.67v-.68l.06-.61-.17-.68.17-.78-.12-.68.12-.67-.17-.62.17-.67-.06-.73v-.62l.56-.73.79.06.67-.06.73.73-.17.62.11.73v.67l-.11.67v.62l.17.73v1.35l-.17.67.17.68-.17.67v2.08l.06.62-.06.67.11.73v1.29l-.05.73-.06.67.17.73-.17.68v.67l.17.62-.06.67.06.68-.17.73.17.62-.11,1.34-.06.73.11.62.06.68-.17.72.11.68v.73l-.11.61.06.68.11.73-.17.67.11.68-.05.61.11.68-.17.67.17.73-.11.68v1.34l.05.74-.05.67.11.67-.06.62-.11.73v.61l.06.73-.68.62h-1.29l-.67-.62Z"/><path class="cls-5" d="M286.6,453.19l.68-.06.62.06h4.54l.79-.06.62.06h1.4l.73-.06h2l.61.06h1.24l.84-.06h.62l.67.06h5.28l.67-.06.56.62.06.67v.67l-.84.68h-3.37l-.51-.06h-1.4l-.73.06h-1.29l-.62-.06H299l-.62.06-.56-.06h-.68l-.78.06-.62-.06-.73.06h-1.29l-.51-.06-.67.06H291.1l-.62-.06-.73.06H289l-.62-.06-.67.06-.51-.06h-.78l-.68.06-.67-.06-.62.06-.56-.06h-.84l-.51-.67v-.68l-.06-.67-.11-.67v-.68l.11-.61-.11-.73.17-.73-.17-.68v-.67l.17-.67-.06-.68v-.67l.06-.62-.17-.67v-.73l.06-.68v-2l-.06-.62.11-.73.06-.72v-.62l-.17-.68.17-.73-.17-.67.11-.62v-.67l-.11-.73V434.1l.06-.68v-.67l.11-.68-.17-.73.17-.72-.11-.68-.06-.67.17-.62-.17-.67.17-.68-.06-.67-.05-.73v-.67l.05-.62-.05-.68v-.67l.05-.67v-.68l-.11-.73.06-.73v-1.34l.05-.62.06-.73-.17-.62.73-.67.62-.06h.73l.67.67-.05.73.17.68-.17.62.11.67.06.62-.06.73-.11.67.05.62.06.73-.06.67v.62l.06.67v.68l-.06.62.06.72-.06.62.06.68-.06.67.12.67-.12.73v1.24l-.05.73.17.62v2l-.17.67.11.68.06.73-.12.61.12.62-.06.73-.11.62.11.73.06.67-.06.62-.11.73.11.61-.06.68v.67l.06.68v1.35l-.06.61.06.73-.11,1.35.17.68v1.23l-.12.73.06.62.62.73Z"/></svg>