<svg id="Layer_1" data-name="Layer 1" xmlns="http://www.w3.org/2000/svg" viewBox="0 0 761.81 964.04"><defs><style>.cls-1,.cls-2{fill:#9b7d0d;}.cls-1{fill-rule:evenodd;}.cls-3{fill:#e6e7e8;}</style></defs><path class="cls-1" d="M265.48,580s8.81-17.13,9.37-34-.35-39.79-.35-39.79,22,39.79,9,73.27c-9.28,24-9.58,36.64-3.95,60.88S295.35,699,288,713.61l-7.33,14.66s1.69-23.12-7.33-45.66S257,653.87,255.89,643.15s-3.37-31,9.59-63.13"/><path class="cls-1" d="M451.08,866s-41.3-23.83-79.07-12-59.75-10.71-64.26-29.88,3.95-28.18-.56-45.09-15.78-27-15.21-41.15,8.45-29.31,7.32-41.71-20.3-64.25-18.6-76.65,17.47-53.55,16.35-71-19.73-63.13-23.11-93-13-80.6-25.37-90.74-36.08-5.64-42.84-29.87-8.45-46.22-17.47-42.84-23.67,27.62-36.64,16.91-3.39-21.42-20.29-29.31S108.22,270,93.57,265.5s-19.73-16.34-11.28-20.85c0,0,.57,11.84,15.78,15.22s41.71,5.63,44.53,16.35,10.71,27.62,15.22,27,9.58-19.73,29.88-22a66.76,66.76,0,0,0-3.39-29.88c-5.63-15.78-10.71-40.58-45.65-44s-37.76-11.83-28.19-29.87c0,0-5.07,14.09,4.52,16.35s35.51.56,53,14.65,17.48,22.55,17.48,22.55-2.26-15.22,9.58-23.68,12.4-17.47,8.46-24.23c0,0,5.63,3.94,3.38,15.78S195,212.53,193.33,221.55s1.13,20.29,1.13,20.29,6.2,27.62,10.71,41.14,14.09,49.6,27.62,53,15.22-7.89,10.14-24.24-12.4-27.62,6.76-42.27,32.14-11.28,40-28.75,7.33-45.09,7.33-45.09,7.89,6.76,2.81,25.93-9,25.36-4.51,26.49,17.47-10.15,24.24-1.13,5.63,23.67,18.6,25.93,11.84,12.4,12.4,15.22-6.2-5.64-14.65-8.46-15.78-10.14-20.29-19.73-11.84-6.2-18.6-2.81-45.67,14.65-36.65,51.85,15.22,88.49,25.94,89.62,9-1.13,33.82-5.63,35.51-6.2,51.85-28.19,30.44-50.16,25.37-69.89,3.94-28.18,11.83-36.64,31-13.52,31-27.05,9-40.58-2.81-50.17-19.73-18.6-9.59-24.8,21.42-15.78,15.22-22c0,0,5.64,7.33,3.38,13.53s-18,9-10.7,16.35,13.52,19.72,13.52,19.72,12.4-8.45,23.11-9,25.36,6.2,33.82,1.13,4.51-16.35,12.4-18.6,24.24-4.51,25.93-10.15c0,0-2.82,10.15-12.4,13s-11.28,5.07-13,10.71,1.69,17.47-11.27,18-27.62-7.33-37.2-1.69-13.53,18.6-13.53,18.6-4.51,35.51-18.6,49,5.64,23.11,7.89,23.11,25.93,8.45,35.51,13,25.93-1.12,40-8.45S549.57,274,553.5,279s1.13,2.26,1.13,2.26S549,277.91,531,288.62s-33.82,19.17-49,15.22-38.33-11.27-40-10.71-29.31-21.42-24.81-6.2,1.7,45.65-1.69,51.85-19.73,44-28.74,49.61S353.41,416,339.88,418.26s-46.79,11.84-36.64,49.61,16.92,45.65,15.79,64.81-16.92,50.17-17.48,77.22,1.7,50.73,6.77,62,13,25.36,9.58,44,18,46.78,13.53,67.63,10.14,45.1,53,50.17,78.35,6.76,100.33,27.06c20.93,19.31,31.64.1,53.54,1.21,1.09,0,2.23.12,3.39.21,24.24,1.69-31,12.4-45.09,4.51s-27.38-3-44.53,2"/><path class="cls-2" d="M308.32,631.88s-3.29-42.51,7.89-61.44A118.26,118.26,0,0,0,330.86,531s1.29,29.36-2.65,46.27-2.76,22.08-2.76,22.08,19.51-44.11,39.8-47.5,59.75-7.32,78.91-16.34,31-39.46,47.91-46.78,24.24-6.21,37.2-9.59,8.46-16.91,34.94-24.8,22-9.58,20.3-15.22-23.11-18.6-19.17-23.67,8.46-20.29,8.46-20.29,5.07,13,.56,18-2.82,1.68,6.21,9a54.87,54.87,0,0,1,13,14.66s2.81-2.82,16.9-6.77,27.63-14.65,31-26.49,16.92-15.22,20.87-15.78-5.64,4.51-11.28,17.47S636.37,429.53,626.78,434s-32.12,14.65-41.7,21.42S558,471.24,555.76,478s-.56,21.42,2.26,27.06-9,14.09,7.32,13,22.55-7.89,29.32,0A30.8,30.8,0,0,1,602,534.37s-4.51-12.4-17.47-8.45-33.26,10.14-36.07,0-6.77-14.09-6.2-17.48-1.13-11.27-1.13-11.27-32.7-5.07-44,16.35-10.71,29.87-38.89,38.32-34.95-2.81-59.18,18.6-31.57,9-36.64,29.31S332.56,651.61,337.06,673s11.84,36.64,12.41,55.24,13,71,31.56,75.53,20.91,16.29,48.53,18,59.55-.49,81.54,15.85,27.65,21.63,58.65,21.63,79.49.93,91.88,4.88-2.18,1.7-2.18,1.7S625,867,609.21,870.34s-62.57-2.77-75-10.1-34.08-25.45-73-27.14-67.28.57-93.21-9-29.31-18-29.31-41.7-5.63-40.59-9.58-49,9-18-2.25-40-20.86-40-18.6-61.44"/><path class="cls-2" d="M213.76,850.7s7.12-15.73,6.74-24.35,6.38-16.11,13.87-21.73,22.1-21,22.1-31.1,6.75-17.62,12.75-24.36,8.24-11.62,8.24-11.62-13.86,27.36-13.86,32.6,1.87,9.37-.75,15.37-12.74,28.85-8.62,37.09,18,26.23,11.24,39c0,0,0-7.87-4.12-12.74s-12.74-8.24-22.11-5.24-18.36,4.49-25.48,7.11"/><path class="cls-2" d="M280.84,743.16s-9,16.11-9.75,23.24,1.5,19.86-4.12,31.1-7.12,17.61-2.25,26.23,7.49,22.1,7.49,22.1,18.74-3,30.73.75,16.49,3.75,16.49,3.75S302.57,844,300.7,835s1.12-30.73.75-39.72-6.75-32.23-9.38-34.48-6.36-11.61-11.23-17.61"/><path class="cls-3" d="M487.72,541.08s7,21.09,32,19.9c0,0-1.49-25.06-32-19.9"/><path class="cls-3" d="M495.45,561.9s-1.11,22.19,22.64,30.12c0,0,7.66-23.91-22.64-30.12"/><path class="cls-3" d="M647.34,421.94s7,21.09,32,19.9c0,0-1.49-25.06-32-19.9"/><path class="cls-3" d="M655.06,442.76S654,465,677.7,472.88c0,0,7.67-23.91-22.64-30.12"/><path class="cls-3" d="M511.18,517.62s7,21.09,32,19.91c0,0-1.49-25.07-32-19.91"/><path class="cls-3" d="M518.9,538.44s-1.1,22.19,22.64,30.12c0,0,7.67-23.91-22.64-30.12"/><path class="cls-3" d="M478.56,548s-10.29,19.69,8,36.83c0,0,17-18.51-8-36.83"/><path class="cls-3" d="M620.2,443.1s7,21.09,32,19.9c0,0-1.49-25.06-32-19.9"/><path class="cls-3" d="M627.93,463.92s-1.1,22.19,22.64,30.12c0,0,7.66-23.91-22.64-30.12"/><path class="cls-3" d="M611,450s-10.29,19.69,8,36.83c0,0,17-18.51-8-36.83"/><path class="cls-3" d="M595.72,465.33s-13,24.93,10.09,46.63c0,0,21.48-23.43-10.09-46.63"/><path class="cls-3" d="M525,297.51s7,21.09,32,19.91c0,0-1.49-25.07-32-19.91"/><path class="cls-3" d="M532.7,318.34s-1.09,22.18,22.65,30.11c0,0,7.66-23.91-22.65-30.11"/><path class="cls-3" d="M515.82,304.43s-10.29,19.69,8,36.83c0,0,17-18.51-8-36.83"/><path class="cls-3" d="M473.51,200.05s10.25,19.71,34.74,14.58c0,0-5.45-24.51-34.74-14.58"/><path class="cls-3" d="M484.44,219.38s2.44,22.08,27.14,26.14c0,0,3.77-24.82-27.14-26.14"/><path class="cls-3" d="M465.56,208.34s-7,21.07,13.71,35.09c0,0,13.82-21-13.71-35.09"/><path class="cls-3" d="M264.43,292.73s15.59,6.84,27.76-8c0,0-15.05-12-27.76,8"/><path class="cls-3" d="M280.25,299s12.07,12,28.78,2.56c0,0-9.69-16.64-28.78-2.56"/><path class="cls-3" d="M263.67,301.5s5.94,16,25.05,14.37c0,0-1.83-19.17-25.05-14.37"/><path class="cls-3" d="M280.08,215.7s-3.14-16.74-22.26-18.41c0,0-1.44,19.19,22.26,18.41"/><path class="cls-3" d="M276.36,199.09s3.11-16.74-14.1-25.22c0,0-8.29,17.38,14.1,25.22"/><path class="cls-3" d="M287.75,211.39s9.84-13.9-2.25-28.8c0,0-14.8,12.31,2.25,28.8"/><path class="cls-3" d="M308.59,199.58s15.6,6.85,27.75-8c0,0-15-12-27.75,8"/><path class="cls-3" d="M324.41,205.87s12.07,12,28.77,2.56c0,0-9.68-16.64-28.77-2.56"/><path class="cls-3" d="M307.83,208.36s5.94,15.95,25.06,14.36c0,0-1.84-19.16-25.06-14.36"/><path class="cls-3" d="M329.31,251.67s16.89-2.22,19.61-21.21c0,0-19.08-2.5-19.61,21.21"/><path class="cls-3" d="M346.11,246.1s16.54,4,25.95-12.7c0,0-16.9-9.22-25.95,12.7"/><path class="cls-3" d="M333.21,259.57s13.33,10.59,28.87-.68c0,0-11.49-15.45-28.87.68"/><path class="cls-3" d="M384.54,322.83s-5-14.25-22-13.11c0,0,1.35,17,22,13.11"/><path class="cls-3" d="M378.31,306.93s.5-17-17.82-22.74c0,0-5.51,18.44,17.82,22.74"/><path class="cls-3" d="M391.46,317.32s7.58-15.24-6.66-28.1c0,0-12.73,14.44,6.66,28.1"/><path class="cls-3" d="M143.84,214.63s-9.24,14.31,3.49,28.68c0,0,14.25-12.93-3.49-28.68"/><path class="cls-3" d="M112.62,205.2s-13.79,10-7.11,28c0,0,18-6.91,7.11-28"/><path class="cls-3" d="M112.73,205.54s-16-5.86-27.21,9.71c0,0,15.75,11.06,27.21-9.71"/><path class="cls-3" d="M83.5,239s3.39,16.69,22.53,18.09c0,0,1.17-19.21-22.53-18.09"/><path class="cls-3" d="M135.31,212.49s-16.71,3.32-18.17,22.45c0,0,19.2,1.24,18.17-22.45"/><path class="cls-3" d="M226.13,438.55s5.71-19.42-13.65-31.49c0,0-11.89,19.54,13.65,31.49"/><path class="cls-3" d="M238.82,450.78s8.73-12.41-2.09-25.65c0,0-13.14,11,2.09,25.65"/><path class="cls-3" d="M255.47,459.53s11.7-16.63-2.8-34.39c0,0-17.64,14.75,2.8,34.39"/><path class="cls-3" d="M127.28,189.3s6.42-19.19-12.48-32c0,0-12.59,19.09,12.48,32"/><path class="cls-3" d="M173.65,195.94s-3.89-19.86-26.64-21.65c0,0-1.54,22.81,26.64,21.65"/><path class="cls-3" d="M173.53,195.87s8.21-18.5-9.4-33c0,0-14.35,17.81,9.4,33"/><path class="cls-3" d="M136.37,189s11.44-12.4,1.44-28.6c0,0-16.11,10.21-1.44,28.6"/><path class="cls-3" d="M184.55,209.63S196,197.23,186,181c0,0-16.12,10.21-1.45,28.59"/><path class="cls-3" d="M211.46,298.12s12.62-3.69,12.43-18.52c0,0-14.86.36-12.43,18.52"/><path class="cls-3" d="M225.11,325.33s9.16-9.44,1.68-22.25c0,0-12.76,7.65-1.68,22.25"/><path class="cls-3" d="M225.11,325.24S238,322.76,239.23,308c0,0-14.83-1.05-14.12,17.26"/><path class="cls-3" d="M215,302.86s10.87,1.51,15.8-9.84c0,0-11.42-4.81-15.8,9.84"/><path class="cls-3" d="M227.23,276.46s10.86,1.51,15.8-9.84c0,0-11.43-4.81-15.8,9.84"/><path class="cls-3" d="M331,388.46a12.83,12.83,0,0,0,3.75-15s-9.6,3.72-3.75,15"/><path class="cls-3" d="M327.1,387.17a12.81,12.81,0,0,0-8.41-12.95s-3.81,9.56,8.41,12.95"/><path class="cls-3" d="M288.31,337.72a12.83,12.83,0,0,0,15.37,1.44s-5.13-8.92-15.37-1.44"/><path class="cls-3" d="M289,333.65a12.83,12.83,0,0,0,11.53-10.27s-10-2.32-11.53,10.27"/><path class="cls-3" d="M291.83,264.93a12.82,12.82,0,0,0,1.5,15.37s7.78-6.73-1.5-15.37"/><path class="cls-3" d="M295.94,264.83a12.82,12.82,0,0,0,12.27,9.37s.38-10.28-12.27-9.37"/><path class="cls-3" d="M310.34,238.88a12.81,12.81,0,0,0,9.25-12.36s-10.28-.28-9.25,12.36"/><path class="cls-3" d="M307.23,238.94a12.83,12.83,0,0,0-2.74-15.2s-7.21,7.34,2.74,15.2"/><path class="cls-3" d="M324.64,345.23s4.17-21.53-18-32.58c0,0-10.82,22.3,18,32.58"/><path class="cls-3" d="M375.4,345.76s-7-20.79-31.71-19.47c0,0,1.61,24.73,31.71,19.47"/><path class="cls-3" d="M334.36,343.6s10.53-15-2.52-30.93c0,0-15.86,13.27,2.52,30.93"/><path class="cls-3" d="M322.92,319.93s10.54-15-2.52-30.93c0,0-15.85,13.27,2.52,30.93"/><path class="cls-3" d="M351,318.34s9.09-6.63,4.64-18.52c0,0-11.86,4.6-4.64,18.52"/><path class="cls-3" d="M346.13,316.75s1.34-11.18-10.4-16c0,0-4.71,11.82,10.4,16"/><path class="cls-3" d="M417.62,163.5s-13.45-10.69-29.14.68c0,0,11.58,15.59,29.14-.68"/><path class="cls-3" d="M436.36,128.42s-17-2.66-25,15c0,0,17.77,7.84,25-15"/><path class="cls-3" d="M420,156.16s-6.58-12.74-22.4-9.45c0,0,3.47,15.82,22.4,9.45"/><path class="cls-3" d="M399.43,155.53s-6.58-12.73-22.41-9.45c0,0,3.47,15.83,22.41,9.45"/><path class="cls-3" d="M408.47,135.47a12.42,12.42,0,0,0-11.19-9.93s-1.09,9.91,11.19,9.93"/><path class="cls-3" d="M405.62,138.25a12.44,12.44,0,0,0-14.89,1.43s6.5,7.55,14.89-1.43"/><path class="cls-3" d="M388.51,274.67S377,263,360.89,272c0,0,9.16,16.07,27.62,2.7"/><path class="cls-3" d="M410.25,243.67S394.51,239.21,384.9,255c0,0,15.89,9.45,25.35-11.29"/><path class="cls-3" d="M391.61,268s-4.76-12.79-20.09-11.49c0,0,1.47,15.35,20.09,11.49"/><path class="cls-3" d="M383.08,247.13a11.83,11.83,0,0,0-9.44-10.66s-2.17,9.23,9.44,10.66"/><path class="cls-3" d="M380.06,249.43a11.85,11.85,0,0,0-14.24-.36s5.28,7.89,14.24.36"/><path class="cls-3" d="M243.34,421.58s8.39-6.12,4.28-17.09c0,0-10.94,4.24-4.28,17.09"/><path class="cls-3" d="M238.87,420.11s1.24-10.31-9.59-14.78c0,0-4.35,10.9,9.59,14.78"/><path class="cls-3" d="M197.52,353.67s10.52-17.53-5.34-34.27c0,0-16.59,16.09,5.34,34.27"/><path class="cls-3" d="M173.33,340.42s17.88-9.9,12.54-32.32c0,0-22.41,5.6-12.54,32.32"/><path class="cls-3" d="M150.76,352.66s17.88-9.9,12.54-32.33c0,0-22.41,5.61-12.54,32.33"/><path class="cls-3" d="M131.53,335.23s16.52.59,22.15-17.17c0,0-17.85-5.45-22.15,17.17"/><path class="cls-3" d="M122.57,323.7s17.58-9,13.11-30.83c0,0-21.81,4.72-13.11,30.83"/><path class="cls-3" d="M112.18,317.48s19.61-2.33,23-24.34c0,0-22.1-3.17-23,24.34"/><path class="cls-3" d="M98.58,303.88s19.62-2.33,23-24.34c0,0-22.09-3.16-23,24.34"/><path class="cls-3" d="M85.64,301.31s13.89-14,2.85-33.37c0,0-19.26,11.28-2.85,33.37"/><path class="cls-3" d="M64.59,270.27s10.63,5.52,19.85-4.36c0,0-10-9.12-19.85,4.36"/><path class="cls-3" d="M174.89,272.63s-14.88-8-28,5.76c0,0,13.92,13.05,28-5.76"/><path class="cls-3" d="M136.86,253.75s-11.88-6.38-22.4,4.6c0,0,11.12,10.41,22.4-4.6"/><path class="cls-3" d="M182.43,256.57s-1.86-16.78-20.65-19.85c0,0-2.85,18.87,20.65,19.85"/><path class="cls-3" d="M177.19,260.3s-15.17-17-38.2-5.62c0,0,11.63,22.95,38.2,5.62"/><path class="cls-3" d="M363.19,368.22S351,356.6,334.62,366.37c0,0,10,16.26,28.57,1.85"/><path class="cls-3" d="M341.65,358s-9.77-9.28-22.82-1.47c0,0,8,13,22.82,1.47"/><path class="cls-3" d="M315,390.36s-3.32-13.07-18.52-13.41c0,0-.17,15.23,18.52,13.41"/><path class="cls-3" d="M278.57,324.69s-2.52-9.88-14-10.14c0,0-.13,11.52,14,10.14"/><path class="cls-3" d="M368.69,357.12S361.15,342,342.43,345.6c0,0,3.84,18.72,26.26,11.52"/><path class="cls-3" d="M335.88,129.72s-8.58,14.71,4.76,28.5c0,0,13.67-13.56-4.76-28.5"/><path class="cls-3" d="M385.17,142.77s.5-17-17.82-22.74c0,0-5.51,18.44,17.82,22.74"/><path class="cls-3" d="M311.78,176.73s4.17-21.53-18-32.58c0,0-10.81,22.3,18,32.58"/><path class="cls-3" d="M295.51,176.08s-7-20.79-31.71-19.47c0,0,1.61,24.73,31.71,19.47"/><path class="cls-3" d="M323.47,181s10.54-15-2.52-30.93c0,0-15.85,13.26,2.52,30.93"/><path class="cls-3" d="M360.54,160.89S371.07,145.94,358,130c0,0-15.86,13.26,2.52,30.92"/><path class="cls-3" d="M346.39,174.69s9.09-6.64,4.64-18.53c0,0-11.86,4.6-4.64,18.53"/><path class="cls-3" d="M341.56,173.09s1.33-11.17-10.4-16c0,0-4.71,11.81,10.4,16"/><path class="cls-3" d="M315.39,185.14s-9.77-9.28-22.82-1.48c0,0,8,13,22.82,1.48"/><path class="cls-3" d="M354.66,189s-7.55-15.13-26.27-11.52c0,0,3.84,18.72,26.27,11.52"/><path class="cls-3" d="M357.68,222.72s23.74-2.94,27.73-29.63c0,0-26.79-3.69-27.73,29.63"/><path class="cls-3" d="M368.94,179.33s13.69,14.52,33.61,4c0,0-10.71-19.84-33.61-4"/><path class="cls-3" d="M367.76,176.1s12.06-8.43,6.56-24.07c0,0-15.62,5.68-6.56,24.07"/><path class="cls-3" d="M354.39,202.63s10.53-2.81,10.67-15.11c0,0-12.32,0-10.67,15.11"/><path class="cls-3" d="M431.46,213.08s-19.16-3.7-29,16c0,0,19.84,9.61,29-16"/><path class="cls-3" d="M404.11,216.52s-15.31-3-23.14,12.77c0,0,15.85,7.68,23.14-12.77"/><path class="cls-3" d="M434.25,192.76s-7.8-17.87-29.59-14.81c0,0,3.33,21.8,29.59,14.81"/><path class="cls-3" d="M429.76,198.68s-22.57-13.51-44.08,6.92c0,0,20.72,21.33,44.08-6.92"/><path class="cls-3" d="M249.34,264.27s0-19.51-21.2-25.41c0,0-5.67,21.31,21.2,25.41"/><path class="cls-3" d="M236.17,236.23s0-15.58-16.93-20.29c0,0-4.53,17,16.93,20.29"/><path class="cls-3" d="M268,254.89s16.07-11.06,8.92-31.87c0,0-20.77,7.4-8.92,31.87"/><path class="cls-3" d="M259.47,256.2s9-24.73-15.15-42c0,0-17,24.4,15.15,42"/><path class="cls-3" d="M444.35,309.86s9.2,16.47,29.88,11.47c0,0-5.26-20.68-29.88-11.47"/><path class="cls-3" d="M463.93,328s7.35,13.15,23.86,9.16c0,0-4.19-16.51-23.86-9.16"/><path class="cls-3" d="M428.86,327.22s-8.36,16.91,7.49,31.12c0,0,14-16-7.49-31.12"/><path class="cls-3" d="M434.75,320.08s4.07,25.12,32.58,28.3c0,0,2.87-28.61-32.58-28.3"/><path class="cls-3" d="M480.32,453.32s-25.36-3.53-36.88,23c0,0,26.68,11.23,36.88-23"/><path class="cls-3" d="M477.78,394.09s-23.79,9.46-20.72,38.18c0,0,28.74-3.4,20.72-38.18"/><path class="cls-3" d="M477.74,394.26s-24.93-5.91-38.88,19.37c0,0,25.5,13.71,38.88-19.37"/><path class="cls-3" d="M477.82,442.08s-18.09-11.35-35.91,4.86c0,0,16.45,17.67,35.91-4.86"/><path class="cls-3" d="M492.33,377.4s-16.26-10.2-32.27,4.36c0,0,14.79,15.88,32.27-4.36"/><path class="cls-3" d="M502.28,355.77S480.47,342.1,459,361.63c0,0,19.83,21.29,43.28-5.86"/><path class="cls-3" d="M450.93,456.89s-18.1-11.36-35.92,4.86c0,0,16.46,17.67,35.92-4.86"/><path class="cls-3" d="M391.27,541.81S385,521.39,360.91,522c0,0,.91,24.13,30.36,19.79"/><path class="cls-3" d="M415.06,506.56s21.23-2.35,25.11-26.12c0,0-23.87-3.62-25.11,26.12"/><path class="cls-3" d="M408,498.19s14.85-15.35,2.67-36.13c0,0-20.7,12.44-2.67,36.13"/><path class="cls-3" d="M398.42,496.78s-1.13-21.33-24.64-26.57c0,0-5,23.62,24.64,26.57"/><path class="cls-3" d="M394.58,467.16s9.14-9.44,1.64-22.22c0,0-12.73,7.65-1.64,22.22"/><path class="cls-3" d="M388.7,466.3S388,453.17,373.54,450c0,0-3.07,14.53,15.16,16.35"/><path class="cls-3" d="M447.33,424.28S439,414.09,425.45,420c0,0,6.1,13.55,21.88,4.26"/><path class="cls-3" d="M445.77,430s-13.11-.87-18,13.12c0,0,14.07,4.76,18-13.12"/><path class="cls-3" d="M455.13,373.66s-8.29-10.2-21.88-4.27c0,0,6.1,13.55,21.88,4.27"/><path class="cls-3" d="M453.58,379.39s-13.12-.86-18,13.12c0,0,14.08,4.77,18-13.12"/><path class="cls-3" d="M404.76,504.7s-22.86-12.11-42.94,9.06c0,0,21.44,19.88,42.94-9.06"/><path class="cls-3" d="M372.39,436.12s-22.86-12.11-42.94,9.06c0,0,21.44,19.88,42.94-9.06"/><path class="cls-3" d="M357.28,467.59s-13.71-21.94-41.69-13.68c0,0,8.59,27.95,41.69,13.68"/><path class="cls-3" d="M374.26,495.29s-13.71-21.94-41.69-13.68c0,0,8.59,27.94,41.69,13.68"/><path class="cls-3" d="M353.53,520.75s-.36-20.91-23.19-26.85c0,0-5.68,23,23.19,26.85"/><path class="cls-3" d="M387.68,396.75s-16.91,13-7.89,35.36c0,0,22.28-9.3,7.89-35.36"/><path class="cls-3" d="M398.09,400.22s-4.72,20.83,16.47,32.27c0,0,11.22-21.38-16.47-32.27"/><path class="cls-3" d="M403.47,396.55s10.2,15,29.55,8.41c0,0-6.79-19.31-29.55-8.41"/><path class="cls-3" d="M397.46,393s25.81-1.52,32-30c0,0-28.64-5.86-32,30"/><path class="cls-3" d="M494,435.82s17.65-11.49,10.53-34.16c0,0-22.63,7.41-10.53,34.16"/><path class="cls-3" d="M494.05,435.68s21.05.72,28.21-21.94c0,0-22.79-6.91-28.21,21.94"/><path class="cls-3" d="M486.22,397.12s16.43,6.22,28.17-9.74c0,0-16.14-11.58-28.17,9.74"/><path class="cls-3" d="M485,451.64s14.76,5.59,25.31-8.76c0,0-14.5-10.4-25.31,8.76"/><path class="cls-3" d="M480.5,470.69s19.81,7.49,34-11.74c0,0-19.44-14-34,11.74"/><path class="cls-3" d="M513.7,406.53s8.34,6.87,18.34-.12c0,0-7.12-9.93-18.34.12"/><path class="cls-3" d="M514,401.65s10.72-1.43,12.41-13.5c0,0-12.12-1.56-12.41,13.5"/><path class="cls-3" d="M661.82,412.05s8.33,6.87,18.33-.12c0,0-7.12-9.93-18.33.12"/><path class="cls-3" d="M662.14,407.17s10.71-1.43,12.41-13.5c0,0-12.12-1.56-12.41,13.5"/><path class="cls-3" d="M564.3,503.44s10,8.25,22-.14c0,0-8.54-11.92-22,.14"/><path class="cls-3" d="M564.68,497.58s12.87-1.72,14.9-16.21c0,0-14.55-1.87-14.9,16.21"/><path class="cls-3" d="M601.32,542.73s-2.06,12.81,11.25,18.92c0,0,6-13.4-11.25-18.92"/><path class="cls-3" d="M606.57,540.1s8,10.23,21.52,4.66c0,0-5.74-13.5-21.52-4.66"/><path class="cls-3" d="M515.62,448.62s8.34,6.87,18.34-.11c0,0-7.11-9.94-18.34.11"/><path class="cls-3" d="M515.94,443.74s10.72-1.43,12.42-13.5c0,0-12.13-1.56-12.42,13.5"/><path class="cls-3" d="M500,341.78s11.52-13.26.62-29.8c0,0-16.45,11.12-.62,29.8"/><path class="cls-3" d="M557.32,417.94s.42-17.56-18.53-23.35c0,0-5.58,19.06,18.53,23.35"/><path class="cls-3" d="M553.57,421.78s-10.66-10.41-25.2-2c0,0,8.61,14.47,25.2,2"/><path class="cls-3" d="M559,423.67s-20.58,5.42-20.92,29.42c0,0,24,.07,20.92-29.42"/><path class="cls-3" d="M535,271.69s2.41-16.71-15-24.39c0,0-7.49,17.55,15,24.39"/><path class="cls-3" d="M530.88,248.19s1.93-13.34-12-19.47c0,0-6,14,12,19.47"/><path class="cls-3" d="M555.41,273.28S570.54,265.8,567,247.1c0,0-18.71,3.77-11.59,26.18"/><path class="cls-3" d="M547.34,269.64s10.76-20.07-7.78-37.82c0,0-17.58,18.78,7.78,37.82"/><path class="cls-3" d="M116.54,234.92s-12.22,7.7-7.58,23.3c0,0,15.59-4.84,7.58-23.3"/><path class="cls-3" d="M228,367.39s-9.58-13.9-27.58-7.72c0,0,6.41,18,27.58,7.72"/><path class="cls-3" d="M224.77,375.45s-16.24-4.6-26.15,11.65c0,0,16.39,9.75,26.15-11.65"/><path class="cls-3" d="M227.44,379.85s-12.23,7.43-7.88,23c0,0,15.53-4.54,7.88-23"/><path class="cls-3" d="M230.51,375.25s.11,20.44,22.35,26.51c0,0,5.82-22.36-22.35-26.51"/><path class="cls-3" d="M279.21,370.17s-1,16.85,17,23c0,0,6-18.12-17-23"/><path class="cls-3" d="M286.67,365.75s10,13.6,27.8,6.85c0,0-7-17.76-27.8-6.85"/><path class="cls-3" d="M287.26,360.63s14.22,1.65,20.31-13.3c0,0-15-5.93-20.31,13.3"/><path class="cls-3" d="M522,186.5a12.85,12.85,0,0,0,13.41,7.67s-1-10.24-13.41-7.67"/><path class="cls-3" d="M524.27,183.09A12.85,12.85,0,0,0,539,178.5s-8.16-6.26-14.75,4.59"/><path class="cls-3" d="M552,208.36s12.69-17.88-2.89-37.09c0,0-19.06,15.83,2.89,37.09"/><path class="cls-3" d="M598,229.83S600.17,208,577.13,199c0,0-8.76,23.19,20.82,30.84"/><path class="cls-3" d="M561.47,210.9s15.78-9.27,10.49-29.21c0,0-19.92,5.53-10.49,29.21"/><path class="cls-3" d="M587,194.76s11-2.28,11.88-14.94c0,0-12.7-.72-11.88,14.94"/><path class="cls-3" d="M583.29,191.31s5.84-9.62-2.85-18.88c0,0-9.17,8.81,2.85,18.88"/><path class="cls-3" d="M562.17,227s-5.06-12.49-20.17-10.78c0,0,1.9,15.12,20.17,10.78"/><path class="cls-3" d="M587.14,237.4s-.61-16.89-19.14-21.34c0,0-4.25,18.62,19.14,21.34"/><path class="cls-3" d="M511.54,206.93s12.27,7.38,24-3.71c0,0-11.25-11.62-24,3.71"/><path class="cls-3" d="M481.48,276.47a12.82,12.82,0,0,0,1.46-15.37s-8.92,5.12-1.46,15.37"/><path class="cls-3" d="M477.42,275.78a12.83,12.83,0,0,0-10.26-11.54s-2.33,10,10.26,11.54"/><path class="cls-3" d="M504.4,277.55s1.66-14.21-13.28-20.33c0,0-5.95,15,13.28,20.33"/><path class="cls-3" d="M282,362.38s12.45-16.2-1.4-34.64c0,0-18.31,14.08,1.4,34.64"/><path class="cls-3" d="M459.39,91.52s12.08,12,28.78,2.55c0,0-9.68-16.63-28.78-2.55"/><path class="cls-3" d="M442.82,94s5.93,16,25.05,14.36c0,0-1.83-19.16-25.05-14.36"/><path class="cls-3" d="M467.46,130.21a12.81,12.81,0,0,0,15.37,1.44s-5.13-8.92-15.37-1.44"/><path class="cls-3" d="M468.14,126.15a12.83,12.83,0,0,0,11.53-10.27s-10-2.33-11.53,10.27"/><path class="cls-3" d="M503.78,137.72s4.17-21.53-17.95-32.58c0,0-10.82,22.3,17.95,32.58"/><path class="cls-3" d="M554.55,138.25s-7-20.78-31.71-19.47c0,0,1.6,24.73,31.71,19.47"/><path class="cls-3" d="M513.5,136.09s10.54-15-2.51-30.92c0,0-15.86,13.26,2.51,30.92"/><path class="cls-3" d="M502.07,112.42s10.54-15-2.52-30.93c0,0-15.86,13.27,2.52,30.93"/><path class="cls-3" d="M530.12,110.83s9.09-6.63,4.64-18.51c0,0-11.87,4.59-4.64,18.51"/><path class="cls-3" d="M525.27,109.24s1.35-11.17-10.38-16c0,0-4.72,11.81,10.38,16"/><path class="cls-3" d="M578.16,160.71s-12.24-11.62-28.57-1.85c0,0,10,16.26,28.57,1.85"/><path class="cls-3" d="M520.8,150.47S511,141.18,498,149c0,0,8,13,22.82,1.48"/><path class="cls-3" d="M457.71,117.19s-2.51-9.88-14-10.15c0,0-.13,11.53,14,10.15"/><path class="cls-3" d="M465.81,158.24s10,13.6,27.81,6.85c0,0-7-17.76-27.81-6.85"/><path class="cls-3" d="M466.41,153.13s14.21,1.64,20.31-13.3c0,0-15.05-5.94-20.31,13.3"/><path class="cls-3" d="M461.17,154.88s12.45-16.21-1.39-34.65c0,0-18.32,14.09,1.39,34.65"/><path class="cls-3" d="M467.39,578.49s-6.92-11.18-21.15-7.06c0,0,4.29,14.22,21.15,7.06"/><path class="cls-3" d="M465.11,584s-12.9-2.55-19.58,10.68c0,0,13.34,6.54,19.58-10.68"/><path class="cls-3" d="M394.77,586.25s-18.46,10.74-12.39,34c0,0,23.29-6.36,12.39-34"/><path class="cls-3" d="M402.79,596.55S395.42,616.6,415,630.67c0,0,13.88-19.75-12.18-34.12"/><path class="cls-3" d="M413.2,594.53s8.19,16.15,28.22,12.15c0,0-4.24-20-28.22-12.15"/><path class="cls-3" d="M407.7,590.21s25.8,1.83,35.59-25.65c0,0-27.65-9.5-35.59,25.65"/><path class="cls-3" d="M566.2,397.16s6.87-21.12-14-35c0,0-13.67,21.06,14,35"/><path class="cls-3" d="M566.2,571s6.87-21.12-14-35c0,0-13.67,21.06,14,35"/><path class="cls-3" d="M508.68,368s8.67,9.88,22,3.45c0,0-6.59-13.31-22-3.45"/><path class="cls-3" d="M510,362.22s13.14.37,17.53-13.78c0,0-14.23-4.24-17.53,13.78"/><path class="cls-3" d="M635.94,383.83s16.43-13.65,6.59-35.63c0,0-21.92,10.12-6.59,35.63"/><path class="cls-3" d="M625.43,380.74s4-21-17.66-31.63c0,0-10.43,21.78,17.66,31.63"/><path class="cls-3" d="M620.18,384.61S609.43,370,590.34,377.3c0,0,7.51,19.05,29.84,7.31"/><path class="cls-3" d="M626.32,388s-25.74,2.46-30.86,31.19c0,0,28.85,4.79,30.86-31.19"/></svg>